<svg  viewBox="0 0 357 350" fill="none" xmlns="http://www.w3.org/2000/svg">
<rect x="26.923" width="323.076" height="350" rx="161.538" fill="#EFF2FD"/>
<path fill-rule="evenodd" clip-rule="evenodd" d="M101.83 44.4229C113.599 43.3185 127.48 47.2486 137.347 49.6332C159.684 55.0252 180.81 59.9821 202.364 65.8773C212.736 68.7132 223.507 71.8867 234.077 74.7644C255.738 80.6698 275.157 85.1944 297.823 92.236C307.55 95.2569 318.469 98.063 328.898 101.74C337.636 104.813 348.848 109.022 353.638 117.065C354.727 118.893 356.444 122.548 356.81 125.341C357.769 132.662 354.878 140.795 353.002 147.409C347.326 167.466 339.542 186.237 333.341 205.645C326.619 226.687 322.005 244.967 316.849 266.944C313.491 281.262 311.935 298.224 292.429 296.057C289.518 295.739 287.024 294.875 284.184 294.222C278.219 292.848 271.719 292.812 266.425 291.77C254.999 289.522 243.514 286.524 233.442 284.108C210.648 278.638 190.143 273.401 168.748 267.863C136.52 259.522 107.912 248.765 74.8713 239.971C63.908 237.051 48.2896 235.512 43.1579 228.632C42.0388 227.128 40.2005 223.542 39.3499 220.97C37.8744 216.501 39.3702 211.459 40.3047 205.954C44.4453 181.427 51.4427 156.17 57.7445 134.228C63.7878 113.19 71.0367 97.303 77.4092 77.2166C79.3887 70.9734 80.9383 64.221 83.7509 58.2116C87.1625 50.9288 94.3856 45.1214 101.83 44.4229Z" fill="#FF5000"/>
<path fill-rule="evenodd" clip-rule="evenodd" d="M224.006 89.0619C228.117 86.5672 232.079 83.8841 238.586 83.241C249.808 82.127 262.338 84.5373 271.573 86.6125C280.852 88.6978 289.708 92.1314 299.008 94.8855C307.626 97.4423 316.697 100.051 326.786 102.86C334.768 105.078 349.102 108.388 351.088 113.89C352.284 117.201 350.772 122.072 349.354 125.538C345.293 135.445 341.439 146.463 338.242 156.802C333.994 170.555 328.395 184.1 323.656 198.485C319.17 212.115 314.733 226.313 309.42 240.478C307.013 246.909 304.21 253.412 301.438 260.707C298.735 267.801 297.089 276.526 289.634 278.182C285.285 279.137 281.934 277.305 277.474 275.113C273.65 273.226 269.432 271.592 266.717 270.208C259.591 266.589 252.658 262.529 246.225 259.788C230.876 253.246 208.61 250.94 192.75 256.108C183.138 259.249 177.613 263.354 168.79 269.289C154.53 250.979 139.305 239.322 115.315 230.974C107.548 228.271 99.156 225.982 89.6214 225.458C78.0969 224.824 58.9299 229.038 53.5122 221.778C52.3254 220.196 51.4118 216.052 51.7746 211.971C52.4302 204.611 55.0045 197.166 56.6345 189.907C58.2512 182.712 59.9818 175.459 61.8473 168.447C65.3464 155.259 70.6193 143.013 75.0424 127.991C80.964 107.858 86.8088 87.392 93.0938 65.7687C94.5994 60.6044 97.8831 47.6865 104.208 47.6865C109.105 47.6865 114.792 49.3564 119.84 50.7527C134.349 54.7612 147.214 58.915 162.89 62.4006C177.641 65.6748 192.607 69.0497 204.904 74.9679C212.805 78.7589 219.819 82.0298 224.006 89.0619Z" fill="#C0B7E4"/>
<path fill-rule="evenodd" clip-rule="evenodd" d="M226.78 75.3808C230.538 72.88 234.157 70.1969 240.103 69.5571C250.351 68.4432 261.794 70.8528 270.23 72.9219C278.699 75.0106 286.792 78.4469 295.285 81.2017C303.153 83.7545 311.444 86.3626 320.653 89.1728C327.946 91.3946 341.033 94.7046 342.855 100.203C343.947 103.517 342.566 108.389 341.269 111.851C337.558 121.758 334.04 132.776 331.119 143.118C327.24 156.868 322.125 170.412 317.8 184.802C313.7 198.431 309.65 212.629 304.796 226.794C302.595 233.222 300.037 239.728 297.503 247.02C295.04 254.114 293.537 262.839 286.722 264.492C282.756 265.456 279.691 263.615 275.617 261.425C272.122 259.538 268.278 257.905 265.787 256.52C259.288 252.902 252.956 248.842 247.08 246.104C233.058 239.562 212.718 237.256 198.239 242.424C189.458 245.558 184.412 249.667 176.357 255.602C163.327 237.292 149.423 225.638 127.516 217.293C120.424 214.587 112.755 212.298 104.047 211.774C93.524 211.141 76.0135 215.35 71.0662 208.094C69.9807 206.509 69.1441 202.364 69.4803 198.288C70.0786 190.924 72.4278 183.479 73.9201 176.22C75.3956 169.025 76.9753 161.772 78.6794 154.763C81.8757 141.572 86.6853 129.327 90.7281 114.304C96.1423 94.1723 101.48 73.7021 107.22 52.0856C108.592 46.9179 111.593 34.0034 117.364 34C121.837 34 127.036 35.6726 131.637 37.0662C144.892 41.074 156.645 45.2257 170.966 48.7141C184.433 51.9944 198.102 55.3666 209.337 61.2814C216.553 65.0744 222.962 68.3453 226.78 75.3808Z" fill="#E2DFF2"/>
<path fill-rule="evenodd" clip-rule="evenodd" d="M301.937 216.352C301.12 217.414 299.866 216.501 299.113 216.242C296.539 215.358 293.985 213.789 291.37 212.702C287.757 211.198 283.939 209.966 280.087 208.609C272.71 206.01 265.007 203.213 257.099 200.937C242.92 196.847 227.442 194.149 212.859 190.335C211.068 189.864 208.92 189.549 207.616 188.145C207.889 186.83 209.28 186.986 210.393 186.973C212.47 186.944 214.862 187.606 217.276 188.048C223.632 189.205 230.165 190.936 235.912 192.346C244.368 194.422 252.596 196.513 260.598 198.371C273.35 201.327 285.607 204.078 294.722 209.752C296.144 210.639 297.569 211.73 298.933 212.747C300.112 213.633 302.115 214.617 301.937 216.352Z" fill="white"/>
<path fill-rule="evenodd" clip-rule="evenodd" d="M287.821 247.411C286.998 248.473 285.751 247.561 284.994 247.3C282.42 246.414 279.866 244.848 277.251 243.757C273.642 242.256 269.823 241.025 265.972 239.667C258.592 237.068 250.892 234.272 242.98 231.992C228.801 227.906 213.324 225.206 198.741 221.393C196.953 220.922 194.802 220.607 193.498 219.207C193.773 217.888 195.165 218.044 196.277 218.028C198.351 218.001 200.743 218.665 203.16 219.103C209.516 220.26 216.046 221.994 221.79 223.407C230.249 225.479 238.477 227.571 246.482 229.429C259.23 232.385 271.487 235.139 280.606 240.813C282.027 241.697 283.449 242.788 284.813 243.805C285.996 244.689 287.996 245.677 287.821 247.411Z" fill="white"/>
<path fill-rule="evenodd" clip-rule="evenodd" d="M291.554 239.777C290.737 240.843 289.483 239.93 288.731 239.667C286.156 238.787 283.602 237.217 280.984 236.126C277.374 234.623 273.56 233.395 269.705 232.037C262.328 229.435 254.628 226.641 246.717 224.362C232.537 220.275 217.06 217.576 202.477 213.763C200.686 213.292 198.535 212.976 197.234 211.573C197.506 210.258 198.898 210.413 200.014 210.397C202.088 210.372 204.477 211.034 206.897 211.475C213.249 212.628 219.783 214.366 225.53 215.776C233.986 217.848 242.214 219.94 250.22 221.797C262.967 224.753 275.224 227.505 284.34 233.179C285.761 234.066 287.187 235.157 288.551 236.177C289.729 237.059 291.732 238.043 291.554 239.777Z" fill="white"/>
<path fill-rule="evenodd" clip-rule="evenodd" d="M295.531 223C293.507 223.523 291.377 222.526 289.599 221.841C277.086 217.021 263.511 212.067 249.507 208.013C237.67 204.587 224.798 201.732 212.564 198.165C210.722 197.626 208.554 196.967 206.719 196.281C205.113 195.683 202.857 195.099 202.921 192.965C205.125 191.913 208.769 192.949 212.126 193.549C227.196 196.249 241.94 200.296 254.827 204.356C266.431 208.01 276.874 212.233 287.108 217.014C288.654 217.735 290.348 218.615 291.942 219.525C293.269 220.282 295.575 221.009 295.531 223Z" fill="white"/>
<path fill-rule="evenodd" clip-rule="evenodd" d="M295.531 232.025C293.507 232.548 291.377 231.551 289.599 230.865C277.086 226.044 263.511 221.092 249.507 217.038C237.67 213.607 224.798 210.755 212.564 207.189C210.722 206.654 208.554 205.994 206.719 205.305C205.113 204.708 202.857 204.123 202.921 201.989C205.125 200.936 208.769 201.969 212.126 202.574C227.196 205.273 241.94 209.32 254.827 213.38C266.431 217.034 276.874 221.257 287.108 226.038C288.654 226.759 290.348 227.636 291.942 228.549C293.269 229.306 295.575 230.033 295.531 232.025Z" fill="white"/>
<path fill-rule="evenodd" clip-rule="evenodd" d="M254.015 79.7135C253.168 84.4725 252.035 89.0032 250.839 93.4758C245.804 92.2808 240.904 90.9615 235.264 90.3414C236.017 88.4053 236.703 86.239 237.688 84.1307C238.478 82.4513 239.801 79.8756 241.425 79.1217C242.91 78.43 245.159 78.3584 246.779 78.4361C249.235 78.557 251.638 79.5932 254.015 79.7135Z" fill="#8F7ECE"/>
<path fill-rule="evenodd" clip-rule="evenodd" d="M257.451 80.3604C262.27 81.4256 266.414 83.1408 270.911 84.5215C269.342 88.7442 267.695 92.9148 266.438 97.3942C262.186 96.6565 258.604 95.2798 254.463 94.4287C255.569 89.8291 256.554 85.1288 257.451 80.3604Z" fill="#8F7ECE"/>
<path fill-rule="evenodd" clip-rule="evenodd" d="M274.011 85.6475C277.654 86.7972 281.136 88.1124 284.759 89.2919C283.986 93.657 282.383 97.3541 281.33 101.498C277.489 100.472 273.772 99.3354 269.89 98.3512C271.208 94.0732 272.646 89.8931 274.011 85.6475Z" fill="#8F7ECE"/>
<path fill-rule="evenodd" clip-rule="evenodd" d="M301.164 95.0545C300.122 99.0042 299.05 102.928 298.086 106.936C293.696 105.455 289.193 104.084 284.797 102.613C285.929 98.6374 287.116 94.7066 288.047 90.5684C292.553 91.9363 296.768 93.5798 301.164 95.0545Z" fill="#8F7ECE"/>
<path fill-rule="evenodd" clip-rule="evenodd" d="M250.073 96.6429C249.216 99.68 248.302 102.675 247.599 105.832C241.899 105.325 237.164 103.899 230.825 104C231.968 100.385 233.087 96.753 234.31 93.2031C239.846 94.0766 244.927 95.3918 250.073 96.6429Z" fill="#8F7ECE"/>
<path fill-rule="evenodd" clip-rule="evenodd" d="M265.323 100.573C264.375 103.591 263.366 106.56 262.295 109.473C258.655 108.424 254.921 107.456 251.042 106.634C251.926 103.669 252.753 100.654 253.522 97.5977C257.673 98.3873 261.29 99.6769 265.323 100.573Z" fill="#8F7ECE"/>
<path fill-rule="evenodd" clip-rule="evenodd" d="M313.912 99.4053C312.713 103.375 311.234 107.12 310.111 111.154C307.043 110.374 304.573 109.026 301.548 108.208C302.593 104.265 303.265 100.019 304.438 96.1797C307.617 97.2355 310.693 98.3886 313.912 99.4053Z" fill="#8F7ECE"/>
<path fill-rule="evenodd" clip-rule="evenodd" d="M268.771 101.533C272.899 102.338 276.512 103.631 280.39 104.67C279.517 107.795 278.444 110.761 277.745 114.022C273.648 113.028 270.086 111.521 265.929 110.579C266.59 107.337 268.052 104.732 268.771 101.533Z" fill="#8F7ECE"/>
<path fill-rule="evenodd" clip-rule="evenodd" d="M317.012 100.531C320.08 101.525 326.063 103.344 327.656 105.904C329.834 109.399 326.795 113.774 326.54 117.545C322.026 116.018 317.916 114.111 313.405 112.588C314.622 108.581 316.051 104.748 317.012 100.531Z" fill="#8F7ECE"/>
<path fill-rule="evenodd" clip-rule="evenodd" d="M246.476 109.011C245.878 112.909 244.543 116.222 243.717 119.935C238.158 119.184 232.43 118.597 226.586 118.119C227.575 114.228 228.606 110.376 230.048 106.848C235.983 107.134 240.981 108.307 246.476 109.011Z" fill="#8F7ECE"/>
<path fill-rule="evenodd" clip-rule="evenodd" d="M283.853 105.783C288.387 107.18 292.82 108.671 297.324 110.099C296.413 113.348 295.499 116.592 294.692 119.922C290.02 118.551 285.816 116.732 281.212 115.293C281.844 111.925 282.98 108.96 283.853 105.783Z" fill="#8F7ECE"/>
<path fill-rule="evenodd" clip-rule="evenodd" d="M261.353 112.645C260.187 115.987 259.222 119.495 258.022 122.811C254.595 121.937 250.982 121.239 247.335 120.576C248.275 116.952 249.22 113.33 250.282 109.799C254.097 110.631 257.861 111.511 261.353 112.645Z" fill="#8F7ECE"/>
<path fill-rule="evenodd" clip-rule="evenodd" d="M300.606 111.378C303.591 112.184 306.105 113.431 308.988 114.331C308.027 117.638 306.922 120.828 305.819 124.02C303.191 123.199 300.734 122.224 298.163 121.35C298.711 117.81 300.032 114.893 300.606 111.378Z" fill="#8F7ECE"/>
<path fill-rule="evenodd" clip-rule="evenodd" d="M276.624 117.203C275.828 120.587 274.719 123.725 273.822 127.031C269.701 125.947 265.756 124.696 261.645 123.604C262.677 120.253 263.799 116.972 264.804 113.6C268.865 114.685 272.703 115.985 276.624 117.203Z" fill="#8F7ECE"/>
<path fill-rule="evenodd" clip-rule="evenodd" d="M312.287 115.768C316.972 117.181 321.008 119.214 325.599 120.718C324.584 123.978 323.475 127.166 322.611 130.553C318.289 128.685 313.863 126.918 309.285 125.291C310.213 122.063 311.5 119.117 312.287 115.768Z" fill="#8F7ECE"/>
<path fill-rule="evenodd" clip-rule="evenodd" d="M293.58 123.262C292.861 126.507 291.802 129.485 290.932 132.613C286.603 130.91 282.05 129.426 277.28 128.147C278.214 124.921 279.212 121.748 280.093 118.474C284.785 119.884 289.268 121.488 293.58 123.262Z" fill="#8F7ECE"/>
<path fill-rule="evenodd" clip-rule="evenodd" d="M242.595 123.115C241.569 127.477 240.262 131.615 239.015 135.796C233.655 134.912 228.314 134.009 222.409 133.645C223.32 129.543 224.459 125.626 225.478 121.611C225.461 121.342 225.595 121.202 225.817 121.127C231.752 121.465 237.103 122.358 242.595 123.115Z" fill="#8F7ECE"/>
<path fill-rule="evenodd" clip-rule="evenodd" d="M257.072 125.825C255.801 130.045 254.43 134.179 253.311 138.516C249.765 137.808 246.206 137.119 242.63 136.438C243.847 132.228 245.167 128.103 246.213 123.757C250.108 124.188 253.402 125.186 257.072 125.825Z" fill="#8F7ECE"/>
<path fill-rule="evenodd" clip-rule="evenodd" d="M297.048 124.533C299.763 125.209 301.962 126.378 304.69 127.044C303.984 130.559 302.587 133.515 301.706 136.883C299.283 135.922 296.984 134.846 294.402 134.044C295.122 130.743 296.265 127.781 297.048 124.533Z" fill="#8F7ECE"/>
<path fill-rule="evenodd" clip-rule="evenodd" d="M272.879 130.207C271.672 134.277 270.489 138.36 269.276 142.42C265.004 141.475 261.132 140.156 256.756 139.318C258.047 135.167 259.307 130.996 260.524 126.783C264.863 127.716 268.742 129.087 272.879 130.207Z" fill="#8F7ECE"/>
<path fill-rule="evenodd" clip-rule="evenodd" d="M321.673 133.727C320.832 137.635 319.578 141.211 318.755 145.131C314.147 142.932 309.597 140.682 305.177 138.307C305.92 134.828 307.291 131.85 308.162 128.472C312.954 129.95 317.253 131.899 321.673 133.727Z" fill="#8F7ECE"/>
<path fill-rule="evenodd" clip-rule="evenodd" d="M289.991 135.785C288.754 139.979 287.333 144.019 286.038 148.167C281.561 146.716 277.478 144.89 272.743 143.688C273.882 139.517 275.146 135.447 276.335 131.319C281.213 132.499 285.653 134.096 289.991 135.785Z" fill="#8F7ECE"/>
<path fill-rule="evenodd" clip-rule="evenodd" d="M238.076 138.973C237.017 142.903 235.687 146.619 234.625 150.553C229.13 149.689 224.253 148.237 218.698 147.431C219.763 143.855 220.613 140.11 221.635 136.498C227.288 137.157 232.766 137.986 238.076 138.973Z" fill="#8F7ECE"/>
<path fill-rule="evenodd" clip-rule="evenodd" d="M293.283 137.223C296.052 137.905 298.243 139.136 300.764 140.055C299.45 144.187 298.041 148.24 296.996 152.587C294.322 151.706 291.827 150.651 289.501 149.443C290.607 145.246 292.224 141.455 293.283 137.223Z" fill="#8F7ECE"/>
<path fill-rule="evenodd" clip-rule="evenodd" d="M252.189 141.54C251.315 145.724 249.987 149.544 249.124 153.73C245.184 153.23 241.847 152.168 238.076 151.512C239.307 147.562 240.53 143.609 241.693 139.611C245.323 140.13 248.59 140.994 252.189 141.54Z" fill="#8F7ECE"/>
<path fill-rule="evenodd" clip-rule="evenodd" d="M268.158 145.597C267.116 149.647 265.665 153.366 264.535 157.342C260.455 156.491 256.472 155.549 252.567 154.532C253.706 150.566 254.678 146.461 255.817 142.491C260.21 143.264 264.098 144.508 268.158 145.597Z" fill="#8F7ECE"/>
<path fill-rule="evenodd" clip-rule="evenodd" d="M304.068 141.647C308.706 143.865 313.411 146.026 317.649 148.624C316.802 152.726 315.74 156.66 314.943 160.798C309.979 158.67 305.082 156.478 300.297 154.178C301.379 149.861 302.757 145.782 304.068 141.647Z" fill="#8F7ECE"/>
<path fill-rule="evenodd" clip-rule="evenodd" d="M284.918 151.348C283.957 155.157 282.529 158.597 281.628 162.45C276.923 161.274 272.762 159.575 267.993 158.455C269.223 154.508 270.409 150.526 271.794 146.706C276.261 148.161 280.671 149.681 284.918 151.348Z" fill="#8F7ECE"/>
<path fill-rule="evenodd" clip-rule="evenodd" d="M233.506 153.732C232.286 157.886 231.032 162.014 229.731 166.107C224.824 165.064 219.974 163.966 214.536 163.427C215.82 159.169 216.647 154.547 218.109 150.432C223.457 151.325 228.256 152.741 233.506 153.732Z" fill="#8F7ECE"/>
<path fill-rule="evenodd" clip-rule="evenodd" d="M248.18 156.902C247.327 161.251 246.177 165.363 245.32 169.712C241.428 168.685 237.472 167.711 233.355 166.899C234.592 162.758 235.799 158.591 237.13 154.524C240.702 155.42 244.386 156.21 248.18 156.902Z" fill="#8F7ECE"/>
<path fill-rule="evenodd" clip-rule="evenodd" d="M288.39 152.777C290.988 153.781 293.683 154.703 295.891 156.081C295.051 159.734 294.019 163.24 293.122 166.848C290.325 165.867 287.781 164.646 284.911 163.73C286.101 160.102 287.166 156.38 288.39 152.777Z" fill="#8F7ECE"/>
<path fill-rule="evenodd" clip-rule="evenodd" d="M263.415 160.521C262.309 164.919 260.884 169.06 259.661 173.367C256.111 172.448 252.69 171.402 248.953 170.661C249.676 166.208 250.832 162.099 251.813 157.854C255.832 158.598 259.6 159.582 263.415 160.521Z" fill="#8F7ECE"/>
<path fill-rule="evenodd" clip-rule="evenodd" d="M299.362 157.506C304.36 159.657 309.179 161.976 314.184 164.12C313.411 167.878 312.47 171.502 311.613 175.195C306.538 172.951 301.446 170.726 296.593 168.273C297.403 164.597 298.394 161.06 299.362 157.506Z" fill="#8F7ECE"/>
<path fill-rule="evenodd" clip-rule="evenodd" d="M267.044 161.474C271.551 162.839 276.055 164.212 280.508 165.635C279.409 170.039 278.125 174.294 277.124 178.777C272.563 177.299 267.999 175.821 263.297 174.476C264.295 169.939 265.765 165.785 267.044 161.474Z" fill="#8F7ECE"/>
<path fill-rule="evenodd" clip-rule="evenodd" d="M228.788 169.283C227.646 173.197 226.325 176.968 225.162 180.87C221.291 179.749 215.345 178.774 213.617 175.38C212.398 172.986 213.402 169.641 213.789 166.909C213.782 166.753 213.775 166.595 213.768 166.442C219.364 166.831 223.892 168.231 228.788 169.283Z" fill="#8F7ECE"/>
<path fill-rule="evenodd" clip-rule="evenodd" d="M283.971 166.904C286.841 167.872 289.581 168.963 292.189 170.178C291.376 174.56 290.109 178.575 289.517 183.135C286.358 182.281 283.75 180.904 280.591 180.049C281.612 175.583 282.782 171.237 283.971 166.904Z" fill="#8F7ECE"/>
<path fill-rule="evenodd" clip-rule="evenodd" d="M244.562 172.879C243.88 177.115 242.75 180.993 242.041 185.206C237.42 184.27 233.061 183.085 228.618 181.984C229.854 177.991 231.115 174.019 232.415 170.079C236.694 170.79 240.599 171.862 244.562 172.879Z" fill="#8F7ECE"/>
<path fill-rule="evenodd" clip-rule="evenodd" d="M295.67 171.763C300.798 173.897 305.91 176.043 310.504 178.687C309.688 182.767 308.282 186.369 307.792 190.709C302.7 188.815 298.066 186.477 292.816 184.726C293.673 180.332 294.607 175.995 295.67 171.763Z" fill="#8F7ECE"/>
<path fill-rule="evenodd" clip-rule="evenodd" d="M258.898 176.53C257.749 180.545 256.868 184.771 255.839 188.88C252.377 187.987 248.886 187.12 245.491 186.161C246.426 182.078 247.253 177.908 248.193 173.828C251.927 174.572 255.345 175.614 258.898 176.53Z" fill="#8F7ECE"/>
<path fill-rule="evenodd" clip-rule="evenodd" d="M276.371 182.098C275.712 186.2 274.573 189.92 274.018 194.107C269.017 192.879 264.369 191.317 259.479 189.988C260.137 185.629 261.371 181.738 262.359 177.645C267.182 178.989 271.921 180.405 276.371 182.098Z" fill="#8F7ECE"/>
<path fill-rule="evenodd" clip-rule="evenodd" d="M279.836 183.368C283.156 184.069 285.673 185.534 288.762 186.457C288.204 190.442 287.257 194.11 286.753 198.137C283.933 197.608 280.686 196.078 277.48 195.376C278.048 191.202 279.174 187.47 279.836 183.368Z" fill="#8F7ECE"/>
<path fill-rule="evenodd" clip-rule="evenodd" d="M292.244 188.042C297.338 189.881 302.279 191.871 306.867 194.191C306.134 197.598 305.643 201.652 302.014 202.379C299.796 202.828 297.497 201.983 295.51 201.388C293.558 200.803 291.669 200.251 290.221 199.407C290.788 195.535 291.619 191.868 292.244 188.042Z" fill="#8F7ECE"/>
<g opacity="0.94">
<g opacity="0.94">
<path opacity="0.94" fill-rule="evenodd" clip-rule="evenodd" d="M217.549 84.9469C216.675 86.0804 215.344 85.1097 214.541 84.8334C211.805 83.8918 209.09 82.2253 206.304 81.0654C202.466 79.4644 198.402 78.1587 194.305 76.713C186.457 73.9488 178.264 70.9732 169.851 68.5501C154.768 64.2038 138.303 61.3329 122.792 57.2757C120.887 56.7752 118.598 56.4408 117.213 54.9466C117.506 53.5435 118.988 53.7124 120.17 53.6962C122.375 53.6671 124.923 54.3717 127.491 54.8398C134.252 56.0713 141.197 57.9155 147.313 59.4165C156.307 61.622 165.058 63.8465 173.572 65.8217C187.137 68.9662 200.173 71.8959 209.87 77.931C211.386 78.8727 212.898 80.0359 214.35 81.1174C215.606 82.0557 217.734 83.1048 217.549 84.9469Z" fill="#8F7ECE"/>
<path opacity="0.94" fill-rule="evenodd" clip-rule="evenodd" d="M210.73 92.0243C208.579 92.5795 206.314 91.5176 204.425 90.7901C191.109 85.6643 176.671 80.3926 161.772 76.0794C149.183 72.435 135.487 69.3979 122.477 65.6042C120.517 65.0327 118.215 64.3308 116.259 63.5999C114.552 62.9636 112.152 62.3461 112.219 60.0724C114.565 58.9517 118.437 60.0528 122.013 60.6958C138.041 63.5675 153.73 67.8712 167.436 72.1911C179.777 76.0794 190.888 80.5682 201.771 85.6548C203.417 86.4249 205.222 87.3571 206.913 88.3218C208.323 89.1304 210.777 89.9031 210.73 92.0243Z" fill="#8F7ECE"/>
</g>
<g opacity="0.94">
<g opacity="0.94">
<path opacity="0.94" fill-rule="evenodd" clip-rule="evenodd" d="M180.179 180.457C177.393 179.781 174.556 179.122 171.696 178.459C163.183 176.488 154.431 174.26 145.437 172.054C139.324 170.553 132.374 168.708 125.611 167.481C123.047 167.01 120.499 166.308 118.291 166.337C117.111 166.35 115.629 166.185 115.337 167.588C116.721 169.082 119.01 169.413 120.916 169.913C136.426 173.971 152.888 176.842 167.971 181.191C171.504 182.204 174.992 183.322 178.434 184.475C178.952 183.143 179.53 181.805 180.179 180.457Z" fill="#8F7ECE"/>
<path opacity="0.94" fill-rule="evenodd" clip-rule="evenodd" d="M177 188.732C173.289 187.367 169.488 186.065 165.559 184.827C151.85 180.507 136.165 176.203 120.137 173.332C116.561 172.692 112.689 171.591 110.343 172.708C110.276 174.982 112.675 175.602 114.38 176.239C116.339 176.97 118.641 177.671 120.597 178.24C133.61 182.034 147.309 185.071 159.896 188.715C165.277 190.275 170.587 191.967 175.814 193.724C176.132 192.025 176.526 190.369 177 188.732Z" fill="#8F7ECE"/>
</g>
<g opacity="0.94">
<path opacity="0.94" fill-rule="evenodd" clip-rule="evenodd" d="M176.999 198.518C174.209 197.843 171.376 197.19 168.516 196.524C160.003 194.55 151.248 192.325 142.254 190.116C136.144 188.618 129.193 186.773 122.431 185.542C119.864 185.075 117.316 184.37 115.111 184.399C113.928 184.412 112.446 184.246 112.157 185.649C113.541 187.143 115.83 187.478 117.736 187.975C133.243 192.032 149.708 194.906 164.791 199.253C168.324 200.269 171.813 201.387 175.254 202.543C175.772 201.205 176.35 199.867 176.999 198.518Z" fill="#8F7ECE"/>
<path opacity="0.94" fill-rule="evenodd" clip-rule="evenodd" d="M173.82 206.796C170.107 205.435 166.309 204.132 162.376 202.895C148.67 198.575 132.986 194.268 116.953 191.396C113.381 190.756 109.506 189.659 107.163 190.776C107.096 193.046 109.495 193.67 111.2 194.304C113.159 195.038 115.458 195.736 117.418 196.308C130.431 200.102 144.126 203.139 156.716 206.783C162.097 208.342 167.404 210.034 172.634 211.789C172.954 210.09 173.343 208.433 173.82 206.796Z" fill="#8F7ECE"/>
</g>
</g>
<g opacity="0.94">
<path opacity="0.94" fill-rule="evenodd" clip-rule="evenodd" d="M149.365 85.4438C150.128 82.3743 154.528 83.0079 157.774 83.2612C164.759 83.807 170.297 84.8426 176.031 87.0292C177.802 87.7048 182.867 89.4266 182.389 91.391C181.872 93.5027 175.076 91.6052 173.977 91.391C167.857 90.1792 163.313 88.9389 157.159 87.8216C154.329 87.3055 151.264 87.1333 149.365 85.4438Z" fill="white"/>
<path opacity="0.94" fill-rule="evenodd" clip-rule="evenodd" d="M150.39 91.3907C156.201 90.4714 161.84 92.1642 167.618 93.7686C169.974 94.4218 178.763 96.1754 178.285 98.7255C177.848 101.061 173.19 99.7746 170.697 99.3166C164.775 98.2317 160.365 97.1725 154.49 95.9485C152.201 95.4709 147.829 95.0973 147.722 93.1748C147.637 91.5765 148.955 91.615 150.39 91.3907Z" fill="white"/>
<path opacity="0.94" fill-rule="evenodd" clip-rule="evenodd" d="M143.549 103.154C144.315 100.084 148.711 100.72 151.958 100.974C158.942 101.517 164.481 102.553 170.214 104.739C171.985 105.418 177.05 107.136 176.573 109.102C176.056 111.216 169.264 109.319 168.164 109.102C162.044 107.893 157.497 106.652 151.343 105.531C148.513 105.018 145.451 104.842 143.549 103.154Z" fill="white"/>
<path opacity="0.94" fill-rule="evenodd" clip-rule="evenodd" d="M144.574 109.1C150.385 108.18 156.021 109.873 161.802 111.48C164.157 112.133 172.94 113.887 172.466 116.434C172.033 118.772 167.374 117.486 164.877 117.028C158.956 115.943 154.549 114.885 148.675 113.66C146.383 113.183 142.01 112.809 141.906 110.883C141.818 109.285 143.139 109.327 144.574 109.1Z" fill="white"/>
<path opacity="0.94" fill-rule="evenodd" clip-rule="evenodd" d="M141.51 118.414C149.409 117.696 159.72 120.142 166.744 122.576C169.447 123.518 172.589 124.862 172.485 126.344C172.29 129.131 166.231 127.227 164.076 126.74C157.122 125.181 153.193 124.073 145.823 122.778C144.152 122.485 137.478 122.134 137.616 120.001C137.713 118.518 139.719 118.577 141.51 118.414Z" fill="white"/>
</g>
<g opacity="0.94">
<path opacity="0.94" fill-rule="evenodd" clip-rule="evenodd" d="M116.011 74.6441C116.263 74.5887 117.907 74.384 119.089 74.4462C124.924 74.7482 132.032 76.3984 137.958 78.0123C140.431 78.6878 142.599 79.3633 142.471 80.7893C142.29 82.803 137.732 82.1214 135.087 81.7803C129.663 81.0818 125.159 80.3023 119.909 79.0066C118.142 78.5682 113.799 77.6522 113.756 76.2296C113.718 75.0927 115.077 74.8589 116.011 74.6441Z" fill="white"/>
<path opacity="0.94" fill-rule="evenodd" clip-rule="evenodd" d="M107.759 85.9378C108.522 82.8649 112.921 83.5019 116.168 83.7552C123.152 84.301 128.687 85.3339 134.421 87.5232C136.192 88.1988 141.256 89.9206 140.78 91.8823C140.265 93.9967 133.47 92.1032 132.37 91.8823C126.25 90.6738 121.706 89.4363 115.553 88.3156C112.723 87.8022 109.658 87.6273 107.759 85.9378Z" fill="white"/>
<path opacity="0.94" fill-rule="evenodd" clip-rule="evenodd" d="M108.78 91.8836C114.591 90.9643 120.23 92.6598 126.008 94.2642C128.364 94.9167 137.149 96.671 136.672 99.2211C136.239 101.556 131.58 100.27 129.086 99.8156C123.165 98.7273 118.755 97.6688 112.88 96.444C110.591 95.9665 106.215 95.5929 106.111 93.6704C106.024 92.0687 107.341 92.1106 108.78 91.8836Z" fill="white"/>
<path opacity="0.94" fill-rule="evenodd" clip-rule="evenodd" d="M101.938 103.648C102.704 100.579 107.1 101.215 110.347 101.469C117.331 102.014 122.87 103.047 128.603 105.233C130.375 105.909 135.443 107.631 134.963 109.596C134.445 111.71 127.653 109.813 126.553 109.596C120.43 108.388 115.889 107.147 109.732 106.026C106.902 105.513 103.837 105.341 101.938 103.648Z" fill="white"/>
<path opacity="0.94" fill-rule="evenodd" clip-rule="evenodd" d="M102.963 109.596C108.774 108.676 114.417 110.372 120.195 111.973C122.551 112.629 131.336 114.38 130.859 116.934C130.426 119.266 125.767 117.983 123.27 117.525C117.349 116.44 112.942 115.381 107.068 114.157C104.779 113.676 100.403 113.305 100.299 111.38C100.211 109.781 101.531 109.823 102.963 109.596Z" fill="white"/>
</g>
<path opacity="0.94" fill-rule="evenodd" clip-rule="evenodd" d="M98.44 120.781C100.231 120.262 104.517 120.969 106.644 121.375C111.524 122.311 116.293 122.724 121.002 124.348C122.43 124.845 125.34 126.32 125.925 127.917C126.654 129.918 125.872 133.602 125.307 136.044C124.123 141.183 122.924 144.59 121.411 150.119C120.823 152.263 120.037 155.365 118.333 156.069C116.051 157.008 112.331 155.894 110.334 155.471C107.78 154.932 105.417 154.335 102.95 153.887C98.9509 153.159 91.0226 152.617 89.6177 148.93C88.781 146.737 89.9839 143.701 90.6459 141.199C91.9837 136.122 93.5298 131.994 94.746 126.927C95.382 124.279 95.9433 121.505 98.44 120.781Z" fill="#8F7ECE"/>
<path opacity="0.94" fill-rule="evenodd" clip-rule="evenodd" d="M139.983 130.457C141.778 129.938 146.059 130.642 148.186 131.055C153.067 131.987 157.839 132.4 162.547 134.024C163.976 134.521 166.883 135.992 167.468 137.594C168.197 139.592 167.418 143.279 166.853 145.721C165.67 150.856 164.47 154.266 162.958 159.795C162.37 161.939 161.583 165.041 159.879 165.742C157.593 166.68 153.876 165.57 151.876 165.148C149.322 164.609 146.959 164.007 144.496 163.563C140.493 162.835 132.565 162.293 131.163 158.606C130.326 156.413 131.529 153.377 132.189 150.875C133.526 145.795 135.076 141.67 136.289 136.603C136.927 133.952 137.485 131.181 139.983 130.457Z" fill="#8F7ECE"/>
</g>
<path d="M159.069 224.034C162.786 223.774 168.244 210.671 169.323 208.492C168.92 215.271 167.502 227.526 170.611 228.465C176.109 230.125 183.425 198.381 186.35 187.311C197.047 146.905 207.083 105.516 218.181 66.3114C215.482 64.4956 212.488 62.9399 209.335 61.2801C206.444 59.7602 203.389 58.4058 200.22 57.1777C187.825 104.11 173.32 150.182 162.074 197.004C160.201 204.805 155.553 224.282 159.069 224.034Z" fill="#889922"/>
<path opacity="0.37" fill-rule="evenodd" clip-rule="evenodd" d="M206.328 145.246C202.1 141.992 219.368 90.8531 223.291 90.7004C226.584 90.57 210.119 148.169 206.328 145.246Z" fill="#8F7ECE"/>
<path opacity="0.37" fill-rule="evenodd" clip-rule="evenodd" d="M202.362 153.23C207.169 151.948 201.63 175.558 199.19 182.344C198.127 185.29 186.197 232.664 183.313 232.421C177.68 231.936 199.038 154.114 202.362 153.23Z" fill="#8F7ECE"/>
<path fill-rule="evenodd" clip-rule="evenodd" d="M122.031 43.2467C127.741 42.8083 123.94 51.9649 122.518 54.852C121.177 57.5771 119.383 61.6666 116.391 60.7736C113.719 59.9711 115.49 54.5663 116.391 51.773C117.625 47.9597 118.223 43.5358 122.031 43.2467Z" fill="white"/>
<path fill-rule="evenodd" clip-rule="evenodd" d="M134.524 44.9035C136.806 44.5887 139.787 45.0886 139.427 47.9825C139 51.406 131.038 50.721 131.583 46.8003C131.745 45.6439 132.205 45.225 134.524 44.9035Z" fill="white"/>
<path fill-rule="evenodd" clip-rule="evenodd" d="M332.329 101.461C332.292 106.515 331.015 111.433 329.476 115.561C328.071 119.313 326.536 124.315 322.18 125.37C319.78 123.077 321.934 117.464 323.131 112.494C324.491 106.834 326.061 97.0728 332.329 101.461Z" fill="white"/>
<path fill-rule="evenodd" clip-rule="evenodd" d="M311.077 130.882C310.332 126.393 315.971 120.06 317.736 124.756C318.838 127.676 314.21 135.351 311.077 130.882Z" fill="white"/>
<path fill-rule="evenodd" clip-rule="evenodd" d="M95.4859 167.017C95.1903 173.007 94.2222 177.33 92.6293 182.956C91.5976 186.6 90.0075 194.763 85.6487 194.607C79.2364 194.373 84.6709 179.877 85.9717 176.216C86.8391 173.757 87.9951 171.984 88.5096 170.697C89.6216 167.907 89.5615 165.159 92.63 165.487C94.3229 165.666 94.5654 166.16 95.4859 167.017Z" fill="white"/>
<path fill-rule="evenodd" clip-rule="evenodd" d="M103.415 183.878C106.42 186.701 102.75 193.294 99.9268 193.38C94.4651 193.542 98.3003 187.136 100.562 184.489C100.908 184.08 102.229 183.641 103.415 183.878Z" fill="white"/>
<path fill-rule="evenodd" clip-rule="evenodd" d="M85.3359 197.671C88.9859 197.016 103.132 198.785 101.193 204.723C100.174 207.845 93.678 205.815 90.411 205.33C86.9092 204.82 80.9806 204.795 81.2127 200.738C81.3567 198.23 83.924 197.925 85.3359 197.671Z" fill="white"/>
<path fill-rule="evenodd" clip-rule="evenodd" d="M120.491 128.001C119.802 128.725 118.064 127.845 116.804 127.604C112.851 126.844 108.29 125.905 104.412 125.149C102.389 131.801 100.059 139.72 98.1946 147.074C97.9192 148.152 97.9157 149.559 96.8904 150.267C96.0202 149.66 96.1676 148.338 96.1411 147.383C96.0572 144.242 96.2823 140.604 96.0167 137.486C95.0856 137.69 95.136 139.461 93.8121 139.032C93.9128 137.759 95.1968 136.622 96.0873 135.91C97.4957 136.95 97.1259 139.058 97.156 140.78C97.1832 142.608 97.3104 144.528 97.2601 146.214C99.5422 139.172 101.189 131.114 103.633 124.325C106.398 124.165 110.146 125.451 113.306 125.819C115.07 126.027 117.335 126.644 119.208 127.219C119.614 127.345 120.649 127.267 120.491 128.001Z" fill="white"/>
<path fill-rule="evenodd" clip-rule="evenodd" d="M110.418 130.707C109.957 131.808 108.996 132.097 108.253 132.743C108.367 133.789 109.735 134.621 109.16 135.664C107.85 135.407 107.994 134.299 107.56 133.533C106.404 133.874 106.125 135.609 104.62 135.385C104.663 134.095 106.24 133.494 106.972 132.597C106.922 131.519 105.863 131.031 106.22 129.713C107.46 129.966 107.383 130.996 107.665 131.808C108.686 131.714 109.221 129.824 110.418 130.707Z" fill="white"/>
<path fill-rule="evenodd" clip-rule="evenodd" d="M119.896 140.749C119.335 141.012 118.922 140.372 118.764 140.006C117.419 140.528 117.056 143.9 117.51 144.963C118.242 145.089 118.488 144.706 118.904 145.294C118.706 146.235 117.768 146.012 116.81 145.752C116.125 144.728 115.993 141.623 117.133 139.937C117.933 138.758 120.044 138.628 119.896 140.749Z" fill="white"/>
<path fill-rule="evenodd" clip-rule="evenodd" d="M114.961 140.061C114.091 140.389 112.246 140.184 111.274 139.664C111.633 138.625 114.921 138.953 114.961 140.061Z" fill="white"/>
<path fill-rule="evenodd" clip-rule="evenodd" d="M109.645 139.595C109.03 140.468 107.212 139.656 105.763 139.313C104.392 138.991 102.442 138.887 102.147 137.978C102.631 137.266 103.951 137.929 104.903 138.153C106.698 138.578 108.889 138.695 109.645 139.595Z" fill="white"/>
<path fill-rule="evenodd" clip-rule="evenodd" d="M114.815 141.934C114.126 142.561 112.12 142.096 111.243 141.726C111.149 140.674 114.671 141.015 114.815 141.934Z" fill="white"/>
<path fill-rule="evenodd" clip-rule="evenodd" d="M103.712 140.9C104.885 141.281 104.314 142.677 104.889 143.405C105.729 143.053 105.759 141.42 107.093 141.858C107.039 142.999 105.783 143.778 105.205 144.756C105.265 145.869 106.035 146.571 105.725 147.903C104.643 148.091 104.663 146.812 104.552 146.032C103.699 146.145 103.846 147.857 102.579 147.314C102.468 146.249 103.635 145.518 104.078 144.647C104.035 143.427 102.959 142.17 103.712 140.9Z" fill="white"/>
<path fill-rule="evenodd" clip-rule="evenodd" d="M143.707 137.74C143.357 138.89 142.372 138.624 141.593 139.26C138.467 141.816 137.025 147.896 138.39 151.6C138.686 152.402 139.345 153.142 139.11 153.99C137.564 153.961 137.023 151.964 136.73 150.641C135.655 145.775 138.495 139.036 142.854 137.346C143.287 137.392 143.539 137.545 143.707 137.74Z" fill="white"/>
<path fill-rule="evenodd" clip-rule="evenodd" d="M158.86 141.228L159.217 141.315C160.86 142.579 162.352 146.136 162.047 148.831C161.657 152.268 159.956 154.701 158.219 156.217C157.728 156.65 157.086 157.767 156.461 157.088C155.762 156.182 157.133 155.694 157.499 155.305C158.8 153.937 160.35 152.3 160.787 149.266C161.2 146.418 159.819 143.932 158.726 141.746L158.86 141.228Z" fill="white"/>
<path fill-rule="evenodd" clip-rule="evenodd" d="M157.324 145.655C157.109 146.785 156.763 147.711 155.977 147.915C157.428 148.919 157.707 150.559 156.511 151.742C156.02 152.232 155.197 152.144 154.44 152.346C153.876 152.502 153.325 153.047 152.824 152.693C153.102 150.162 154.322 146.323 154.853 144.134C156.104 143.852 156.964 144.946 157.324 145.655ZM155.435 147.048C155.741 146.717 156.087 146.447 156.158 145.746C155.929 145.681 155.966 145.46 155.664 145.44C155.65 145.937 155.076 146.762 155.435 147.048ZM154.175 151.176C155.102 151.196 155.912 151.024 156.063 149.786C155.928 149.273 155.186 149.11 154.807 148.743L154.175 151.176Z" fill="white"/>
<path fill-rule="evenodd" clip-rule="evenodd" d="M144.562 141.826C145.577 142.907 144.397 145.265 145.049 146.561C144.162 147.552 144.891 149.647 143.607 149.907C142.438 149.556 143.587 147.854 143.433 146.909L141.994 146.561C140.993 146.668 141.218 148.76 140.102 148.685C139.221 147.809 140.572 146.149 141.232 145.08C142.085 143.69 142.888 142.41 144.021 141.696L144.562 141.826ZM142.449 145.56L143.524 145.823C143.723 145.018 143.84 144.261 143.706 143.65C143.235 144.203 142.754 144.748 142.449 145.56Z" fill="white"/>
<path fill-rule="evenodd" clip-rule="evenodd" d="M149.864 144.216L150.401 144.349C150.55 144.904 150.556 145.541 150.267 146.346C150.691 146.892 152.321 146.733 151.793 147.828C151.37 148.126 150.334 147.438 149.907 147.737C149.477 148.539 150.116 150.196 148.916 150.085C148.079 149.731 148.721 148.52 148.781 147.653C148.721 147.191 147.443 147.441 147.884 146.694C147.938 146.044 148.553 146.295 149.097 146.434C149.363 145.713 149.387 144.602 149.864 144.216Z" fill="white"/>
<path d="M228.242 48.0381C225.194 47.7341 215.001 49.2554 214.702 52.3806C214.399 55.4997 224.108 59.0382 227.152 59.3538C230.196 59.6612 232.907 57.3816 233.211 54.2564C233.512 51.1285 231.281 48.3503 228.242 48.0381Z" fill="#EFAD1B"/>
<path d="M209.918 51.8767L209.914 51.9129C209.822 52.913 210.524 53.7915 211.499 53.9021L215.699 54.3222L216.048 50.671L211.851 50.2475C210.88 50.1471 210.012 50.878 209.918 51.8767Z" fill="#FF5000"/>
<path d="M314.411 61.6942C314.276 63.21 315.353 64.5455 316.833 64.6897L322.076 65.1938C323.547 65.3366 324.851 64.2327 324.987 62.7203C325.131 61.2079 324.048 59.869 322.582 59.7262L317.327 59.2173C315.857 59.0759 314.548 60.1798 314.411 61.6942Z" fill="#FF5000"/>
<path d="M319.995 56.9779L318.904 68.295L288.799 65.2435L289.884 53.9326L319.995 56.9779Z" fill="#4D3D87"/>
<path d="M286.677 53.6026L285.59 64.9183L227.161 59.3557L228.246 48.04L286.677 53.6026Z" fill="#4D3D87"/>
<path d="M289.885 53.9329L288.797 65.2438L285.591 64.922L286.68 53.6016L289.885 53.9329Z" fill="#EFAD1B"/>
<path d="M320.374 53.0654L318.912 68.2912L317.308 68.1266L318.767 52.8994L320.374 53.0654Z" fill="#EFAD1B"/>
<path d="M320.374 53.0675L320.147 55.4222L288.367 52.1966L288.588 49.8467L320.374 53.0675Z" fill="#EFAD1B"/>
<path fill-rule="evenodd" clip-rule="evenodd" d="M314.13 60.4597C315.923 58.2984 309.274 56.8857 308.744 58.9309C308.122 61.3225 312.589 61.3485 313.944 60.6503C314.029 60.6073 314.067 60.5349 314.13 60.4597Z" fill="white"/>
<path fill-rule="evenodd" clip-rule="evenodd" d="M305.962 59.9557C307.165 58.0177 301.635 56.5101 301.474 58.8798C301.355 60.6798 305.133 61.2973 305.962 59.9557Z" fill="white"/>
<path fill-rule="evenodd" clip-rule="evenodd" d="M227.239 58.4642C228.776 58.8269 231.252 59.0469 231.558 57.9088C231.953 56.4354 230.287 56.3472 229.023 56.1628C227.762 55.9756 226.19 55.7932 225.955 56.9853C225.696 58.2948 226.638 58.318 227.239 58.4642Z" fill="white"/>
<path fill-rule="evenodd" clip-rule="evenodd" d="M235.138 56.6093C236.259 56.9707 237.474 56.7835 237.62 55.752C237.869 53.9848 234.009 53.3871 233.85 55.1359C233.792 55.8012 234.208 56.3108 235.138 56.6093Z" fill="white"/>
<path fill-rule="evenodd" clip-rule="evenodd" d="M206.244 229.52C206.017 232.627 208.811 234.384 210.671 235.787C216.596 240.253 222.678 244.458 228.703 248.909C236.504 254.67 244.769 260.316 252.739 266.403C260.271 272.148 269.071 278.786 274.957 287.852C277.887 292.366 280.575 299.266 282.298 305.714C283.015 308.397 283.501 311.745 284.209 314.881C284.875 317.835 285.954 321.874 288.14 322.482C289.513 322.866 291.847 321.848 292.644 321.159C296.732 317.617 292.817 308.466 289.962 302.413C286.181 294.396 281.652 285.714 276.752 280.127C273.4 276.304 269.431 273.134 265.705 270.033C258.074 263.681 250.679 257.729 242.754 251.978C235.017 246.364 226.876 241.368 218.794 236.099C216.88 234.855 214.79 233.485 212.795 232.217C210.905 231.014 208.93 228.481 206.244 229.52Z" fill="#4D3D87"/>
<path fill-rule="evenodd" clip-rule="evenodd" d="M295.471 289.106C292.795 290.581 290.097 288.673 288.093 287.49C281.72 283.743 275.503 279.735 269.101 275.889C260.807 270.903 252.43 265.434 243.781 260.415C235.612 255.678 226.134 250.111 215.67 248.259C210.464 247.339 203.224 247.608 196.784 248.604C194.105 249.018 190.923 249.917 187.844 250.522C184.937 251.093 180.903 251.714 179.476 249.914C178.577 248.778 178.538 246.176 178.833 245.148C180.331 239.877 190.072 239.85 196.624 240.077C205.299 240.376 214.867 241.112 221.832 243.447C226.595 245.046 231.026 247.484 235.296 249.724C244.047 254.312 252.347 258.845 260.68 263.95C268.814 268.932 276.56 274.549 284.531 279.999C286.413 281.29 288.484 282.702 290.421 284.055C292.251 285.339 295.308 286.17 295.471 289.106Z" fill="#4D3D87"/>
<path d="M304.153 282.227C303.318 280.522 301.025 278.736 299.204 277.363C294.031 273.464 288.103 269.89 282.956 266.619C276.72 262.658 272.252 259.987 265.286 258.683C263.103 258.276 260.859 258.355 258.538 257.997C256.666 257.704 254.595 256.624 252.738 255.848C251.297 254.419 249.495 252.915 248.477 251.28C247.219 249.247 246.381 247.108 245.129 245.223C241.15 239.218 236.963 236.104 230.906 231.86C225.903 228.355 220.321 224.233 214.754 220.962C212.792 219.812 210.276 218.387 208.413 218.292C205.827 218.154 204.383 220.23 203.951 221.452C203.381 223.065 203.932 224.848 203.362 226.806C202.942 228.255 201.576 229.881 200.628 231.493C197.952 236.063 194.265 241.121 193.477 246.81C192.571 253.393 197.745 256.989 201.208 259.837C205.513 263.371 209.917 265.802 215.388 268.062C218.884 269.504 222.178 270.985 226.06 270.239C229.751 269.53 233.067 266.547 235.817 264.189C237.939 262.369 241.348 258.648 243.803 258.273C246.604 257.846 247.987 259.229 249.892 260.339C251.653 261.676 253.445 262.412 254.197 265.214C254.859 267.671 252.92 272.374 252.158 275.104C251.172 278.635 249.857 282.954 250.717 286.705C251.626 290.65 254.283 293.143 256.982 295.836C261.21 300.054 265.157 303.203 270.052 305.811C273.989 307.911 279.293 311.306 284.789 307.789C289.537 304.751 292.555 299.243 295.541 294.884C296.598 293.337 297.49 291.399 298.611 290.414C300.125 289.086 301.937 288.89 303.144 287.697C304.06 286.796 305.325 284.602 304.153 282.227ZM237.233 254.62C235.043 257.228 232.486 259.833 229.355 262.02C227.159 263.557 225.185 265.085 221.797 264.917C219.634 264.809 217.146 263.377 215.136 262.267C211.097 260.043 207.329 257.441 204.048 254.311C201.775 252.137 199.669 250.564 199.756 246.336C199.8 244.152 200.754 241.964 201.443 240.565C202.988 237.408 205.105 234.357 207.262 231.489C208.123 230.35 209.678 227.801 211.17 227.377C211.241 227.357 211.295 227.16 211.484 227.186C214.905 227.65 217.822 229.476 220.491 230.987C227.031 234.688 233.107 239.395 238.042 245.593C238.922 246.704 240.129 248.435 240.133 249.92C240.136 251.703 238.293 253.358 237.233 254.62ZM287.13 297.79C286.16 298.999 284.598 300.782 282.671 301.711C278.938 303.505 276.682 302.164 273.826 300.91C269.706 299.1 265.862 296.618 262.245 293.73C260.443 292.291 258.157 290.537 257.187 288.553C255.667 285.443 256.228 282.97 256.708 280.286C257.393 276.466 258.676 273.013 260.11 269.9C260.805 268.396 261.535 265.998 263.128 265.279C264.454 264.677 266.48 265.108 267.828 265.489C275.354 267.608 282.002 271.401 287.949 276.042C290.376 277.931 293.186 279.928 294.985 282.953C295.081 283.121 294.931 283.249 294.941 283.321C295.168 284.894 293.529 287.384 292.86 288.655C291.183 291.845 289.316 295.061 287.13 297.79Z" fill="#4D3D87"/>
<path opacity="0.62" d="M238.043 245.593C233.107 239.396 227.031 234.688 220.492 230.987C217.822 229.476 214.906 227.65 211.484 227.186C211.295 227.16 211.241 227.357 211.17 227.377C209.679 227.801 208.123 230.35 207.262 231.489C205.104 234.357 202.989 237.408 201.443 240.565C200.755 241.964 199.801 244.152 199.756 246.336C199.67 250.563 201.776 252.137 204.049 254.311C207.33 257.441 211.097 260.043 215.137 262.267C217.147 263.377 219.634 264.809 221.798 264.917C225.184 265.085 227.16 263.557 229.356 262.02C232.487 259.833 235.044 257.228 237.233 254.62C238.293 253.359 240.136 251.703 240.134 249.92C240.13 248.434 238.923 246.703 238.043 245.593Z" fill="white"/>
<path opacity="0.62" d="M294.939 283.322C294.93 283.249 295.079 283.122 294.984 282.954C293.185 279.929 290.374 277.932 287.948 276.043C282 271.402 275.352 267.608 267.826 265.49C266.478 265.109 264.452 264.678 263.126 265.28C261.533 265.999 260.802 268.397 260.108 269.901C258.674 273.015 257.391 276.467 256.706 280.287C256.226 282.97 255.665 285.443 257.186 288.554C258.156 290.538 260.441 292.292 262.243 293.731C265.86 296.618 269.704 299.102 273.825 300.911C276.68 302.166 278.937 303.506 282.669 301.712C284.596 300.783 286.158 298.999 287.128 297.791C289.314 295.061 291.18 291.846 292.858 288.656C293.527 287.385 295.166 284.896 294.939 283.322Z" fill="white"/>
<path fill-rule="evenodd" clip-rule="evenodd" d="M229.308 288.488C229.026 288.711 228.77 288.195 228.543 288.097C227.332 287.578 226.014 288.938 224.663 290.097C216.846 296.798 210.072 303.823 203.136 310.961C200.005 314.18 197.323 316.949 194.02 320.428C193.39 321.094 192.708 321.975 191.978 322.894C191.251 323.817 190.409 324.737 190.531 325.552C190.65 326.314 191.459 327.125 192.106 327.736C193.438 329.001 194.388 329.855 195.893 331.116C196.44 331.573 197.365 332.302 197.97 332.194C198.87 332.032 199.862 330.804 200.569 330.025C202.701 327.684 204.859 325.21 206.93 322.97C212.679 316.746 218.498 310.623 224.967 304.652C226.51 303.23 228.206 301.915 229.983 300.303C230.675 299.673 231.5 298.829 232.371 298.047C233.642 296.904 235.003 296.135 234.116 294.191C236.43 290.985 240.153 287.129 242.669 283.542C243.089 282.937 243.728 282.267 243.6 281.545C243.14 278.977 240.38 280.822 238.988 281.716C235.566 283.918 232.144 286.362 229.308 288.488Z" fill="#889922"/>
<path fill-rule="evenodd" clip-rule="evenodd" d="M223.156 300.788C222.679 298.479 218.972 300.702 217.301 301.757C214.32 303.639 211.852 305.932 209.73 308.165C207.406 310.612 205.822 312.721 204.464 315.559C204.013 316.499 203.399 317.76 203.93 318.545C204.163 318.883 204.56 319.094 205.54 318.663C207.214 317.931 208.459 316.262 209.477 315.307C213.097 311.91 216.414 309.638 219.788 306.221C221.097 304.897 223.062 302.874 223.245 301.018C223.251 300.955 223.168 300.857 223.156 300.788Z" fill="#4D3D87"/>
<path d="M224.663 290.097C224.24 290.462 223.824 290.829 223.408 291.197C224.557 292.574 225.741 293.917 226.923 295.28C228.178 296.722 229.333 298.266 230.588 299.731C231.139 299.206 231.744 298.611 232.371 298.046C232.416 298.006 232.457 297.967 232.502 297.931C230.002 295.192 227.477 292.524 224.954 289.841C224.858 289.926 224.762 290.012 224.663 290.097Z" fill="#4D3D87"/>
<path d="M195.296 319.088C194.88 319.522 194.457 319.968 194.019 320.429C193.955 320.498 193.888 320.576 193.821 320.645C196.435 323.328 198.901 326.374 201.57 328.913C202.037 328.397 202.505 327.878 202.972 327.356C200.469 324.462 197.908 321.709 195.296 319.088Z" fill="#4D3D87"/>
<path fill-rule="evenodd" clip-rule="evenodd" d="M183.853 297.543C183.511 297.629 183.747 298.154 183.681 298.397C183.329 299.694 181.475 299.914 179.75 300.286C169.779 302.44 160.211 303.554 150.454 304.727C146.053 305.259 142.273 305.706 137.567 306.215C136.667 306.313 135.57 306.32 134.414 306.333C133.258 306.349 132.033 306.461 131.485 305.853C130.979 305.292 130.854 304.135 130.787 303.239C130.643 301.38 130.576 300.086 130.544 298.092C130.535 297.366 130.551 296.17 131.008 295.75C131.684 295.126 133.239 295.087 134.27 294.998C137.385 294.732 140.612 294.525 143.607 294.239C151.933 293.454 160.221 292.554 168.796 291.037C170.838 290.675 172.893 290.117 175.23 289.687C176.143 289.516 177.298 289.375 178.434 289.158C180.096 288.84 181.53 288.219 182.464 290.137C186.354 290.255 191.61 289.641 195.912 289.835C196.635 289.868 197.544 289.769 198.018 290.321C199.698 292.283 196.575 293.363 195.028 293.931C191.225 295.322 187.24 296.57 183.853 297.543Z" fill="#EFAD1B"/>
<path fill-rule="evenodd" clip-rule="evenodd" d="M170.63 294.884C172.106 296.697 168.108 298.314 166.264 299.003C162.983 300.239 159.699 300.816 156.677 301.138C153.364 301.5 150.768 301.47 147.756 300.81C146.76 300.59 145.412 300.303 145.144 299.391C145.026 298.993 145.112 298.547 146.047 298.021C147.644 297.128 149.693 297.154 151.056 296.924C155.893 296.109 159.689 294.845 164.392 294.237C166.21 294.001 168.979 293.669 170.512 294.668C170.563 294.703 170.592 294.835 170.63 294.884Z" fill="#4D3D87"/>
<path d="M179.751 300.286C179.21 300.404 178.672 300.509 178.128 300.621C177.788 298.84 177.491 297.057 177.181 295.26C176.854 293.355 176.383 291.467 176.041 289.551C176.783 289.433 177.613 289.315 178.435 289.157C178.496 289.144 178.551 289.134 178.605 289.121C179.152 292.83 179.633 296.518 180.126 300.21C180.001 300.233 179.875 300.263 179.751 300.286Z" fill="#4D3D87"/>
<path d="M139.383 306.017C138.791 306.083 138.186 306.148 137.565 306.214C137.473 306.224 137.37 306.231 137.274 306.24C136.842 302.473 136.035 298.601 135.744 294.876C136.429 294.823 137.114 294.77 137.802 294.714C138.468 298.522 138.99 302.289 139.383 306.017Z" fill="#4D3D87"/>
<path fill-rule="evenodd" clip-rule="evenodd" d="M2.89051 160.664C6.14918 157.412 12.3397 154.719 16.2967 152.662C25.6087 147.817 32.9675 142.988 42.7402 139.274C46.7511 137.753 52.1514 136.603 55.0992 138.84C56.9558 140.249 58.7033 143.35 60.0514 145.945C63.115 151.828 67.2278 161.629 69.6031 166.931C74.0301 176.801 78.2554 185.249 82.6537 195.106C86.5848 203.928 90.4612 213.3 94.8463 223.161C96.7829 227.516 98.9664 232.512 100.579 237.209C102.097 241.623 104.277 247.519 102.503 250.554C101.271 252.659 98.2747 254.288 96.0246 255.553C93.3231 257.07 91.2168 257.74 89.2223 258.722C84.0338 261.274 80.5188 263.265 75.5732 265.354C71.6841 266.99 67.0168 268.803 62.1258 270.527C57.7274 272.081 52.4969 273.884 48.7968 271.713C45.4483 269.752 42.2222 263.376 40.1059 259.166C33.4927 246.017 28.7136 232.813 22.4652 219.185C17.8558 209.14 14.0625 200.758 10.2307 192.461C8.37134 188.447 6.25503 183.977 4.25123 179.125C1.42461 172.274 -2.7654 165.849 2.56431 160.915C2.66683 160.821 2.79465 160.759 2.89051 160.664Z" fill="#8F7ECE"/>
<path fill-rule="evenodd" clip-rule="evenodd" d="M5.72668 162.115C5.77128 162.066 5.76795 161.823 5.92839 161.698C13.1501 156.127 19.3505 154.093 27.5548 149.692C34.7219 145.845 44.7701 138.334 51.0505 141.967C54.4337 143.925 57.3981 149.768 59.6196 154.343C66.3739 168.3 71.8281 179.592 78.1917 193.864C83.7297 206.281 90.2564 220.25 96.0375 233.428C98.3328 238.657 99.8533 242.286 96.9049 246.028C95.6374 247.631 93.3453 248.419 91.3575 249.526C81.9529 254.772 73.089 258.493 63.048 263.831C59.0151 265.976 54.8218 268.199 51.7455 267.096C48.2918 265.848 44.8633 260.146 42.6159 255.669C37.8787 246.255 35.5254 239.652 30.7016 229.74C22.0686 211.98 13.1314 194.962 6.03091 177.747C3.58841 171.808 1.30301 166.628 5.40381 162.365C5.499 162.266 5.63348 162.213 5.72668 162.115Z" fill="white"/>
<path opacity="0.26" d="M51.7455 267.097C54.8218 268.2 59.0151 265.976 63.048 263.832C73.0897 258.494 81.953 254.773 91.3575 249.527C93.3453 248.42 95.6374 247.632 96.9049 246.029C99.6963 242.491 98.48 239.049 96.3963 234.25C82.6893 240.783 61.0409 250.653 44.1783 258.589C46.304 262.34 49.0148 266.111 51.7455 267.097Z" fill="#8F7ECE"/>
<path opacity="0.26" d="M51.0501 141.967C44.7698 138.334 34.7215 145.847 27.5544 149.692C19.3501 154.094 13.1497 156.127 5.928 161.698C5.76823 161.823 5.7709 162.066 5.72629 162.115C5.63309 162.214 5.49928 162.266 5.40276 162.365C2.83243 165.036 2.77185 168.071 3.68721 171.424C20.7934 162.651 37.7684 154.879 54.9099 145.886C53.707 144.178 52.4168 142.752 51.0501 141.967Z" fill="#8F7ECE"/>
<path fill-rule="evenodd" clip-rule="evenodd" d="M34.2036 151.844C34.2389 154.039 23.7745 159.475 21.6489 158.93C20.5991 158.664 20.5891 157.33 21.0791 156.772C23.1022 154.469 34.1683 149.427 34.2036 151.844Z" fill="white"/>
<path fill-rule="evenodd" clip-rule="evenodd" d="M41.453 243.62C57.0294 234.114 71.8882 228.127 86.8694 221.55C87.3594 222.332 87.5831 223.061 87.9159 223.81C72.7975 231.086 57.7624 237.944 42.4742 246.037C42.0582 245.324 41.7792 244.638 41.3891 243.932C41.2287 243.824 41.3126 243.4 41.453 243.62Z" fill="#889922"/>
<path fill-rule="evenodd" clip-rule="evenodd" d="M43.4663 247.796C58.7258 239.456 73.713 232.433 88.665 225.602C88.8793 226.186 89.1063 226.778 89.4172 227.389C74.4939 234.592 59.4494 242.403 44.4529 249.964C43.9916 249.211 43.6494 248.486 43.4663 247.796Z" fill="#889922"/>
<path fill-rule="evenodd" clip-rule="evenodd" d="M45.5669 251.909C60.4996 244.104 75.5793 235.857 90.3782 229.304C90.5992 229.978 91.0053 230.687 91.1557 231.344C76.1046 239.835 61.6679 245.304 46.4949 254.386C46.0629 253.67 45.8512 253.003 45.5663 252.313C45.4611 252.155 45.4804 252.027 45.5669 251.909Z" fill="#889922"/>
<path fill-rule="evenodd" clip-rule="evenodd" d="M8.69377 175.5C11.5237 173.293 16.3987 171.348 20.5601 169.204C28.5593 165.081 35.4861 161.054 43.966 156.863C46.6002 155.559 53.2553 151.966 55.2305 152.856C56.7124 153.52 57.948 157.097 58.7615 158.713C61.1208 163.413 62.833 166.997 65.0991 171.513C66.1522 173.608 67.4264 175.701 67.1348 177.744C64.0046 180.51 59.6222 181.715 55.4702 183.627C46.6801 187.677 39.718 191.599 31.7794 195.928C28.9335 197.478 22.5153 202.123 20.1148 200.766C18.6262 199.929 17.41 196.739 16.4593 194.742C14.3916 190.393 12.5096 186.602 10.7708 182.487C9.89405 180.407 9.06457 177.948 8.57527 176.371C8.4854 176.065 8.53067 175.773 8.69377 175.5Z" fill="#FF5000"/>
<path d="M22.5917 190.542C23.5936 189.37 25.4023 188.578 25.2872 187.3C25.13 185.49 23.1902 184.62 22.157 183.448C19.9162 180.909 19.8489 176.704 22.5125 175.114C25.2938 173.446 28.8055 175.906 29.4871 179.365C29.8426 181.141 29.2661 183.241 30.4285 184.6C31.1168 185.395 32.3104 185.129 33.5174 184.932C34.5479 184.758 35.3834 184.732 36.1137 184.955C36.6962 182.659 36.5331 180.156 35.4699 177.844C33.0627 172.612 26.9807 170.372 21.8787 172.838C16.786 175.305 14.5998 181.553 17.0063 186.782C18.0502 189.055 19.791 190.763 21.8434 191.764C21.9999 191.351 22.2488 190.947 22.5917 190.542Z" fill="white"/>
<path d="M30.5941 191.788C33.44 190.412 35.3732 187.853 36.1128 184.957C35.3832 184.733 34.5477 184.76 33.5165 184.933C32.3096 185.13 31.116 185.397 30.4276 184.601C29.266 183.241 29.8418 181.143 29.4863 179.366C28.8046 175.907 25.293 173.447 22.5116 175.116C19.8481 176.705 19.9153 180.91 22.1561 183.449C23.19 184.622 25.1299 185.492 25.2863 187.302C25.4015 188.579 23.5927 189.371 22.5908 190.544C22.2487 190.948 21.999 191.352 21.8419 191.766C24.5154 193.069 27.7128 193.184 30.5941 191.788Z" fill="#8F7ECE"/>
<path fill-rule="evenodd" clip-rule="evenodd" d="M60.5353 169.429C59.7351 167.984 58.2272 164.945 58.0894 164.689C54.0146 166.654 39.251 174.55 39.251 174.55C38.9854 174.149 40.4101 177.673 41.1909 178.98C41.1916 178.981 45.4455 176.925 60.5353 169.429Z" fill="white"/>
<path fill-rule="evenodd" clip-rule="evenodd" d="M55.0687 157.219C40.1807 165.093 50.3535 159.312 35.5007 167.342C35.5007 167.342 36.8994 170.348 37.7189 171.658C37.7189 171.658 42.3223 169.053 57.2097 161.617C56.4774 160.163 55.7697 158.691 55.0687 157.219Z" fill="white"/>
<g opacity="0.58">
<g opacity="0.58">
<path opacity="0.58" d="M75.6426 212.714L75.2232 212.914C74.8837 213.078 74.5415 213.246 74.1987 213.414C70.9593 207.846 67.9823 202.111 65.354 196.353C65.2548 196.137 65.159 195.917 65.0624 195.699L64.8927 195.318L65.0591 194.908C65.139 194.711 65.117 194.507 64.9952 194.353C64.8541 194.169 64.6144 194.057 64.3521 194.11C63.7536 192.75 63.1738 191.407 62.6366 190.119C62.534 189.879 62.313 189.741 62.0474 189.758C61.8364 189.774 61.6347 189.892 61.5195 190.066C61.4137 190.234 61.3977 190.428 61.4749 190.615C62.096 192.106 62.765 193.657 63.5233 195.352L51.6989 224.309L49.6984 225.278C49.4228 225.412 49.2917 225.701 49.3715 225.991C49.4774 226.362 49.8675 226.563 50.2356 226.382L50.4021 226.303C50.6004 226.204 50.8022 226.105 51.0039 226.007L50.4021 227.482C50.3222 227.679 50.3408 227.883 50.466 228.04C50.5971 228.21 50.8275 228.312 51.0585 228.296C51.2955 228.276 51.4938 228.131 51.587 227.909L52.6948 225.192L71.0432 216.307C71.9233 215.876 72.8007 215.449 73.6808 215.022C74.2566 215.994 74.8365 216.964 75.4249 217.929C75.5561 218.136 75.7864 218.251 76.0394 218.231C76.2697 218.215 76.4874 218.083 76.5866 217.902C76.6765 217.738 76.6665 217.548 76.558 217.374C75.9655 216.411 75.393 215.443 74.8165 214.473C75.2712 214.253 75.7258 214.033 76.1739 213.816C76.4521 213.681 76.584 213.396 76.5034 213.106C76.3982 212.731 76.0048 212.534 75.6426 212.714ZM68.8603 213.617C68.7998 213.775 68.7998 213.953 68.8697 214.104C68.889 214.147 68.9149 214.183 68.9402 214.209C68.9469 214.245 68.9562 214.285 68.9755 214.324L69.5933 215.644L53.3898 223.491L62.0774 202.22C62.6346 200.843 63.1978 199.464 63.7576 198.091L64.2343 196.928C66.6029 202.108 69.1992 207.189 71.9552 212.041L71.9965 212.119L69.1925 213.289C69.0394 213.348 68.9242 213.466 68.8603 213.617ZM73.0663 213.962L70.7323 215.089L70.291 214.156C71.0685 213.834 71.8467 213.509 72.615 213.188C72.7654 213.446 72.9159 213.703 73.0663 213.962Z" fill="#8F7ECE"/>
<path opacity="0.58" d="M78.4487 200.346C77.9495 199.893 77.4435 199.4 76.855 198.793C76.9063 198.599 76.8583 198.389 76.7239 198.251C76.5801 198.09 76.3524 198.015 76.1447 198.053C75.5429 197.396 74.973 196.73 74.4478 196.063C74.1948 195.745 73.6955 195.783 73.4492 196.112C73.356 196.247 73.3148 196.401 73.3401 196.553C73.3148 196.625 73.3014 196.697 73.3081 196.773C73.3527 197.791 73.4779 198.832 73.6762 199.867C73.5418 199.969 73.4619 200.123 73.4459 200.297C73.4333 200.462 73.4872 200.623 73.5997 200.737C73.6762 200.823 73.7854 200.882 73.8973 200.915C74.1469 201.953 74.4704 202.978 74.8572 203.963C74.9564 204.206 75.1807 204.348 75.4397 204.331C75.6507 204.315 75.8525 204.193 75.9676 204.022C76.0768 203.858 76.0954 203.661 76.0222 203.474C75.6254 202.466 75.3019 201.418 75.0616 200.35L75.9483 199.657C76.5055 200.228 77.0175 200.724 77.5107 201.171C77.7604 201.401 78.1319 201.434 78.3848 201.227C78.5193 201.119 78.6092 200.938 78.6118 200.757C78.6185 200.593 78.5612 200.445 78.4487 200.346ZM74.7101 198.329C74.8379 198.471 74.9657 198.615 75.0942 198.756C74.9983 198.836 74.9025 198.911 74.8026 198.987C74.768 198.769 74.7361 198.549 74.7101 198.329Z" fill="#8F7ECE"/>
<path opacity="0.58" d="M68.1114 223.081C68.0701 222.628 67.887 222.194 67.5894 221.866C67.0262 221.245 66.0656 221.032 65.2108 221.357C64.7595 221.527 64.372 221.843 64.151 222.227C64.0166 222.456 64.0265 222.726 64.1737 222.92C64.177 223.041 64.2183 223.166 64.2922 223.278L66.9364 227.173C67.0515 227.331 67.2533 227.42 67.4809 227.4C67.5482 227.397 67.6154 227.38 67.6793 227.354C67.7945 227.44 67.9349 227.479 68.0854 227.469C68.2105 227.46 68.335 227.417 68.4469 227.344C69.4075 226.723 69.9447 225.856 69.9194 224.959C69.8981 224.024 69.2098 223.081 68.1114 223.081ZM65.9864 222.211L66.0503 222.421C66.0856 222.421 66.1175 222.424 66.2041 222.434C66.2041 222.434 66.2234 222.434 66.2394 222.437C66.2966 222.457 66.3512 222.474 66.3865 222.483C66.3932 222.49 66.4311 222.512 66.4411 222.519L66.489 222.545C66.505 222.558 66.5243 222.572 66.5403 222.588C66.5403 222.588 66.5529 222.595 66.5629 222.601C66.6015 222.644 66.6428 222.687 66.7007 222.763C66.704 222.766 66.704 222.769 66.7074 222.772C66.7107 222.775 66.7107 222.779 66.714 222.782L66.746 222.84C66.7653 222.88 66.7846 222.92 66.8132 222.991C66.8132 222.998 66.8165 223.008 66.8225 223.015C66.8259 223.028 66.8292 223.044 66.8352 223.064C66.8445 223.12 66.8512 223.175 66.8545 223.231C66.8545 223.248 66.8545 223.264 66.8578 223.284C66.8578 223.287 66.8578 223.291 66.8578 223.291L66.8418 223.422C66.8352 223.448 66.8352 223.474 66.8325 223.491C66.8132 223.55 66.7879 223.602 66.7526 223.685C66.7207 223.724 66.6921 223.763 66.6661 223.806C66.4837 224.095 66.5509 224.457 66.8232 224.64C67.0955 224.831 67.5468 224.749 67.7166 224.479C67.7292 224.459 67.7419 224.44 67.7579 224.42C67.7738 224.407 67.7965 224.384 67.8251 224.364L67.9143 224.321C67.927 224.318 67.9403 224.318 67.9529 224.315C67.9815 224.308 68.0135 224.302 68.0554 224.295C68.0874 224.298 68.1127 224.302 68.1453 224.298C68.1673 224.305 68.1932 224.308 68.2125 224.308C68.2478 224.321 68.2831 224.334 68.3277 224.351L68.3823 224.384C68.395 224.397 68.4076 224.4 68.4209 224.409C68.4309 224.419 68.4402 224.433 68.4495 224.446L68.4881 224.485C68.5041 224.498 68.5168 224.518 68.5294 224.538C68.5454 224.564 68.5554 224.591 68.574 224.623C68.5933 224.666 68.6093 224.702 68.616 224.728L68.6353 224.797C68.6446 224.847 68.6513 224.892 68.6513 224.892C68.6513 224.892 68.6606 224.994 68.6606 225.001C68.6606 225.043 68.6572 225.09 68.6539 225.129C68.6379 225.283 68.5867 225.431 68.5101 225.572C68.3723 225.815 68.1613 226.039 67.8444 226.265C67.0282 225.063 66.2087 223.861 65.3926 222.659C65.4212 222.633 65.4565 222.606 65.4884 222.583C65.4951 222.579 65.5044 222.573 65.5137 222.566C65.539 222.55 65.5683 222.537 65.591 222.523C65.6482 222.5 65.7028 222.478 65.7607 222.458C65.786 222.454 65.812 222.445 65.8759 222.431L65.8726 222.415C65.9112 222.428 65.9458 222.424 66.0004 222.418L65.9864 222.211Z" fill="#8F7ECE"/>
</g>
<g opacity="0.58">
<path opacity="0.58" d="M36.7163 221.287C34.5906 216.77 32.2094 211.319 29.4374 204.631C30.6217 204.046 31.8925 203.425 33.176 202.798C34.9495 201.935 36.7482 201.058 38.3972 200.236C38.6468 200.115 38.9384 200.003 39.2486 199.885C40.1127 199.56 41.0061 199.225 41.0634 198.519C41.0667 198.483 41.0567 198.443 41.0414 198.411C40.9163 198.171 40.7052 198.049 40.4489 198.069C40.2153 198.085 39.9883 198.214 39.7832 198.325C39.6967 198.371 39.6201 198.417 39.5496 198.443C37.5777 199.172 36.0605 199.849 35.0427 200.45C34.1979 200.953 33.202 201.422 32.242 201.876C30.7155 202.592 29.1404 203.334 28.0966 204.237C28.0294 204.293 28.0067 204.382 28.0327 204.461C29.1211 207.509 30.5904 210.731 32.0083 213.849C32.9397 215.898 33.897 218.001 34.7484 220.053C34.4635 219.721 34.1726 219.387 33.8843 219.058C33.5129 218.637 33.1414 218.21 32.7832 217.783C32.6201 217.589 32.457 217.383 32.2933 217.169C31.547 216.214 30.6989 215.13 29.4154 215.159C29.3229 215.162 29.2296 215.228 29.2103 215.323C28.9927 216.282 28.775 217.655 29.4054 218.558C29.46 218.64 29.5625 218.667 29.661 218.637C30.4419 218.361 30.3554 217.727 30.2915 217.268C30.2688 217.094 30.2435 216.926 30.2595 216.781C31.2707 217.855 32.276 219.11 33.2526 220.325C33.893 221.13 34.5587 221.961 35.2018 222.707C35.2757 222.792 35.3522 222.881 35.4288 222.976C35.8994 223.554 36.4946 224.273 37.3427 224.233H37.3494C37.4392 224.227 37.5191 224.168 37.5444 224.079C37.7941 223.265 37.372 222.502 37.0005 221.83C36.8987 221.649 36.8021 221.465 36.7163 221.287Z" fill="#8F7ECE"/>
<path opacity="0.58" d="M36.0504 205.054C36.0218 204.962 35.9352 204.903 35.8394 204.903L35.7528 204.91C34.9107 204.972 34.8275 205.669 34.7702 206.181C34.7416 206.437 34.7123 206.68 34.6131 206.857C34.5526 206.811 34.488 206.762 34.4274 206.712C34.0752 206.443 33.6785 206.138 33.1406 206.18C32.9548 206.193 32.7631 206.246 32.5647 206.344C32.4622 206.393 32.4143 206.515 32.4655 206.613C32.7631 207.274 33.2564 207.474 33.6918 207.652C33.9541 207.763 34.207 207.865 34.4121 208.062C34.3994 208.325 34.3322 208.614 34.2583 208.916C34.0952 209.599 33.9155 210.371 34.3928 211.005C34.438 211.067 34.5113 211.097 34.5852 211.09C34.6138 211.087 34.6458 211.081 34.675 211.064C35.4113 210.66 35.4306 209.997 35.4433 209.412C35.4533 209.1 35.4626 208.804 35.5718 208.562C35.6803 208.624 35.7895 208.696 35.9013 208.772C36.2341 208.992 36.6089 209.245 37.1049 209.208C37.3 209.192 37.4957 209.133 37.6967 209.034C37.7833 208.992 37.8279 208.903 37.8119 208.811C37.6901 208.128 37.0816 207.917 36.541 207.734C36.2435 207.632 35.9619 207.533 35.7535 207.372C35.7921 207.185 35.8527 207.007 35.9133 206.824C36.083 206.295 36.2588 205.747 36.0504 205.054Z" fill="#8F7ECE"/>
<path opacity="0.58" d="M48.8236 209.978C48.369 209.84 48.1446 210.014 47.9529 210.191C47.8823 210.263 47.8091 210.332 47.7032 210.401C47.1687 210.03 46.3751 208.927 46.1155 208.004C46.0223 207.682 46.0037 207.409 46.0576 207.199C46.2174 207.261 46.4317 207.321 46.6494 207.304C46.915 207.284 47.1234 207.146 47.2353 206.923C47.2705 206.854 47.2639 206.775 47.2219 206.713C46.7513 206.049 46.2553 205.934 45.9258 205.96C45.6056 205.984 45.3047 206.148 45.0677 206.414C44.7668 206.756 44.613 207.229 44.6516 207.685C44.8054 209.39 46.5655 211.354 47.5934 211.683C47.622 211.692 47.6513 211.696 47.6799 211.692C47.7026 211.689 47.7279 211.686 47.7472 211.676C48.2658 211.466 48.8516 211.223 49.0214 210.779C49.1046 210.566 49.0819 210.329 48.9508 210.08C48.9262 210.03 48.8816 209.991 48.8236 209.978Z" fill="#8F7ECE"/>
<path opacity="0.58" d="M40.8001 210.418C40.832 210.504 40.9246 210.56 41.0211 210.553C41.0277 210.55 41.0337 210.55 41.0337 210.55C41.997 210.392 43.3318 209.578 43.7385 208.901C43.7831 208.825 43.7772 208.73 43.7226 208.664C43.6074 208.53 43.383 208.382 42.9703 208.411C42.2853 208.464 41.3666 209.009 40.9632 209.604C40.7681 209.893 40.7135 210.175 40.8001 210.418Z" fill="#8F7ECE"/>
<path opacity="0.58" d="M34.8743 214.042C35.4089 214.002 36.0586 213.671 36.6864 213.352C36.936 213.224 37.1824 213.099 37.416 212.994C37.6464 212.892 37.896 212.797 38.149 212.698C39.1635 212.304 40.2107 211.9 40.1528 211.076C40.1461 210.987 40.0789 210.908 39.9863 210.889C39.2627 210.731 38.2355 211.227 37.1724 211.769C36.8142 211.956 36.4487 212.14 36.0906 212.301C35.9368 212.37 35.7544 212.439 35.572 212.505C34.8643 212.761 34.0608 213.053 34.1221 213.743C34.1287 213.805 34.1607 213.861 34.2179 213.898C34.3943 214.012 34.612 214.061 34.8743 214.042Z" fill="#8F7ECE"/>
<path opacity="0.58" d="M43.998 209.741C43.2811 209.794 42.0581 210.51 41.7925 211.17C41.6933 211.41 41.7286 211.633 41.8917 211.797C41.9396 211.847 42.0002 211.866 42.0648 211.863C42.0774 211.863 42.0934 211.86 42.1034 211.856C42.8397 211.666 44.5006 210.959 44.6384 210.082C44.6511 210.013 44.6258 209.944 44.5745 209.895C44.4361 209.777 44.2443 209.721 43.998 209.741Z" fill="#8F7ECE"/>
<path opacity="0.58" d="M40.6987 216.939C40.4391 216.778 40.1961 216.63 39.9818 216.41C39.9465 216.125 39.9625 215.816 39.9851 215.491C40.0204 214.844 40.059 214.17 39.6589 213.638C39.6016 213.562 39.5018 213.52 39.4126 213.566C38.5838 213.851 38.6637 214.512 38.7209 214.991C38.7469 215.185 38.7688 215.373 38.7469 215.53C38.5864 215.438 38.43 215.291 38.2702 215.136C37.9593 214.838 37.6105 214.496 37.0892 214.535C36.9867 214.542 36.8775 214.564 36.769 214.604C36.6698 214.637 36.6119 214.733 36.6286 214.834C36.7537 215.675 37.4194 216.102 38.0079 216.48C38.3055 216.674 38.5904 216.858 38.8048 217.084C38.8461 217.317 38.8401 217.577 38.8334 217.853C38.8241 218.427 38.8108 219.078 39.2754 219.541C39.32 219.587 39.3813 219.61 39.4452 219.603C39.4579 219.603 39.4705 219.6 39.4838 219.6C40.31 219.389 40.2041 218.779 40.1369 218.378C40.1083 218.22 40.0889 218.095 40.0923 217.994C40.4318 218.326 40.8445 218.716 41.3085 218.68C41.5262 218.664 41.7186 218.562 41.891 218.371C41.949 218.309 41.9616 218.217 41.9263 218.142C41.5981 217.491 41.1441 217.208 40.6987 216.939Z" fill="#8F7ECE"/>
</g>
</g>
<path fill-rule="evenodd" clip-rule="evenodd" d="M69.0814 272.815C67.4391 273.712 68.3678 275.407 68.6687 276.421C69.0781 277.81 69.7731 279.305 70.1825 280.464C71.0945 283.033 71.4281 285.739 71.46 288.338C71.5206 293.222 70.6825 298.458 68.931 303.473C65.5638 313.134 57.5452 322.886 60.0836 333.183C61.5781 339.246 66.2235 344.009 71.2297 346.515C75.8298 348.818 80.6056 349.576 85.8681 349.195C90.9867 348.824 96.3484 347.813 101.399 344.974C107.042 341.808 111.742 336.713 114.684 331.849C120.148 322.81 121.313 312.111 119.434 301.643C118.451 296.194 116.873 290.781 113.563 285.493C106.614 274.397 95.7592 265.24 86.9532 259.429C77.5613 253.231 68.4037 249.316 58.663 244.534C52.338 241.426 44.4893 236.952 41.608 228.36C40.9776 226.471 40.3272 223.84 40.7979 222.47C41.435 220.624 43.7809 218.308 46.2234 216.623C49.7863 214.16 53.9058 213.486 57.6864 213.332C68.698 212.889 79.7734 215.536 90.4808 215.668C104.303 215.831 118.272 214.781 133.361 202.555C134.11 201.951 135.427 201.373 135.333 200.049C134.456 199.179 133.278 199.904 132.529 200.321C131.489 200.906 130.41 201.731 129.52 202.401C115.676 212.741 102.865 213.395 89.8883 213.053C79.2162 212.774 68.2686 210.268 57.1838 210.836C51.9373 211.102 46.1529 213.033 41.5881 218.197C43.4574 210.603 53.0637 206.425 59.1489 204.878C66.0244 203.124 72.9099 202.484 79.2515 202.224C86.1463 201.938 92.2989 202.184 99.1231 201.574C102.231 201.298 105.765 200.789 109.255 199.547C113.275 198.118 119.104 195.247 121.514 191.072C121.883 190.431 122.536 189.476 121.985 188.691C116.213 195.484 109.37 197.5 103.118 198.706C96.8024 199.918 90.4775 199.307 84.5266 199.405C78.5346 199.5 72.1803 199.602 65.8647 200.71C59.4339 201.833 52.6509 202.973 46.278 207.489C41.5375 210.849 39.095 215.191 38.1923 219.313C37.2643 223.521 37.92 228.014 40.0682 232.337C45.113 242.51 54.5336 246.09 62.1234 249.729C77.2644 256.978 94.3479 264.894 108.128 282.805C113.73 290.087 115.996 297.248 116.94 304.389C117.878 311.494 117.181 318.408 114.924 324.563C112.481 331.234 107.309 338.175 99.9173 342.359C93.2755 346.114 85.9579 347.145 79.5651 346.297C73.8672 345.552 65.0199 341.387 62.9069 332.709C61.194 325.667 65.0192 319.219 68.0509 312.913C72.3947 303.867 75.8804 293.08 73.6655 282.914C73.1083 280.349 72.3854 277.724 70.9161 274.965C70.5094 274.211 70.1985 272.943 69.0814 272.815Z" fill="#4D3D87"/>
<path fill-rule="evenodd" clip-rule="evenodd" d="M65.9295 275.273C66.7616 276.886 68.7048 277.503 70.2799 276.653C71.8483 275.802 72.4501 273.805 71.6213 272.192L69.7613 268.576C68.9325 266.966 66.986 266.349 65.4142 267.199C63.8391 268.05 63.244 270.047 64.0695 271.66L65.9295 275.273Z" fill="#4D3D87"/>
<path fill-rule="evenodd" clip-rule="evenodd" d="M129.833 185.132C127.038 187.596 124.25 190.062 121.379 192.507C120.588 191.764 119.791 191.065 119.023 190.237C122.073 187.038 127.618 180.465 133.431 177.92C135.78 176.888 139.324 176.698 140.134 180.157C140.873 183.337 136.405 188.056 132.749 187.088C131.587 186.782 130.876 185.967 129.833 185.132Z" fill="#4D3D87"/>
<path fill-rule="evenodd" clip-rule="evenodd" d="M131.678 183.642C131.921 182.788 134.354 180.416 135.161 181.444C135.699 182.127 134.582 182.991 133.97 183.53C133.503 183.941 132.639 185.11 131.886 184.595C131.476 184.319 131.608 183.878 131.678 183.642Z" fill="white"/>
<path fill-rule="evenodd" clip-rule="evenodd" d="M138.724 181.889C138.855 182.832 137.549 183.587 136.976 182.986C136.269 182.241 138.483 180.251 138.724 181.889Z" fill="white"/>
<path fill-rule="evenodd" clip-rule="evenodd" d="M139.748 194.744C136.682 196.833 133.612 198.922 130.542 201.093C131.029 202.079 131.467 203.055 132.034 204.036C135.862 201.891 143.532 198.196 147.492 193.144C149.092 191.097 150.232 187.652 147.207 185.918C144.428 184.325 138.788 187.455 138.708 191.331C138.679 192.563 139.246 193.486 139.748 194.744Z" fill="#4D3D87"/>
<path fill-rule="evenodd" clip-rule="evenodd" d="M141.644 193.33C142.514 193.32 145.398 191.556 144.656 190.482C144.16 189.766 143.046 190.636 142.374 191.093C141.862 191.444 140.53 191.98 140.811 192.864C140.959 193.343 141.41 193.33 141.644 193.33Z" fill="white"/>
<path fill-rule="evenodd" clip-rule="evenodd" d="M145.198 186.842C144.353 186.458 143.29 187.545 143.696 188.271C144.202 189.174 146.676 187.522 145.198 186.842Z" fill="white"/>
</svg>
