<svg  viewBox="0 0 358 348" fill="none" xmlns="http://www.w3.org/2000/svg">
<rect x="4" width="350" height="347.034" rx="173" fill="#EFF2FD"/>
<g filter="url(#filter0_d_4707_1456)">
<path d="M202.956 243.975C144.407 245.85 85.8585 247.725 27.3095 249.6C17.8235 249.904 9.8686 241.746 9.60909 231.376C8.43213 179.053 8.39122 126.741 9.48635 74.4404C9.72975 64.0709 17.6718 55.8997 27.1583 56.1881C85.7101 57.968 144.262 59.7479 202.814 61.5278C207.372 61.6745 211.688 63.653 214.82 67.0313C217.951 70.4095 219.644 74.9131 219.529 79.5589C218.519 128.359 218.557 177.144 219.643 225.917C219.766 230.562 218.08 235.069 214.954 238.452C211.827 241.835 207.514 243.821 202.956 243.975V243.975Z" fill="#243976"/>
<path d="M198.184 239.37C139.632 241.149 81.0804 242.929 22.5286 244.709C13.042 244.998 5.09955 236.814 4.85593 226.429C3.75918 174.026 3.80015 121.636 4.97883 69.2598C5.23873 58.8753 13.1939 50.7044 22.68 51.0082C81.229 52.8832 139.778 54.7581 198.327 56.6331C202.888 56.7911 207.203 58.7817 210.329 62.1703C213.456 65.5589 215.139 70.0702 215.013 74.7194C213.925 123.595 213.887 172.459 214.899 221.31C215.018 225.96 213.327 230.468 210.195 233.852C207.064 237.235 202.746 239.219 198.184 239.37Z" fill="#864FF1"/>
<path d="M99.0382 53.4535L22.6809 51.0082C13.1948 50.7044 5.23963 58.8753 4.97974 69.2598C4.47834 91.2494 4.15176 113.239 4 135.229C9.86994 85.9929 51.9963 53.9397 99.0382 53.4535Z" fill="#9768F3"/>
<path d="M198.327 56.6331C182.609 56.1298 166.891 55.6264 151.173 55.123C166.091 61.4514 179.11 71.6718 188.921 84.7558C220.146 126.868 171.081 174.454 135.181 190.11C94.6352 207.794 43.1685 210.681 4.16675 186.671C4.30668 199.923 4.53635 213.176 4.85577 226.429C5.09939 236.814 13.0419 244.998 22.5285 244.709C81.0802 242.93 139.632 241.15 198.184 239.369C202.746 239.219 207.064 237.235 210.195 233.852C213.327 230.468 215.017 225.96 214.898 221.31C213.887 172.433 213.925 123.569 215.013 74.7193C215.139 70.0702 213.455 65.5589 210.329 62.1703C207.203 58.7817 202.888 56.7911 198.327 56.6331V56.6331Z" fill="#602A9F"/>
<path d="M195.031 233.892C138.475 235.503 81.9192 237.115 25.3634 238.727C17.5971 238.948 11.1087 232.25 10.9163 223.765C10.0609 181.423 9.9315 139.086 10.5282 96.7534C76.475 97.8887 142.422 99.0239 208.369 100.159C207.81 139.816 207.931 179.465 208.732 219.104C208.83 222.914 207.443 226.608 204.876 229.379C202.308 232.15 198.769 233.773 195.031 233.892V233.892Z" fill="white"/>
<path d="M150.87 90.4038C125.453 89.8914 100.035 89.3789 74.6175 88.8665C73.6255 88.8206 72.6522 88.576 71.7532 88.1465C70.8541 87.717 70.047 87.1111 69.3779 86.3635C68.7088 85.6159 68.191 84.7411 67.8539 83.7894C67.5169 82.8376 67.3673 81.8275 67.4136 80.8167V80.8167C67.4116 79.8049 67.6053 78.8026 67.9837 77.8671C68.362 76.9316 68.9177 76.0813 69.6189 75.3648C70.32 74.6483 71.1529 74.0798 72.0698 73.6916C72.9868 73.3034 73.9699 73.1032 74.9628 73.1025C100.377 73.7463 125.792 74.39 151.207 75.0337C153.181 75.1065 155.046 75.9739 156.394 77.4459C157.741 78.9178 158.461 80.8742 158.396 82.8861V82.8861C158.373 84.899 157.568 86.8207 156.158 88.2299C154.747 89.6391 152.845 90.4209 150.87 90.4038V90.4038Z" fill="white"/>
<path d="M207.87 76.4689C207.842 77.3979 207.545 78.2976 207.015 79.0546C206.486 79.8115 205.749 80.3917 204.896 80.722C204.044 81.0523 203.114 81.1178 202.225 80.9103C201.336 80.7028 200.527 80.2316 199.901 79.5562C199.274 78.8807 198.858 78.0313 198.705 77.115C198.551 76.1988 198.668 75.2568 199.04 74.408C199.411 73.5592 200.021 72.8416 200.793 72.3457C201.564 71.8498 202.462 71.5978 203.374 71.6217C204.601 71.6579 205.763 72.1887 206.606 73.0975C207.449 74.0063 207.904 75.2188 207.87 76.4689Z" fill="white"/>
<path d="M192.39 76.0779C192.357 77.0058 192.055 77.903 191.523 78.6567C190.991 79.4103 190.252 79.9867 189.399 80.3132C188.546 80.6397 187.618 80.7017 186.73 80.4914C185.843 80.2812 185.036 79.8081 184.412 79.1316C183.788 78.4552 183.374 77.6057 183.223 76.6902C183.071 75.7746 183.189 74.8339 183.562 73.9865C183.934 73.139 184.544 72.4228 185.315 71.928C186.086 71.4332 186.983 71.1818 187.894 71.2057C189.124 71.2454 190.288 71.7807 191.131 72.6942C191.974 73.6077 192.426 74.8246 192.39 76.0779V76.0779Z" fill="white"/>
<path d="M176.425 75.673C176.387 76.5996 176.081 77.4943 175.546 78.2445C175.011 78.9947 174.271 79.5671 173.417 79.8897C172.564 80.2123 171.636 80.2707 170.751 80.0577C169.865 79.8446 169.061 79.3695 168.439 78.6921C167.817 78.0147 167.406 77.1652 167.257 76.2504C167.107 75.3355 167.227 74.3961 167.6 73.5502C167.973 72.7042 168.583 71.9895 169.353 71.4957C170.124 71.0019 171.02 70.7512 171.93 70.775C173.163 70.8182 174.329 71.3583 175.171 72.2766C176.014 73.1949 176.465 74.4164 176.425 75.673V75.673Z" fill="white"/>
<path d="M182.513 204.755L41.1388 207.367C40.6273 173.903 40.5562 140.445 40.9255 106.995C88.0533 107.658 135.181 108.321 182.309 108.983C181.957 140.916 182.025 172.839 182.513 204.755Z" fill="#FF6551"/>
<path d="M180.234 222.727C134.882 223.842 89.5292 224.956 44.1767 226.07C43.4522 226.065 42.7592 225.767 42.2499 225.242C41.7407 224.717 41.4568 224.007 41.4608 223.269C41.4232 222.532 41.6744 221.809 42.1593 221.261C42.6441 220.712 43.3228 220.382 44.0464 220.343C89.4008 219.313 134.755 218.284 180.11 217.254C180.817 217.243 181.5 217.518 182.008 218.019C182.516 218.521 182.808 219.207 182.82 219.928C182.841 220.649 182.58 221.348 182.096 221.873C181.611 222.398 180.941 222.705 180.234 222.727Z" fill="#BFBFBF"/>
<path d="M44.045 220.343C43.3291 220.402 42.6626 220.738 42.1819 221.282C41.7013 221.826 41.4428 222.537 41.4595 223.269C41.4762 224 41.7666 224.698 42.2715 225.219C42.7764 225.739 43.4575 226.043 44.1753 226.069C61.5481 225.642 78.9209 225.216 96.2936 224.789C96.2403 222.537 96.2147 221.411 96.1655 219.159L44.045 220.343Z" fill="#2435A1"/>
<path d="M111.236 185.823C104.247 185.791 97.5548 182.935 92.6276 177.883C89.9116 175.172 87.7524 171.937 86.2755 168.367C84.7987 164.797 84.0338 160.963 84.0255 157.088C84.0171 153.214 84.7655 149.377 86.227 145.8C87.6884 142.223 89.8338 138.979 92.538 136.255C94.9806 133.729 97.8894 131.719 101.097 130.342C104.305 128.965 107.748 128.248 111.228 128.232C111.289 128.232 111.349 128.232 111.409 128.233C126.143 128.338 138.618 141.498 138.65 156.968C138.683 172.437 126.265 185.65 111.532 185.82C111.434 185.822 111.334 185.823 111.236 185.823ZM111.229 131.972C108.229 131.99 105.262 132.611 102.499 133.801C99.7353 134.991 97.2302 136.727 95.1272 138.907C92.7667 141.282 90.8938 144.112 89.618 147.232C88.3421 150.352 87.6887 153.7 87.696 157.08C87.7033 160.461 88.371 163.806 89.6603 166.92C90.9496 170.035 92.8346 172.856 95.2053 175.221C99.4475 179.58 105.213 182.048 111.237 182.082C111.322 182.082 111.406 182.081 111.49 182.081C124.251 181.933 135.008 170.436 134.98 156.975C134.951 143.514 124.146 132.065 111.384 131.972H111.229Z" fill="white"/>
<path d="M105.724 147.438C105.717 155.781 105.727 159.953 105.774 168.296C113.007 164.481 116.626 162.585 123.871 158.816C116.604 154.292 112.975 152.016 105.724 147.438Z" fill="white"/>
<path d="M103.375 221.804C103.352 223.086 102.96 224.334 102.247 225.391C101.533 226.448 100.531 227.268 99.3641 227.749C98.1972 228.23 96.9172 228.351 95.6834 228.097C94.4495 227.843 93.3162 227.225 92.4244 226.319C91.5326 225.414 90.9217 224.261 90.6676 223.005C90.4135 221.749 90.5274 220.444 90.9952 219.253C91.463 218.062 92.264 217.037 93.2986 216.307C94.3332 215.576 95.5558 215.171 96.8143 215.143C98.5503 215.143 100.216 215.843 101.445 217.092C102.675 218.34 103.369 220.035 103.375 221.804Z" fill="#FF6551"/>
<path d="M100.107 221.882C100.096 222.51 99.9034 223.122 99.554 223.64C99.2046 224.158 98.7135 224.559 98.1417 224.795C97.5699 225.031 96.9428 225.091 96.3381 224.966C95.7335 224.842 95.1781 224.539 94.741 224.095C94.3039 223.652 94.0043 223.087 93.8796 222.472C93.7548 221.856 93.8104 221.217 94.0394 220.633C94.2683 220.049 94.6606 219.547 95.1674 219.189C95.6742 218.831 96.2731 218.632 96.8898 218.618C97.7409 218.617 98.5577 218.96 99.1609 219.572C99.764 220.184 100.104 221.015 100.107 221.882V221.882Z" fill="white"/>
<g style="mix-blend-mode:multiply" opacity="0.35">
<path d="M151.022 108.77C149.225 108.768 147.447 109.128 145.787 109.829C144.128 110.529 142.621 111.557 141.353 112.853C140.085 114.149 139.08 115.688 138.397 117.38C137.714 119.073 137.365 120.887 137.372 122.717C137.108 163.837 137.559 204.942 138.723 246.032C160.135 245.346 181.546 244.66 202.957 243.974C207.515 243.82 211.828 241.835 214.955 238.451C218.081 235.068 219.767 230.562 219.645 225.916C218.78 187.179 218.556 148.447 218.973 109.72C196.322 109.403 173.672 109.086 151.022 108.77Z" fill="#3F4D88"/>
</g>
<path d="M339.527 284C285.154 283.202 230.782 282.404 176.41 281.606C172.741 281.549 169.246 280.135 166.692 277.674C164.138 275.213 162.732 271.906 162.784 268.479C163.336 224.548 163.352 180.62 162.832 136.695C162.783 133.268 164.19 129.962 166.747 127.503C169.303 125.044 172.798 123.632 176.467 123.577C230.84 122.813 285.213 122.05 339.586 121.287C341.434 121.29 343.263 121.634 344.968 122.299C346.673 122.963 348.221 123.935 349.524 125.159C350.826 126.384 351.858 127.836 352.559 129.433C353.26 131.029 353.617 132.74 353.609 134.466C354.146 179.924 354.13 225.378 353.559 270.829C353.566 272.555 353.207 274.265 352.505 275.862C351.803 277.458 350.771 278.91 349.468 280.133C348.164 281.357 346.615 282.328 344.909 282.991C343.204 283.655 341.374 283.997 339.527 284V284Z" fill="#243976"/>
<path d="M335.86 280.353C281.487 279.59 227.115 278.826 172.742 278.063C169.074 278.009 165.579 276.599 163.023 274.141C160.467 271.684 159.058 268.38 159.106 264.954C159.626 221.052 159.61 177.154 159.058 133.259C159.008 129.833 160.414 126.528 162.968 124.069C165.523 121.61 169.017 120.197 172.684 120.141C227.057 119.343 281.429 118.545 335.801 117.747C337.648 117.749 339.477 118.091 341.182 118.754C342.888 119.416 344.437 120.387 345.74 121.609C347.043 122.832 348.076 124.282 348.778 125.878C349.481 127.474 349.84 129.183 349.834 130.908C350.404 176.336 350.42 221.761 349.883 267.183C349.89 268.908 349.533 270.618 348.832 272.214C348.13 273.81 347.099 275.261 345.796 276.485C344.494 277.708 342.946 278.679 341.241 279.343C339.536 280.007 337.707 280.35 335.86 280.353V280.353Z" fill="#49B3F7"/>
<path d="M335.799 117.747L300.622 118.263C318.209 123.157 330.826 137.797 333.713 153.474C340.758 191.722 261.132 236.3 227.894 243.895C205.863 248.929 181.116 252.024 159.341 243.819C159.265 252.273 159.218 256.5 159.104 264.954C159.056 268.38 160.465 271.684 163.021 274.141C165.577 276.599 169.072 278.009 172.74 278.063C227.113 278.826 281.485 279.59 335.858 280.353C337.705 280.35 339.534 280.007 341.239 279.343C342.944 278.679 344.492 277.708 345.794 276.485C347.097 275.261 348.128 273.81 348.829 272.214C349.531 270.618 349.888 268.908 349.881 267.183C350.418 221.755 350.402 176.33 349.832 130.908C349.837 129.183 349.479 127.474 348.776 125.878C348.074 124.282 347.041 122.832 345.738 121.609C344.434 120.387 342.886 119.416 341.18 118.754C339.475 118.091 337.646 117.749 335.799 117.747V117.747Z" fill="#378FDD"/>
<path d="M281.468 118.545C245.206 119.077 208.945 119.609 172.684 120.141C169.017 120.197 165.523 121.61 162.968 124.069C160.414 126.528 159.008 129.833 159.058 133.259C159.322 154.04 159.48 174.82 159.533 195.6C182.857 153.259 234.187 129.723 281.468 118.545Z" fill="#6CC1F9"/>
<path d="M333.512 276.117C280.747 275.415 227.983 274.713 175.219 274.012C172.215 273.969 169.352 272.815 167.258 270.803C165.164 268.791 164.011 266.085 164.05 263.279C164.479 226.193 164.532 189.109 164.208 152.027C224.521 151.491 284.835 150.954 345.148 150.418C345.482 188.726 345.427 227.032 344.985 265.336C344.99 266.748 344.698 268.147 344.124 269.453C343.551 270.759 342.707 271.947 341.641 272.948C340.576 273.95 339.309 274.745 337.914 275.289C336.519 275.832 335.023 276.114 333.512 276.117V276.117Z" fill="white"/>
<path d="M341.563 132.085C341.549 132.792 341.312 133.48 340.882 134.062C340.451 134.644 339.847 135.095 339.144 135.359C338.441 135.622 337.671 135.687 336.929 135.544C336.187 135.401 335.507 135.057 334.973 134.556C334.439 134.054 334.075 133.417 333.926 132.723C333.778 132.029 333.851 131.31 334.137 130.655C334.423 130 334.91 129.438 335.535 129.04C336.161 128.641 336.899 128.424 337.656 128.414C338.171 128.415 338.68 128.511 339.155 128.697C339.63 128.882 340.061 129.153 340.424 129.493C340.787 129.834 341.074 130.239 341.27 130.683C341.465 131.128 341.565 131.604 341.563 132.085Z" fill="white"/>
<path d="M328.635 132.242C328.622 132.95 328.386 133.638 327.957 134.222C327.528 134.805 326.924 135.257 326.222 135.522C325.519 135.787 324.748 135.852 324.006 135.71C323.264 135.569 322.582 135.226 322.048 134.724C321.513 134.223 321.148 133.585 320.998 132.892C320.849 132.198 320.922 131.478 321.208 130.823C321.494 130.167 321.98 129.605 322.606 129.206C323.232 128.807 323.97 128.59 324.728 128.58C325.242 128.581 325.75 128.676 326.225 128.861C326.699 129.045 327.13 129.315 327.493 129.655C327.856 129.995 328.144 130.399 328.339 130.843C328.535 131.287 328.636 131.762 328.635 132.242V132.242Z" fill="white"/>
<path d="M315.305 132.405C315.294 133.113 315.06 133.802 314.632 134.387C314.204 134.971 313.601 135.425 312.899 135.691C312.196 135.957 311.425 136.023 310.682 135.882C309.94 135.741 309.258 135.399 308.722 134.898C308.186 134.397 307.82 133.76 307.67 133.066C307.52 132.372 307.593 131.652 307.878 130.996C308.164 130.34 308.65 129.777 309.276 129.378C309.902 128.979 310.64 128.761 311.398 128.751C311.912 128.752 312.42 128.846 312.894 129.03C313.369 129.214 313.799 129.483 314.162 129.822C314.525 130.161 314.813 130.564 315.009 131.007C315.205 131.45 315.306 131.925 315.305 132.405V132.405Z" fill="white"/>
<path d="M290.642 144.472L216.639 145.215C215 145.224 213.424 144.624 212.257 143.548C211.09 142.472 210.429 141.008 210.417 139.477V139.477C210.39 137.945 211.014 136.467 212.153 135.365C213.292 134.264 214.852 133.629 216.492 133.602L290.493 132.704C291.311 132.704 292.121 132.854 292.877 133.146C293.632 133.438 294.319 133.866 294.898 134.406C295.477 134.946 295.935 135.587 296.249 136.293C296.562 136.999 296.723 137.756 296.723 138.52V138.52C296.742 139.284 296.6 140.044 296.305 140.756C296.01 141.469 295.568 142.12 295.003 142.673C294.438 143.226 293.763 143.669 293.014 143.978C292.266 144.287 291.46 144.455 290.642 144.472Z" fill="white"/>
<path d="M191.818 187.628C190.338 187.623 188.921 187.071 187.875 186.093C186.829 185.115 186.24 183.791 186.236 182.408C186.218 177.698 186.206 175.344 186.177 170.634C186.167 169.249 186.744 167.917 187.784 166.93C188.823 165.943 190.239 165.38 191.721 165.367L204.264 165.287H204.302C205.031 165.285 205.752 165.419 206.425 165.679C207.099 165.939 207.71 166.321 208.224 166.803C208.747 167.288 209.163 167.865 209.447 168.5C209.731 169.135 209.878 169.817 209.88 170.505C209.91 175.234 209.922 177.6 209.94 182.328C209.945 183.021 209.803 183.707 209.523 184.348C209.242 184.989 208.827 185.571 208.303 186.061C207.79 186.547 207.179 186.933 206.505 187.196C205.831 187.459 205.108 187.595 204.377 187.596L191.834 187.628H191.818ZM204.302 166.974H204.276L191.734 167.053C190.73 167.064 189.772 167.446 189.069 168.115C188.366 168.785 187.976 169.687 187.984 170.625C188.013 175.335 188.025 177.691 188.043 182.401C188.045 183.337 188.442 184.235 189.15 184.898C189.857 185.561 190.816 185.936 191.818 185.941L191.829 185.939L204.373 185.907C204.866 185.907 205.354 185.815 205.809 185.637C206.264 185.46 206.676 185.199 207.022 184.871C207.378 184.538 207.659 184.143 207.85 183.707C208.04 183.272 208.137 182.806 208.133 182.335C208.115 177.607 208.102 175.243 208.073 170.515C208.072 170.047 207.972 169.584 207.779 169.152C207.586 168.721 207.304 168.329 206.948 168C206.602 167.674 206.189 167.416 205.735 167.24C205.281 167.064 204.794 166.974 204.302 166.974Z" fill="#FF6551"/>
<path d="M229.865 187.531C228.381 187.521 226.961 186.964 225.915 185.981C224.869 184.997 224.282 183.667 224.282 182.281C224.264 177.538 224.253 175.168 224.223 170.425C224.208 169.037 224.784 167.699 225.823 166.706C226.862 165.713 228.281 165.146 229.767 165.128L242.309 165.048C243.792 165.062 245.211 165.609 246.272 166.576C247.328 167.563 247.923 168.901 247.926 170.297C247.956 175.058 247.968 177.44 247.987 182.201C247.997 183.597 247.416 184.94 246.37 185.937C245.857 186.43 245.244 186.823 244.566 187.091C243.888 187.36 243.16 187.499 242.424 187.5L229.881 187.531H229.865ZM242.347 166.736H242.322L229.78 166.816C228.772 166.83 227.811 167.217 227.108 167.892C226.405 168.567 226.018 169.475 226.03 170.416C226.06 175.159 226.071 177.531 226.089 182.274C226.087 183.214 226.482 184.117 227.189 184.785C227.897 185.454 228.858 185.834 229.865 185.843L229.876 185.842L242.419 185.811C242.915 185.81 243.406 185.716 243.863 185.535C244.32 185.354 244.733 185.089 245.078 184.756C245.791 184.076 246.187 183.16 246.18 182.208C246.161 177.447 246.149 175.067 246.119 170.306C246.118 169.354 245.713 168.442 244.993 167.768C244.647 167.441 244.235 167.181 243.781 167.004C243.327 166.826 242.839 166.735 242.347 166.736V166.736Z" fill="#FF6551"/>
<path d="M267.914 187.436C266.425 187.423 265.002 186.86 263.956 185.87C262.909 184.881 262.325 183.545 262.329 182.154C262.311 177.379 262.299 174.993 262.269 170.218C262.25 168.825 262.823 167.482 263.863 166.484C264.902 165.485 266.322 164.912 267.813 164.89L280.355 164.81H280.393C281.124 164.809 281.848 164.945 282.523 165.209C283.197 165.473 283.808 165.861 284.32 166.348C285.376 167.344 285.97 168.688 285.972 170.089C286.002 174.883 286.014 177.281 286.032 182.074C286.044 183.476 285.464 184.825 284.418 185.83C283.907 186.326 283.294 186.721 282.616 186.992C281.937 187.262 281.208 187.402 280.47 187.403L267.927 187.436L267.914 187.436ZM280.393 166.498H280.368L267.826 166.578C266.813 166.596 265.851 166.989 265.148 167.67C264.445 168.35 264.059 169.263 264.076 170.208C264.106 174.984 264.118 177.372 264.136 182.147C264.129 183.092 264.523 184 265.23 184.674C265.938 185.349 266.903 185.734 267.914 185.747H267.923L280.465 185.714C280.962 185.713 281.453 185.619 281.91 185.436C282.366 185.254 282.779 184.988 283.123 184.653C283.838 183.965 284.234 183.041 284.225 182.081C284.207 177.288 284.195 174.892 284.165 170.098C284.165 169.139 283.759 168.218 283.036 167.536C282.692 167.207 282.281 166.946 281.827 166.768C281.373 166.59 280.886 166.498 280.393 166.498V166.498Z" fill="#FF6551"/>
<path d="M305.957 187.337C304.464 187.32 303.04 186.751 301.994 185.756C300.948 184.761 300.366 183.42 300.375 182.025C300.357 177.218 300.345 174.815 300.315 170.008C300.292 168.611 300.863 167.263 301.902 166.258C302.941 165.253 304.364 164.674 305.859 164.648L318.401 164.57L318.439 164.569C319.172 164.569 319.897 164.706 320.572 164.972C321.247 165.238 321.857 165.628 322.368 166.119C323.424 167.122 324.016 168.472 324.018 169.879C324.049 174.705 324.06 177.119 324.079 181.945C324.086 182.656 323.941 183.36 323.655 184.017C323.368 184.675 322.944 185.273 322.408 185.776C321.9 186.259 321.294 186.642 320.626 186.905C319.957 187.167 319.24 187.303 318.515 187.304L305.973 187.337L305.957 187.337ZM318.438 166.257H318.414L305.871 166.335C304.855 166.359 303.89 166.757 303.187 167.444C302.484 168.13 302.101 169.049 302.122 169.998C302.152 174.806 302.164 177.211 302.182 182.018C302.171 182.967 302.562 183.88 303.269 184.561C303.976 185.241 304.943 185.632 305.958 185.649L305.968 185.648L318.512 185.615C318.999 185.614 319.481 185.523 319.93 185.346C320.379 185.169 320.786 184.911 321.127 184.586C321.495 184.239 321.785 183.828 321.982 183.376C322.178 182.924 322.277 182.44 322.272 181.952C322.253 177.126 322.242 174.714 322.211 169.888C322.211 168.921 321.804 167.993 321.079 167.303C320.737 166.972 320.326 166.709 319.873 166.529C319.419 166.35 318.931 166.257 318.438 166.257V166.257Z" fill="#FF6551"/>
<path d="M197.633 184.544L196.164 183.174C191.041 178.39 188.476 176.005 183.342 171.243L185.888 168.847C190.511 173.134 193.053 175.498 197.249 179.414C202.279 173.187 205.172 169.586 210.549 162.867L213.443 164.888C207.633 172.15 204.72 175.772 198.883 182.996L197.633 184.544Z" fill="#2435A1"/>
<path d="M187.141 219.869L187.127 223.246L323.163 223.756L323.178 220.38L187.141 219.869Z" fill="#BFBFBF"/>
<path d="M187.071 232.94L187.047 236.317L323.083 237.15L323.106 233.773L187.071 232.94Z" fill="#BFBFBF"/>
<path d="M186.965 246.01L186.932 249.387L322.965 250.54L322.998 247.164L186.965 246.01Z" fill="#BFBFBF"/>
<path d="M186.826 259.08L186.783 262.457L322.812 263.928L322.854 260.552L186.826 259.08Z" fill="#BFBFBF"/>
<path d="M194.489 204.808C193.922 206.559 193.638 207.434 193.07 209.183C191.832 209.181 191.212 209.18 189.974 209.178C192.091 203.008 193.145 199.92 195.242 193.739C196.772 193.737 197.538 193.736 199.069 193.734C201.214 199.914 202.281 203.008 204.406 209.2C203.109 209.198 202.46 209.197 201.163 209.195C200.572 207.442 200.275 206.565 199.682 204.812C197.605 204.811 196.566 204.81 194.489 204.808ZM199.196 202.679C198.679 201.156 198.421 200.394 197.903 198.872C197.586 197.932 197.318 196.877 197.072 195.983L197.024 195.983C196.781 196.878 196.514 197.955 196.246 198.872C195.74 200.395 195.486 201.156 194.979 202.677L199.196 202.679Z" fill="#49B3F7"/>
<path d="M240.609 193.678C240.61 194.612 240.611 195.078 240.612 196.012C237.745 196.014 236.312 196.016 233.445 196.018C233.446 197.356 233.446 198.026 233.447 199.364C234.118 199.289 234.794 199.25 235.47 199.249C237.042 199.218 238.587 199.628 239.907 200.425C240.55 200.848 241.07 201.414 241.419 202.072C241.768 202.73 241.935 203.459 241.905 204.192C241.933 204.836 241.814 205.477 241.557 206.074C241.3 206.672 240.911 207.212 240.415 207.658C238.619 208.926 236.393 209.546 234.146 209.405C232.916 209.407 231.687 209.336 230.466 209.192C230.477 202.991 230.477 199.891 230.468 193.691L240.609 193.678ZM233.443 207.165C233.968 207.236 234.498 207.268 235.028 207.259C236.085 207.298 237.117 206.951 237.905 206.292C238.184 206.023 238.403 205.705 238.55 205.356C238.697 205.007 238.768 204.635 238.76 204.26C238.777 203.849 238.685 203.441 238.494 203.07C238.303 202.7 238.018 202.379 237.664 202.135C236.861 201.624 235.905 201.365 234.934 201.395C234.471 201.395 233.935 201.441 233.447 201.487C233.447 203.758 233.446 204.894 233.443 207.165Z" fill="#49B3F7"/>
<path d="M268.526 193.874C269.974 193.633 271.442 193.514 272.913 193.52C274.545 193.407 276.176 193.754 277.595 194.515C278.125 194.831 278.56 195.268 278.859 195.785C279.158 196.301 279.311 196.88 279.304 197.468C279.287 198.227 279.014 198.961 278.524 199.567C278.034 200.173 277.352 200.619 276.575 200.841V200.911C277.519 201.101 278.363 201.589 278.967 202.293C279.57 202.997 279.896 203.873 279.889 204.774C279.898 205.391 279.763 206.001 279.493 206.564C279.222 207.126 278.824 207.627 278.325 208.03C277.163 208.983 275.227 209.468 272.204 209.464C270.973 209.465 269.744 209.394 268.523 209.249C268.534 203.099 268.535 200.024 268.526 193.874ZM271.505 200.052L273.041 200.052C275.137 200.051 276.283 199.121 276.282 197.795C276.281 196.307 275.11 195.633 273.208 195.635C272.637 195.617 272.065 195.656 271.502 195.752C271.504 197.472 271.504 198.332 271.505 200.052V200.052ZM271.5 207.232C272.026 207.298 272.556 207.322 273.085 207.304C275.011 207.306 276.743 206.633 276.744 204.702C276.746 202.865 275.064 202.12 272.992 202.12L271.505 202.119C271.504 204.164 271.503 205.187 271.5 207.232V207.232Z" fill="#49B3F7"/>
<path d="M318.454 193.579C318.456 194.526 318.456 194.999 318.457 195.945C315.902 195.948 314.625 195.949 312.07 195.951C312.076 201.315 312.075 203.997 312.065 209.362L309.066 209.357C309.077 203.051 309.078 199.898 309.068 193.591C312.823 193.586 314.7 193.584 318.454 193.579Z" fill="#49B3F7"/>
</g>
<defs>
<filter id="filter0_d_4707_1456" x="0" y="51" width="358" height="241" filterUnits="userSpaceOnUse" color-interpolation-filters="sRGB">
<feFlood flood-opacity="0" result="BackgroundImageFix"/>
<feColorMatrix in="SourceAlpha" type="matrix" values="0 0 0 0 0 0 0 0 0 0 0 0 0 0 0 0 0 0 127 0" result="hardAlpha"/>
<feOffset dy="4"/>
<feGaussianBlur stdDeviation="2"/>
<feComposite in2="hardAlpha" operator="out"/>
<feColorMatrix type="matrix" values="0 0 0 0 0 0 0 0 0 0 0 0 0 0 0 0 0 0 0.25 0"/>
<feBlend mode="normal" in2="BackgroundImageFix" result="effect1_dropShadow_4707_1456"/>
<feBlend mode="normal" in="SourceGraphic" in2="effect1_dropShadow_4707_1456" result="shape"/>
</filter>
</defs>
</svg>
