<svg viewBox="0 0 364 348" fill="none" xmlns="http://www.w3.org/2000/svg">
<rect width="350" height="347.034" rx="173" fill="#EFF2FD"/>
<path d="M321.908 164.019C253.945 161.342 186.006 160.544 117.997 161.612C110.921 161.741 105.074 156.247 104.922 149.309C104.606 134.821 104.302 120.323 103.986 105.835C103.834 98.8972 109.565 93.1563 116.769 93.0154C186.123 91.9236 255.419 92.7337 324.738 95.4691C331.943 95.7743 337.533 101.656 337.217 108.583C336.562 123.058 335.907 137.545 335.264 152.021C334.948 158.959 328.972 164.312 321.908 164.019Z" fill="#864FF1"/>
<path d="M123.061 88.1901C190.673 87.2509 258.214 88.1197 325.767 90.7964C335.568 91.2073 343.159 99.214 342.726 108.629C342.083 122.541 341.428 136.453 340.784 150.377" stroke="#FFC652" stroke-width="1.9765" stroke-miterlimit="10" stroke-linecap="round" stroke-linejoin="round" stroke-dasharray="9.88 9.88"/>
<path d="M114.395 110.19C105.624 118.596 96.9107 127.061 88.2444 135.572C97.5891 134.07 102.267 133.33 111.635 131.898C112.723 123.21 113.284 118.878 114.395 110.19Z" fill="#864FF1"/>
<path d="M39.7902 242.149C106.209 239.519 172.604 238.732 239.069 239.754C245.982 239.871 251.701 234.377 251.853 227.45C252.168 212.963 252.473 198.464 252.788 183.977C252.94 177.039 247.338 171.298 240.286 171.169C172.464 170.112 104.724 170.934 36.9482 173.611C29.8958 173.904 24.4457 179.786 24.7615 186.713C25.4164 201.188 26.0714 215.675 26.7263 230.151C27.0304 237.077 32.8782 242.431 39.7902 242.149Z" fill="#49B3F7"/>
<path d="M242.613 188.333C251.186 196.739 259.7 205.192 268.168 213.691C259.034 212.2 254.461 211.461 245.303 210.028C244.239 201.353 243.701 197.021 242.613 188.333Z" fill="#49B3F7"/>
<path d="M222.333 166.168C219.97 166.133 218.789 166.121 216.426 166.098" stroke="#FF6551" stroke-width="1.9765" stroke-linecap="round" stroke-linejoin="round"/>
<path d="M204.79 165.992C148.301 165.698 91.8581 166.685 35.4157 168.939C26.4219 169.314 19.4748 176.816 19.8841 185.645C20.4689 198.159 20.7613 204.429 21.3461 216.943" stroke="#FF6551" stroke-width="1.9765" stroke-linecap="round" stroke-linejoin="round" stroke-dasharray="9.73 9.73"/>
<path d="M21.603 222.66C21.7083 224.973 21.7668 226.135 21.8721 228.46" stroke="#FF6551" stroke-width="1.9765" stroke-linecap="round" stroke-linejoin="round"/>
<path d="M218.051 205.439C218.034 207.7 218.017 208.835 218 211.097C218 211.097 218.358 214.947 222.394 214.999C226.431 215.043 227.436 212.249 227.896 210.913C228.356 209.577 227.146 205.343 227.146 205.343C223.501 205.369 221.687 205.386 218.051 205.439Z" fill="#FFC652" stroke="#D48439" stroke-width="1.3044" stroke-miterlimit="10" stroke-linecap="round" stroke-linejoin="round"/>
<path d="M224.984 208.425C225.027 204.653 225.052 202.759 225.095 198.987C225.103 198.437 225.546 197.991 226.091 198C226.619 198.009 227.045 198.428 227.062 198.961C227.326 203.003 227.462 205.029 227.718 209.071C226.619 208.809 226.074 208.678 224.984 208.425Z" fill="#FFC652" stroke="#D48439" stroke-width="1.3044" stroke-miterlimit="10" stroke-linecap="round" stroke-linejoin="round"/>
<path d="M219.081 208.093C218.502 208.084 218.033 207.604 218.042 207.01C218.05 206.478 218.05 206.207 218.05 205.675C218.059 205.081 218.536 204.609 219.115 204.609C219.694 204.618 220.162 205.098 220.154 205.692C220.145 206.225 220.145 206.495 220.137 207.028C220.137 207.622 219.66 208.093 219.081 208.093Z" fill="#FFC652" stroke="#D48439" stroke-width="1.3044" stroke-miterlimit="10" stroke-linecap="round" stroke-linejoin="round"/>
<path d="M221.422 207.517C220.843 207.508 220.375 207.028 220.384 206.434C220.392 205.902 220.392 205.631 220.401 205.099C220.409 204.505 220.886 204.033 221.465 204.042C222.044 204.051 222.513 204.531 222.504 205.125C222.496 205.657 222.495 205.928 222.487 206.461C222.478 207.046 222.002 207.517 221.422 207.517Z" fill="#FFC652" stroke="#D48439" stroke-width="1.3044" stroke-miterlimit="10" stroke-linecap="round" stroke-linejoin="round"/>
<path d="M223.731 207.238C223.152 207.229 222.684 206.749 222.692 206.155C222.701 205.623 222.701 205.352 222.709 204.819C222.718 204.226 223.195 203.754 223.774 203.763C224.353 203.772 224.821 204.252 224.813 204.845C224.804 205.378 224.804 205.649 224.796 206.181C224.796 206.775 224.319 207.247 223.731 207.238Z" fill="#FFC652" stroke="#D48439" stroke-width="1.3044" stroke-miterlimit="10" stroke-linecap="round" stroke-linejoin="round"/>
<path d="M227.163 212.607C228.159 211.411 228.159 208.652 227.308 208.006C227.308 208.006 225.605 206.679 225.162 206.635C224.719 206.592 221.364 206.592 221.364 206.592C221.364 206.592 220.699 207.613 221.934 208.417C222.454 208.757 223.935 208.809 223.935 208.809C224.259 209.229 224.429 209.438 224.753 209.857C224.753 209.857 224.004 211.001 223.995 211.656" fill="#FFC652"/>
<path d="M227.163 212.607C228.159 211.411 228.159 208.652 227.308 208.006C227.308 208.006 225.605 206.679 225.162 206.635C224.719 206.592 221.364 206.592 221.364 206.592C221.364 206.592 220.699 207.613 221.934 208.417C222.454 208.757 223.935 208.809 223.935 208.809C224.259 209.229 224.429 209.438 224.753 209.857C224.753 209.857 224.004 211.001 223.995 211.656" stroke="#D48439" stroke-width="1.3044" stroke-miterlimit="10" stroke-linecap="round" stroke-linejoin="round"/>
<path d="M218.051 205.439C218.034 207.7 218.017 208.835 218 211.097C218 211.097 218.358 214.947 222.394 214.999C226.431 215.043 227.436 212.249 227.896 210.913C228.356 209.577 227.146 205.343 227.146 205.343C223.501 205.369 221.687 205.386 218.051 205.439Z" fill="#FFC652" stroke="#D48439" stroke-width="0.3261" stroke-miterlimit="10" stroke-linecap="round" stroke-linejoin="round"/>
<path d="M224.984 208.425C225.027 204.653 225.052 202.759 225.095 198.987C225.103 198.437 225.546 197.991 226.091 198C226.619 198.009 227.045 198.428 227.062 198.961C227.326 203.003 227.462 205.029 227.718 209.071C226.619 208.809 226.074 208.678 224.984 208.425Z" fill="#FFC652" stroke="#D48439" stroke-width="0.3261" stroke-miterlimit="10" stroke-linecap="round" stroke-linejoin="round"/>
<path d="M219.081 208.093C218.502 208.084 218.033 207.604 218.042 207.01C218.05 206.478 218.05 206.207 218.05 205.675C218.059 205.081 218.536 204.609 219.115 204.609C219.694 204.618 220.162 205.098 220.154 205.692C220.145 206.225 220.145 206.495 220.137 207.028C220.137 207.622 219.66 208.093 219.081 208.093Z" fill="#FFC652" stroke="#D48439" stroke-width="0.3261" stroke-miterlimit="10" stroke-linecap="round" stroke-linejoin="round"/>
<path d="M221.422 207.517C220.843 207.508 220.375 207.028 220.384 206.434C220.392 205.902 220.392 205.631 220.401 205.099C220.409 204.505 220.886 204.033 221.465 204.042C222.044 204.051 222.513 204.531 222.504 205.125C222.496 205.657 222.495 205.928 222.487 206.461C222.478 207.046 222.002 207.517 221.422 207.517Z" fill="#FFC652" stroke="#D48439" stroke-width="0.3261" stroke-miterlimit="10" stroke-linecap="round" stroke-linejoin="round"/>
<path d="M223.731 207.238C223.152 207.229 222.684 206.749 222.692 206.155C222.701 205.623 222.701 205.352 222.709 204.819C222.718 204.226 223.195 203.754 223.774 203.763C224.353 203.772 224.821 204.252 224.813 204.845C224.804 205.378 224.804 205.649 224.796 206.181C224.796 206.775 224.319 207.247 223.731 207.238Z" fill="#FFC652" stroke="#D48439" stroke-width="0.3261" stroke-miterlimit="10" stroke-linecap="round" stroke-linejoin="round"/>
<path d="M227.163 212.607C228.159 211.411 228.159 208.652 227.308 208.006C227.308 208.006 225.605 206.679 225.162 206.635C224.719 206.592 221.364 206.592 221.364 206.592C221.364 206.592 220.699 207.613 221.934 208.417C222.454 208.757 223.935 208.809 223.935 208.809C224.259 209.229 224.429 209.438 224.753 209.857C224.753 209.857 224.004 211.001 223.995 211.656" fill="#FFC652"/>
<path d="M227.163 212.607C228.159 211.411 228.159 208.652 227.308 208.006C227.308 208.006 225.605 206.679 225.162 206.635C224.719 206.592 221.364 206.592 221.364 206.592C221.364 206.592 220.699 207.613 221.934 208.417C222.454 208.757 223.935 208.809 223.935 208.809C224.259 209.229 224.429 209.438 224.753 209.857C224.753 209.857 224.004 211.001 223.995 211.656" stroke="#D48439" stroke-width="0.3261" stroke-miterlimit="10" stroke-linecap="round" stroke-linejoin="round"/>
<path d="M55.6384 157.833C71.2956 157.833 83.9883 145.092 83.9883 129.376C83.9883 113.659 71.2956 100.918 55.6384 100.918C39.9812 100.918 27.2886 113.659 27.2886 129.376C27.2886 145.092 39.9812 157.833 55.6384 157.833Z" fill="#FF6551"/>
<path d="M72.2231 141.433C71.7669 139.566 70.9366 137.852 69.6735 136.397C68.7261 135.317 67.5332 134.624 66.0829 134.46C65.7906 134.424 65.6268 134.295 65.4865 134.049C64.8549 132.969 64.6561 131.771 64.5859 130.55C64.5391 129.693 64.5508 128.836 64.5859 127.979C64.6327 127.005 64.7262 126.03 64.8198 125.044C64.89 124.211 65.0654 123.389 65.0537 122.555C65.042 121.557 64.89 120.559 64.773 119.573C64.5274 117.601 63.8374 115.805 62.6679 114.185C61.3346 112.353 59.5101 111.402 57.2879 111.238C56.1184 111.144 54.9372 111.226 53.7559 111.285C52.446 111.344 51.2765 111.884 50.2239 112.623C48.4929 113.844 47.5573 115.617 47.0193 117.601C46.6918 118.787 46.5047 120.019 46.341 121.24C46.2357 122.003 46.224 122.79 46.2708 123.565C46.341 124.61 46.5515 125.643 46.6333 126.699C46.762 128.367 46.8556 130.045 46.6333 131.712C46.5164 132.581 46.2825 133.415 45.7328 134.119C45.6275 134.26 45.4287 134.366 45.265 134.401C43.5575 134.718 42.1657 135.551 41.1482 136.972C40.4113 137.982 39.8734 139.097 39.464 140.271C39.2535 140.858 39.043 141.468 38.9611 142.079C38.8091 143.335 39.3587 144.309 40.3295 145.096C41.3821 145.941 42.6452 146.293 43.9083 146.622C45.5573 147.057 47.2415 147.35 48.949 147.503C50.2589 147.62 51.5688 147.737 52.8904 147.796C54.212 147.843 55.5453 147.808 56.8669 147.808C59.0656 147.808 61.2527 147.679 63.428 147.385C65.2759 147.139 67.1005 146.798 68.8665 146.188C69.6968 145.906 70.4921 145.53 71.1704 144.967C72.3049 144.039 72.5505 142.783 72.2231 141.433ZM63.3462 124.316C63.2526 124.845 63.0889 125.349 62.9134 125.854C62.7965 126.183 62.586 126.429 62.1883 126.406C62.1298 126.406 62.0363 126.512 62.0129 126.594C61.4399 128.32 60.4691 129.764 59.1709 130.996V132.969C59.2294 133.826 59.9896 134.237 60.6679 134.589C60.5744 134.741 60.5042 134.882 60.4107 135.011C59.6388 136.103 58.551 136.714 57.2762 137.031C55.2061 137.535 53.3349 137.054 51.6273 135.845C51.1946 135.54 50.8554 135.117 50.6566 134.577C51.3466 134.272 51.9314 133.861 52.0132 132.969L52.1185 130.961C51.2765 130.163 50.6098 129.212 50.0718 128.155C49.7794 127.592 49.5338 126.993 49.2648 126.406C48.9724 126.488 48.7502 126.324 48.5982 126.077C48.0368 125.173 47.8731 124.211 48.1655 123.177C48.259 122.837 48.4695 122.755 48.8204 122.837C48.9724 121.945 49.1713 121.064 49.6274 120.266C50.0835 119.456 50.7151 118.857 51.639 118.658C52.0484 118.564 52.446 118.575 52.8554 118.787C55.2061 120.019 57.5803 121.229 59.9428 122.438C60.5978 122.767 61.241 123.107 61.8842 123.447C62.0363 123.53 62.1415 123.53 62.2585 123.401C62.3871 123.248 62.5509 123.142 62.6796 122.99C62.8667 122.778 63.007 122.861 63.1474 123.048C63.4281 123.424 63.428 123.882 63.3462 124.316Z" fill="white"/>
<path d="M302.822 235.998C318.479 235.998 331.172 223.257 331.172 207.541C331.172 191.824 318.479 179.083 302.822 179.083C287.165 179.083 274.472 191.824 274.472 207.541C274.472 223.257 287.165 235.998 302.822 235.998Z" fill="#67D449"/>
<path d="M302.016 186.616C300.202 186.77 299.027 187.325 298.559 188.258C298.466 188.437 298.346 188.583 298.287 188.583C298.235 188.583 297.869 188.72 297.487 188.874C295.75 189.591 294.302 191.053 293.536 192.866C292.744 194.729 292.676 196.422 293.263 199.994C293.433 201.037 293.494 201.678 293.494 202.687C293.502 204.107 293.4 204.644 292.907 205.866L292.694 206.388L292.907 206.747C293.4 207.602 294.814 208.618 296.262 209.175L296.722 209.345L297.352 209.139C299.2 208.516 300.018 207.712 300.153 206.386C300.213 205.865 300.205 205.857 299.923 205.617C298.483 204.429 297.369 202.882 296.746 201.215C296.525 200.626 296.303 199.428 296.227 198.368C296.134 197.198 296.482 196.471 297.878 194.949C298.662 194.095 299.181 193.248 299.547 192.214C299.633 191.974 299.717 191.769 299.726 191.761C299.735 191.744 299.965 191.94 300.237 192.206C300.74 192.711 301.6 193.18 302.315 193.352C302.527 193.403 303.234 193.522 303.89 193.625C305.959 193.933 306.351 194.232 307.399 196.309C307.995 197.489 308.523 198.164 309.093 198.463L309.4 198.625L309.34 199.214C309.127 201.411 307.842 203.813 306.088 205.283L305.467 205.804L305.509 206.335C305.602 207.685 306.386 208.497 308.166 209.096L308.958 209.361L309.698 209.054C310.115 208.883 310.736 208.567 311.086 208.345C311.793 207.9 312.704 207.029 312.866 206.635C312.96 206.404 312.942 206.319 312.671 205.747C312.51 205.396 312.287 204.772 312.186 204.353C311.939 203.293 311.99 201.678 312.356 199.652C313.14 195.344 312.577 192.592 310.415 190.002C308.429 187.634 305.219 186.343 302.016 186.616Z" fill="white"/>
<path d="M296.142 209.619C295.912 209.705 294.916 210.072 293.928 210.432C291.808 211.201 290.122 212.005 289.407 212.594C288.07 213.688 287.107 215.619 286.69 218.021C286.256 220.569 286.861 222.081 288.759 223.193C292.284 225.253 298.474 226.39 304.682 226.108C309.391 225.894 313.436 224.988 316.314 223.5C317.285 222.996 317.685 222.714 318.128 222.235C318.878 221.422 319.133 220.55 319.065 219.098C318.92 216.44 317.814 213.867 316.264 212.61C315.626 212.089 314.416 211.456 313.088 210.953C311.922 210.5 309.043 209.44 309 209.44C308.984 209.44 308.829 209.695 308.66 210.012C307.706 211.773 305.39 214.124 303.806 214.961C303.04 215.354 302.614 215.354 301.847 214.961C300.254 214.123 297.769 211.576 296.942 209.935C296.805 209.661 296.661 209.44 296.627 209.44C296.593 209.448 296.381 209.525 296.142 209.619Z" fill="white"/>
<path d="M250.583 252.54C255.144 252.469 259.717 252.399 264.278 252.34C265.214 252.328 265.144 253.784 264.208 253.807C259.647 253.878 255.074 253.948 250.513 254.007C249.565 254.019 249.647 252.551 250.583 252.54Z" fill="#49B3F7"/>
<path d="M248.968 255.921C254.967 255.956 260.956 256.003 266.955 256.038C267.891 256.05 267.821 257.506 266.885 257.506C260.885 257.471 254.897 257.424 248.897 257.388C247.95 257.377 248.02 255.909 248.968 255.921Z" fill="#49B3F7"/>
<path d="M249.309 260.288C254.618 259.572 259.987 259.407 265.331 259.806C266.267 259.877 266.197 261.344 265.261 261.274C260.045 260.886 254.806 261.027 249.624 261.72C248.701 261.849 248.373 260.417 249.309 260.288Z" fill="#49B3F7"/>
<path d="M252.406 275.573C252.278 275.561 252.137 275.503 252.032 275.409C251.798 275.221 251.716 274.904 251.822 274.622C252.582 272.521 253.12 270.337 253.436 268.13C250.979 267.743 248.243 267.144 245.833 265.817C242.921 264.232 240.898 261.755 240.255 259.032C239.67 256.507 240.091 254.171 241.53 252.105C244.325 248.043 250.325 245.942 254.605 245.378C260.324 244.627 265.961 245.096 268.991 245.906L269.201 245.965C271.903 246.681 274.71 247.421 276.733 249.769C278.967 252.363 279.271 256.519 277.47 259.889C275.984 262.683 273.177 264.96 269.552 266.322C266.511 267.461 263.295 267.872 260.16 268.247C259.073 271.546 255.962 273.636 252.851 275.491C252.71 275.55 252.547 275.585 252.406 275.573ZM254.769 246.787C250.465 247.35 245.05 249.463 242.676 252.915C241.483 254.653 241.132 256.601 241.623 258.715C242.173 261.039 243.939 263.176 246.5 264.573C248.933 265.899 251.705 266.439 254.324 266.827C254.699 266.886 254.968 267.226 254.921 267.613C254.699 269.515 254.313 271.405 253.763 273.249C256.161 271.699 258.277 269.903 258.932 267.414C259.003 267.132 259.248 266.921 259.541 266.886C262.733 266.51 266.032 266.123 269.061 264.995C272.359 263.763 274.908 261.708 276.23 259.231C277.75 256.367 277.528 252.856 275.669 250.708C273.926 248.689 271.458 248.043 268.85 247.35L268.64 247.292C265.809 246.529 260.277 246.059 254.769 246.787Z" fill="#49B3F7"/>
<path d="M322.388 181.233C322.645 181.397 322.988 181.414 323.284 181.282C323.312 181.266 326.79 179.737 332.688 180.452C335.08 180.74 337.443 181.356 339.711 182.293L349.678 186.387C352.098 187.381 354.995 186.493 356.148 184.406L363.523 171.057C364.086 170.045 364.152 168.911 363.714 167.859C363.285 166.807 362.399 165.96 361.227 165.475L334.318 154.411C333.146 153.926 331.831 153.869 330.611 154.247C329.392 154.617 328.41 155.381 327.848 156.392L320.473 169.741C319.32 171.829 320.349 174.328 322.769 175.323L324.484 176.03L322.112 180.32C321.95 180.608 322.026 180.945 322.293 181.159C322.321 181.183 322.35 181.208 322.388 181.233ZM360.989 167.053C361.503 167.374 361.894 167.826 362.113 168.352C362.399 169.034 362.351 169.774 361.989 170.432L354.614 183.781C353.861 185.137 351.975 185.713 350.402 185.071L340.435 180.978C338.005 179.975 335.471 179.318 332.917 179.005C329.153 178.553 326.295 178.931 324.532 179.35L326.047 176.613C326.428 175.914 326.085 175.076 325.275 174.747L323.493 174.016C321.921 173.366 321.254 171.739 321.997 170.382L329.372 157.033C329.735 156.376 330.373 155.883 331.173 155.636C331.964 155.389 332.822 155.43 333.584 155.743L360.493 166.807C360.674 166.873 360.836 166.955 360.989 167.053Z" fill="#F7A845"/>
<path d="M358.321 170.573L332.193 159.829C331.812 159.673 331.65 159.279 331.831 158.942C332.012 158.613 332.47 158.473 332.86 158.629L358.988 169.373C359.369 169.529 359.531 169.924 359.35 170.261C359.169 170.589 358.702 170.729 358.321 170.573Z" fill="#F7A845"/>
<path d="M340.093 166.66L330.584 162.747C330.202 162.591 330.04 162.197 330.221 161.86C330.403 161.531 330.86 161.391 331.251 161.547L340.76 165.46C341.141 165.616 341.303 166.011 341.122 166.348C340.941 166.677 340.484 166.825 340.093 166.66Z" fill="#F7A845"/>
<path d="M346.694 169.373L342.635 167.704C342.254 167.548 342.092 167.154 342.273 166.817C342.454 166.488 342.911 166.348 343.302 166.504L347.361 168.173C347.742 168.329 347.904 168.724 347.723 169.061C347.533 169.39 347.075 169.538 346.694 169.373Z" fill="#F7A845"/>
<path d="M356.708 173.492L349.285 170.443C348.904 170.287 348.742 169.892 348.923 169.555C349.104 169.226 349.562 169.086 349.952 169.243L357.375 172.292C357.756 172.448 357.918 172.843 357.737 173.18C357.547 173.509 357.089 173.649 356.708 173.492Z" fill="#F7A845"/>
<path d="M333.279 167.441L328.972 165.674C328.591 165.518 328.429 165.123 328.61 164.786C328.791 164.458 329.248 164.318 329.639 164.474L333.946 166.241C334.327 166.398 334.489 166.792 334.308 167.129C334.117 167.458 333.66 167.598 333.279 167.441Z" fill="#F7A845"/>
<path d="M349.631 174.165L336.386 168.715C336.005 168.559 335.843 168.164 336.024 167.827C336.205 167.499 336.662 167.359 337.053 167.515L350.298 172.965C350.679 173.121 350.841 173.516 350.66 173.853C350.479 174.181 350.012 174.329 349.631 174.165Z" fill="#F7A845"/>
<path d="M339.406 173.549L327.352 168.592C326.971 168.436 326.809 168.041 326.99 167.704C327.171 167.376 327.628 167.236 328.019 167.392L340.073 172.349C340.454 172.505 340.616 172.899 340.435 173.236C340.244 173.565 339.787 173.705 339.406 173.549Z" fill="#F7A845"/>
<path d="M348.021 177.092L342.247 174.716C341.866 174.56 341.704 174.165 341.885 173.828C342.066 173.5 342.523 173.36 342.914 173.516L348.688 175.892C349.069 176.048 349.231 176.442 349.05 176.779C348.86 177.108 348.402 177.248 348.021 177.092Z" fill="#F7A845"/>
<path d="M355.09 176.418L352.574 175.382C352.193 175.225 352.031 174.831 352.212 174.494C352.393 174.165 352.85 174.025 353.241 174.181L355.757 175.217C356.138 175.373 356.3 175.768 356.119 176.105C355.938 176.434 355.48 176.574 355.09 176.418Z" fill="#F7A845"/>
<path d="M79.6243 78.4726L92.6049 76.8056C93.4983 76.6904 93.5795 78.0863 92.6929 78.1609L79.7055 79.8347C78.8189 79.9838 78.7377 78.5878 79.6243 78.4726Z" fill="#49B3F7"/>
<path d="M78.4469 81.8456L95.5424 80.0232C96.4358 79.9283 96.517 81.3239 95.6237 81.4188L78.5349 83.2412C77.6415 83.336 77.5265 81.9404 78.4469 81.8456Z" fill="#49B3F7"/>
<path d="M79.2381 85.9437C84.205 84.6958 89.2878 83.967 94.4048 83.769C94.5888 83.7573 94.7699 83.8193 94.9082 83.9412C95.0466 84.0632 95.1309 84.2352 95.1425 84.4194C95.1542 84.6035 95.0923 84.7848 94.9705 84.9233C94.8486 85.0618 94.6768 85.1461 94.4928 85.1578C89.4994 85.3488 84.5392 86.0571 79.6916 87.2715C78.8253 87.4883 78.3651 86.1672 79.2381 85.9437Z" fill="#49B3F7"/>
<path d="M83.8209 100.079C83.6889 100.08 83.5596 100.042 83.4487 99.9702C83.3314 99.8942 83.2404 99.7838 83.1883 99.654C83.1362 99.5242 83.1255 99.3815 83.1577 99.2454C83.6574 97.172 83.9365 95.0514 83.9901 92.9191C81.45 92.8911 78.9329 92.4331 76.5455 91.5645C75.1905 91.0702 73.9545 90.2962 72.9179 89.2926C71.8814 88.289 71.0674 87.0784 70.5289 85.7394C70.1134 84.6579 69.9392 83.4984 70.0187 82.3424C70.0982 81.1864 70.4294 80.0618 70.9891 79.0474C73.2157 74.8953 78.6774 72.274 82.6839 71.2716C88.0373 69.9169 93.4312 69.7882 96.4023 70.2217H96.6121C99.2583 70.6078 102.026 71.0074 104.172 73.0123C106.568 75.2272 107.305 79.1083 105.958 82.495C104.849 85.2924 102.426 87.7579 99.1298 89.4309C96.3428 90.7409 93.4064 91.7053 90.3857 92.3028C89.7089 95.5404 87.0018 97.8501 84.2135 99.9431C84.1 100.028 83.9627 100.076 83.8209 100.079ZM82.9817 72.5721C78.9548 73.5745 74.0414 76.1552 72.1532 79.6705C71.6862 80.5202 71.4104 81.4618 71.3449 82.4293C71.2794 83.3969 71.4259 84.3671 71.7742 85.2721C72.2492 86.4338 72.9627 87.4827 73.8686 88.3508C74.7745 89.2189 75.8525 89.8869 77.0328 90.3114C79.493 91.19 82.0887 91.6279 84.7007 91.6051C84.8802 91.6051 85.0524 91.6765 85.1793 91.8035C85.3062 91.9305 85.3775 92.1028 85.3775 92.2824C85.3665 94.1132 85.1989 95.9396 84.8767 97.7417C86.9883 96.0145 88.8088 94.0909 89.1607 91.6457C89.1802 91.5112 89.2397 91.3856 89.3314 91.2854C89.4231 91.1851 89.5429 91.1148 89.6751 91.0836C92.6665 90.4062 95.7661 89.6679 98.5071 88.2659C101.512 86.7419 103.705 84.527 104.7 82.0344C105.837 79.1557 105.241 75.8639 103.251 74.0216C101.383 72.3011 98.9673 71.9489 96.4091 71.5764H96.2061C93.438 71.1497 88.132 71.2987 82.9817 72.5721Z" fill="#49B3F7"/>
<g clip-path="url(#clip0_4707_1994)">
<path d="M125.11 112.411L125.005 121.138L123.948 121.125L124.042 113.336L119.644 113.283L119.551 121.073L118.494 121.06L118.599 112.333L125.11 112.411ZM126.971 123.616L127.079 114.617L128.05 114.629L128.038 115.668L128.157 115.67C128.232 115.557 128.336 115.414 128.469 115.239C128.605 115.062 128.797 114.905 129.046 114.769C129.298 114.63 129.636 114.563 130.063 114.568C130.614 114.574 131.098 114.718 131.515 114.999C131.932 115.279 132.255 115.674 132.485 116.182C132.715 116.691 132.826 117.289 132.817 117.976C132.809 118.669 132.684 119.269 132.442 119.774C132.2 120.277 131.869 120.665 131.448 120.939C131.027 121.209 130.544 121.341 129.998 121.334C129.578 121.329 129.242 121.256 128.991 121.114C128.74 120.968 128.547 120.806 128.413 120.625C128.279 120.442 128.176 120.29 128.103 120.17L128.018 120.169L127.976 123.629L126.971 123.616ZM128.028 117.901C128.022 118.396 128.089 118.833 128.23 119.212C128.37 119.589 128.578 119.886 128.854 120.102C129.13 120.315 129.469 120.425 129.873 120.43C130.293 120.435 130.645 120.328 130.929 120.11C131.216 119.889 131.433 119.59 131.579 119.214C131.729 118.835 131.806 118.413 131.812 117.947C131.817 117.487 131.751 117.071 131.614 116.7C131.479 116.326 131.271 116.03 130.989 115.81C130.711 115.588 130.359 115.475 129.932 115.47C129.523 115.465 129.178 115.564 128.898 115.768C128.617 115.969 128.403 116.254 128.257 116.621C128.11 116.986 128.034 117.413 128.028 117.901ZM135.336 119.779L138.55 114.755L139.709 114.769L139.63 121.314L138.624 121.302L138.685 116.24L135.488 121.264L134.312 121.25L134.391 114.705L135.396 114.717L135.336 119.779ZM141.472 121.336L141.55 114.791L144.226 114.823C144.931 114.832 145.489 114.997 145.9 115.321C146.31 115.644 146.513 116.067 146.506 116.589C146.502 116.987 146.38 117.294 146.142 117.51C145.903 117.723 145.599 117.865 145.229 117.938C145.47 117.975 145.703 118.063 145.929 118.202C146.157 118.341 146.345 118.531 146.493 118.771C146.641 119.009 146.713 119.299 146.708 119.643C146.704 119.978 146.616 120.277 146.442 120.539C146.268 120.801 146.022 121.007 145.702 121.157C145.382 121.306 145 121.378 144.557 121.373L141.472 121.336ZM142.437 120.427L144.568 120.453C144.914 120.457 145.187 120.378 145.385 120.215C145.583 120.053 145.683 119.83 145.687 119.546C145.691 119.208 145.596 118.941 145.402 118.745C145.209 118.547 144.939 118.446 144.592 118.441L142.462 118.416L142.437 120.427ZM142.472 117.547L144.193 117.567C144.463 117.571 144.695 117.536 144.889 117.465C145.083 117.39 145.232 117.284 145.336 117.146C145.443 117.006 145.498 116.839 145.5 116.645C145.503 116.37 145.391 116.153 145.163 115.994C144.934 115.832 144.619 115.748 144.215 115.744L142.494 115.723L142.472 117.547ZM148.21 121.417L148.288 114.872L149.294 114.884L149.215 121.429L148.21 121.417ZM148.813 113.787C148.617 113.785 148.448 113.716 148.308 113.581C148.17 113.446 148.103 113.284 148.105 113.097C148.107 112.909 148.179 112.75 148.32 112.618C148.463 112.486 148.633 112.421 148.829 112.424C149.025 112.426 149.192 112.495 149.329 112.63C149.47 112.765 149.539 112.927 149.537 113.114C149.534 113.302 149.462 113.461 149.318 113.593C149.177 113.725 149.009 113.79 148.813 113.787ZM150.749 115.839L150.761 114.902L156.079 114.966L156.067 115.903L153.92 115.877L153.852 121.485L152.847 121.473L152.914 115.865L150.749 115.839ZM157.891 120.34L157.818 120.799C157.765 121.123 157.687 121.468 157.583 121.836C157.482 122.205 157.377 122.551 157.268 122.877C157.159 123.202 157.07 123.461 156.999 123.653L156.232 123.644C156.271 123.463 156.322 123.223 156.386 122.926C156.449 122.628 156.513 122.295 156.577 121.927C156.643 121.561 156.699 121.187 156.744 120.804L156.8 120.327L157.891 120.34ZM167.54 117.916L167.529 118.853L163.915 118.81L163.927 117.873L167.54 117.916ZM164.199 115.063L164.12 121.608L163.115 121.596L163.193 115.051L164.199 115.063ZM168.341 115.113L168.262 121.658L167.257 121.646L167.335 115.101L168.341 115.113ZM172.841 121.849C172.21 121.842 171.668 121.696 171.214 121.412C170.763 121.125 170.417 120.729 170.176 120.223C169.938 119.715 169.823 119.125 169.831 118.455C169.839 117.784 169.968 117.195 170.218 116.687C170.472 116.176 170.82 115.779 171.264 115.497C171.711 115.213 172.229 115.074 172.82 115.081C173.161 115.086 173.497 115.146 173.828 115.264C174.159 115.382 174.459 115.57 174.729 115.829C174.999 116.085 175.212 116.423 175.369 116.842C175.526 117.262 175.6 117.777 175.593 118.388L175.588 118.814L170.543 118.753L170.553 117.884L174.576 117.932C174.58 117.563 174.51 117.233 174.366 116.941C174.225 116.65 174.02 116.418 173.752 116.248C173.487 116.077 173.173 115.989 172.809 115.985C172.409 115.98 172.061 116.075 171.766 116.271C171.474 116.463 171.248 116.716 171.088 117.03C170.928 117.343 170.846 117.68 170.841 118.041L170.834 118.62C170.828 119.115 170.909 119.535 171.075 119.88C171.244 120.223 171.481 120.486 171.786 120.669C172.09 120.849 172.446 120.941 172.852 120.946C173.116 120.949 173.355 120.915 173.569 120.844C173.786 120.77 173.973 120.658 174.131 120.51C174.29 120.358 174.413 120.169 174.501 119.943L175.469 120.227C175.363 120.556 175.187 120.843 174.943 121.09C174.698 121.335 174.398 121.524 174.041 121.659C173.684 121.791 173.284 121.855 172.841 121.849ZM184.053 120.484L186.399 115.33L187.354 115.341L184.446 121.852L183.628 121.843L180.928 115.264L181.865 115.275L184.053 120.484ZM181.542 115.272L181.463 121.816L180.457 121.804L180.536 115.259L181.542 115.272ZM186.61 121.878L186.689 115.333L187.694 115.345L187.616 121.89L186.61 121.878ZM192.114 122.081C191.523 122.074 191.006 121.927 190.564 121.64C190.124 121.354 189.782 120.956 189.538 120.448C189.297 119.939 189.181 119.347 189.189 118.67C189.197 117.989 189.328 117.395 189.581 116.89C189.837 116.384 190.188 115.993 190.635 115.717C191.084 115.442 191.604 115.307 192.195 115.314C192.786 115.321 193.301 115.468 193.741 115.755C194.184 116.041 194.526 116.44 194.767 116.952C195.01 117.463 195.128 118.06 195.12 118.742C195.112 119.418 194.98 120.007 194.724 120.51C194.471 121.012 194.119 121.402 193.67 121.678C193.223 121.954 192.705 122.088 192.114 122.081ZM192.125 121.177C192.574 121.183 192.944 121.072 193.237 120.846C193.529 120.619 193.747 120.319 193.891 119.946C194.035 119.572 194.109 119.167 194.115 118.73C194.12 118.292 194.055 117.884 193.92 117.504C193.786 117.125 193.575 116.817 193.288 116.58C193.001 116.344 192.633 116.223 192.184 116.218C191.736 116.212 191.365 116.324 191.072 116.554C190.78 116.783 190.562 117.086 190.418 117.462C190.274 117.838 190.2 118.245 190.194 118.683C190.189 119.12 190.254 119.527 190.388 119.904C190.523 120.28 190.734 120.585 191.021 120.819C191.308 121.053 191.676 121.172 192.125 121.177ZM195.938 121.99L198.637 118.699L196.05 115.446L197.244 115.46L199.392 118.282L199.937 118.288L199.971 115.493L200.976 115.505L200.943 118.3L201.471 118.307L203.686 115.538L204.879 115.552L202.233 118.742L204.835 122.097L203.625 122.083L201.443 119.244L200.931 119.238L200.898 122.05L199.892 122.038L199.926 119.226L199.414 119.219L197.148 122.005L195.938 121.99ZM206.89 124.577C206.72 124.575 206.568 124.559 206.435 124.529C206.301 124.501 206.209 124.475 206.159 124.449L206.425 123.565C206.668 123.631 206.884 123.656 207.072 123.641C207.259 123.627 207.427 123.545 207.573 123.396C207.723 123.25 207.861 123.012 207.987 122.681L208.18 122.172L205.839 115.563L206.93 115.577L208.674 120.814L208.742 120.815L210.612 115.621L211.702 115.634L208.834 123.1C208.705 123.437 208.547 123.714 208.359 123.934C208.172 124.156 207.956 124.32 207.71 124.425C207.467 124.53 207.194 124.58 206.89 124.577ZM216.296 124.69L216.404 115.69L217.376 115.702L217.363 116.742L217.483 116.743C217.558 116.63 217.662 116.487 217.795 116.312C217.93 116.135 218.123 115.978 218.371 115.842C218.623 115.703 218.962 115.636 219.388 115.641C219.939 115.648 220.423 115.791 220.84 116.072C221.258 116.352 221.581 116.747 221.811 117.255C222.04 117.764 222.151 118.362 222.143 119.049C222.135 119.742 222.009 120.342 221.768 120.848C221.526 121.35 221.194 121.738 220.773 122.012C220.352 122.282 219.869 122.414 219.324 122.408C218.904 122.403 218.568 122.329 218.317 122.187C218.065 122.042 217.873 121.879 217.739 121.698C217.604 121.515 217.501 121.363 217.429 121.243L217.343 121.242L217.302 124.702L216.296 124.69ZM217.354 118.975C217.348 119.469 217.415 119.906 217.555 120.286C217.696 120.662 217.904 120.959 218.18 121.175C218.455 121.389 218.795 121.498 219.198 121.503C219.619 121.508 219.971 121.401 220.255 121.183C220.542 120.962 220.758 120.664 220.905 120.287C221.054 119.909 221.132 119.486 221.137 119.02C221.143 118.56 221.077 118.144 220.939 117.773C220.805 117.4 220.597 117.103 220.315 116.884C220.036 116.662 219.684 116.548 219.258 116.543C218.849 116.538 218.504 116.638 218.223 116.842C217.942 117.043 217.729 117.327 217.582 117.695C217.436 118.06 217.36 118.486 217.354 118.975ZM226.295 122.492C225.704 122.484 225.187 122.338 224.745 122.051C224.305 121.764 223.963 121.367 223.719 120.858C223.478 120.35 223.362 119.757 223.37 119.081C223.378 118.399 223.509 117.806 223.762 117.3C224.018 116.795 224.369 116.404 224.816 116.128C225.265 115.852 225.785 115.718 226.376 115.725C226.967 115.732 227.483 115.879 227.922 116.165C228.365 116.452 228.707 116.851 228.948 117.363C229.192 117.874 229.309 118.471 229.301 119.152C229.293 119.829 229.161 120.418 228.905 120.921C228.652 121.423 228.3 121.812 227.851 122.088C227.405 122.364 226.886 122.499 226.295 122.492ZM226.306 121.588C226.755 121.594 227.125 121.483 227.418 121.256C227.71 121.03 227.929 120.73 228.072 120.356C228.216 119.983 228.29 119.578 228.296 119.14C228.301 118.703 228.236 118.294 228.102 117.915C227.967 117.535 227.756 117.227 227.469 116.991C227.182 116.755 226.814 116.634 226.365 116.628C225.917 116.623 225.546 116.735 225.253 116.964C224.961 117.194 224.743 117.497 224.599 117.873C224.455 118.249 224.381 118.656 224.375 119.093C224.37 119.531 224.435 119.938 224.57 120.314C224.704 120.691 224.915 120.996 225.202 121.23C225.489 121.463 225.857 121.583 226.306 121.588ZM230.408 120.734L231.482 120.747C231.501 121.043 231.632 121.269 231.875 121.425C232.12 121.581 232.44 121.662 232.835 121.667C233.238 121.672 233.584 121.593 233.873 121.432C234.162 121.268 234.309 121 234.313 120.628C234.316 120.409 234.264 120.218 234.158 120.055C234.052 119.889 233.902 119.759 233.707 119.666C233.512 119.572 233.281 119.524 233.014 119.521L231.889 119.507L231.9 118.604L233.025 118.618C233.425 118.622 233.722 118.535 233.915 118.356C234.11 118.176 234.209 117.95 234.212 117.677C234.216 117.385 234.115 117.149 233.91 116.97C233.705 116.789 233.412 116.696 233.031 116.691C232.648 116.687 232.327 116.77 232.069 116.94C231.811 117.107 231.674 117.326 231.656 117.595L230.6 117.583C230.615 117.231 230.727 116.921 230.935 116.653C231.143 116.383 231.423 116.173 231.778 116.024C232.132 115.872 232.536 115.799 232.991 115.804C233.451 115.81 233.849 115.896 234.185 116.062C234.524 116.225 234.784 116.445 234.965 116.723C235.15 116.998 235.24 117.309 235.236 117.655C235.231 118.025 235.124 118.322 234.914 118.547C234.704 118.771 234.442 118.93 234.128 119.023L234.127 119.091C234.374 119.111 234.588 119.193 234.768 119.337C234.951 119.479 235.092 119.664 235.192 119.892C235.291 120.118 235.339 120.367 235.336 120.64C235.331 121.038 235.221 121.383 235.004 121.676C234.787 121.966 234.492 122.189 234.118 122.347C233.744 122.501 233.318 122.576 232.841 122.57C232.378 122.565 231.964 122.484 231.6 122.329C231.235 122.172 230.946 121.956 230.734 121.684C230.524 121.409 230.415 121.092 230.408 120.734ZM236.727 122.481L236.805 115.936L237.811 115.948L237.732 122.493L236.727 122.481ZM237.33 114.851C237.134 114.848 236.965 114.78 236.825 114.644C236.687 114.509 236.62 114.348 236.622 114.16C236.624 113.973 236.696 113.813 236.837 113.681C236.98 113.55 237.15 113.485 237.346 113.487C237.542 113.49 237.709 113.558 237.847 113.694C237.987 113.829 238.056 113.99 238.054 114.178C238.052 114.365 237.979 114.525 237.835 114.657C237.694 114.788 237.526 114.853 237.33 114.851ZM244.54 113.574L245.044 114.193C244.843 114.384 244.611 114.516 244.349 114.59C244.086 114.664 243.79 114.707 243.461 114.72C243.131 114.733 242.764 114.746 242.361 114.758C241.906 114.769 241.528 114.876 241.228 115.077C240.927 115.278 240.693 115.57 240.527 115.955C240.36 116.339 240.251 116.812 240.198 117.374L240.284 117.375C240.51 116.969 240.821 116.671 241.215 116.483C241.609 116.294 242.031 116.203 242.48 116.208C242.991 116.214 243.45 116.339 243.856 116.583C244.262 116.826 244.582 117.184 244.815 117.655C245.048 118.127 245.16 118.707 245.152 119.394C245.144 120.079 245.014 120.668 244.764 121.162C244.517 121.656 244.173 122.036 243.732 122.3C243.294 122.562 242.782 122.69 242.197 122.683C241.612 122.676 241.101 122.532 240.664 122.251C240.227 121.967 239.89 121.551 239.652 121.003C239.414 120.452 239.3 119.773 239.31 118.966L239.318 118.267C239.336 116.81 239.596 115.708 240.1 114.961C240.606 114.214 241.358 113.834 242.355 113.82C242.707 113.813 243.021 113.814 243.297 113.823C243.572 113.832 243.812 113.822 244.017 113.793C244.222 113.765 244.396 113.691 244.54 113.574ZM242.208 121.779C242.603 121.784 242.944 121.689 243.23 121.493C243.519 121.298 243.743 121.021 243.901 120.662C244.058 120.3 244.14 119.873 244.146 119.382C244.152 118.905 244.079 118.498 243.926 118.16C243.777 117.823 243.56 117.565 243.275 117.386C242.99 117.206 242.648 117.114 242.247 117.109C241.955 117.105 241.691 117.152 241.457 117.249C241.223 117.345 241.022 117.489 240.855 117.68C240.688 117.872 240.558 118.106 240.463 118.383C240.372 118.66 240.321 118.978 240.311 119.336C240.302 120.069 240.467 120.657 240.806 121.102C241.144 121.546 241.612 121.772 242.208 121.779ZM246.622 125.054L246.73 116.055L247.702 116.066L247.689 117.106L247.809 117.108C247.884 116.995 247.988 116.851 248.121 116.677C248.256 116.499 248.449 116.342 248.697 116.206C248.949 116.067 249.288 116 249.714 116.005C250.265 116.012 250.749 116.156 251.166 116.436C251.584 116.717 251.907 117.111 252.137 117.62C252.366 118.128 252.477 118.726 252.469 119.414C252.46 120.107 252.335 120.706 252.093 121.212C251.852 121.715 251.52 122.103 251.099 122.376C250.678 122.647 250.195 122.779 249.65 122.772C249.229 122.767 248.894 122.693 248.642 122.551C248.391 122.406 248.199 122.243 248.065 122.063C247.93 121.879 247.827 121.727 247.755 121.607L247.669 121.606L247.628 125.066L246.622 125.054ZM247.68 119.339C247.674 119.833 247.741 120.27 247.881 120.65C248.022 121.027 248.23 121.323 248.505 121.54C248.781 121.753 249.121 121.862 249.524 121.867C249.945 121.872 250.297 121.766 250.581 121.547C250.868 121.326 251.084 121.028 251.231 120.652C251.38 120.273 251.458 119.85 251.463 119.385C251.469 118.924 251.403 118.509 251.265 118.138C251.131 117.764 250.922 117.467 250.641 117.248C250.362 117.026 250.01 116.912 249.584 116.907C249.175 116.902 248.83 117.002 248.549 117.206C248.268 117.407 248.055 117.692 247.908 118.059C247.762 118.424 247.685 118.851 247.68 119.339ZM255.888 122.864C255.473 122.859 255.098 122.777 254.761 122.616C254.425 122.453 254.16 122.221 253.964 121.921C253.769 121.617 253.674 121.252 253.679 120.826C253.684 120.451 253.761 120.148 253.912 119.917C254.062 119.683 254.262 119.501 254.511 119.37C254.759 119.24 255.033 119.143 255.332 119.082C255.634 119.017 255.938 118.967 256.242 118.931C256.64 118.884 256.963 118.85 257.211 118.827C257.461 118.802 257.643 118.757 257.758 118.693C257.875 118.629 257.935 118.516 257.936 118.354L257.937 118.32C257.942 117.9 257.831 117.572 257.604 117.336C257.379 117.1 257.035 116.98 256.572 116.974C256.092 116.968 255.715 117.069 255.439 117.276C255.164 117.483 254.97 117.705 254.856 117.942L253.906 117.59C254.081 117.194 254.312 116.887 254.599 116.669C254.888 116.448 255.203 116.296 255.542 116.212C255.884 116.125 256.219 116.084 256.549 116.088C256.759 116.09 257 116.119 257.272 116.173C257.547 116.225 257.812 116.329 258.065 116.485C258.322 116.642 258.534 116.876 258.701 117.187C258.867 117.499 258.948 117.915 258.941 118.435L258.889 122.747L257.884 122.735L257.895 121.848L257.843 121.848C257.773 121.989 257.658 122.14 257.497 122.3C257.336 122.46 257.123 122.595 256.857 122.705C256.592 122.816 256.268 122.869 255.888 122.864ZM256.052 121.963C256.45 121.967 256.786 121.893 257.061 121.74C257.338 121.587 257.548 121.388 257.69 121.143C257.835 120.897 257.909 120.638 257.912 120.366L257.923 119.445C257.88 119.496 257.786 119.542 257.64 119.582C257.498 119.62 257.333 119.654 257.145 119.683C256.96 119.709 256.779 119.733 256.603 119.753C256.429 119.771 256.288 119.786 256.18 119.799C255.919 119.83 255.674 119.883 255.445 119.957C255.22 120.028 255.037 120.138 254.896 120.287C254.758 120.433 254.687 120.634 254.684 120.889C254.68 121.239 254.806 121.504 255.062 121.687C255.322 121.866 255.652 121.958 256.052 121.963ZM259.902 117.151L259.913 116.213L265.231 116.277L265.22 117.215L263.072 117.189L263.005 122.796L261.999 122.784L262.066 117.177L259.902 117.151ZM267.642 121.369L270.856 116.345L272.015 116.359L271.937 122.904L270.931 122.892L270.992 117.829L267.795 122.854L266.619 122.84L266.698 116.295L267.703 116.307L267.642 121.369ZM276.436 123.094C275.822 123.087 275.296 122.935 274.856 122.64C274.416 122.345 274.08 121.942 273.848 121.431C273.615 120.919 273.503 120.337 273.511 119.684C273.519 119.019 273.648 118.434 273.898 117.928C274.152 117.42 274.5 117.025 274.944 116.743C275.391 116.459 275.909 116.32 276.5 116.327C276.96 116.333 277.374 116.423 277.741 116.598C278.109 116.773 278.408 117.015 278.64 117.325C278.872 117.634 279.014 117.994 279.066 118.404L278.061 118.392C277.988 118.092 277.82 117.826 277.559 117.593C277.3 117.357 276.95 117.236 276.506 117.231C276.114 117.226 275.769 117.324 275.472 117.525C275.176 117.723 274.944 118.006 274.775 118.373C274.609 118.738 274.523 119.167 274.517 119.662C274.511 120.167 274.585 120.609 274.74 120.985C274.897 121.362 275.121 121.656 275.411 121.867C275.704 122.078 276.049 122.186 276.447 122.191C276.708 122.194 276.946 122.151 277.16 122.063C277.374 121.975 277.556 121.846 277.706 121.677C277.856 121.509 277.963 121.305 278.029 121.068L279.034 121.08C278.973 121.465 278.828 121.812 278.6 122.119C278.375 122.423 278.078 122.663 277.709 122.841C277.343 123.015 276.919 123.1 276.436 123.094ZM284.419 123.054L284.486 117.429L282.748 117.408C282.356 117.403 282.046 117.491 281.82 117.67C281.593 117.849 281.478 118.097 281.474 118.416C281.47 118.728 281.568 118.975 281.768 119.156C281.97 119.338 282.249 119.431 282.604 119.435L284.717 119.46L284.706 120.398L282.593 120.372C282.149 120.367 281.768 120.284 281.449 120.124C281.13 119.964 280.886 119.738 280.716 119.446C280.546 119.152 280.464 118.804 280.468 118.403C280.473 118 280.568 117.655 280.754 117.367C280.939 117.08 281.202 116.86 281.541 116.707C281.884 116.555 282.29 116.482 282.759 116.488L285.452 116.52L285.373 123.065L284.419 123.054ZM280.055 123.001L281.952 119.768L283.043 119.781L281.146 123.014L280.055 123.001ZM290.205 121.453L291.279 121.465C291.298 121.761 291.429 121.987 291.671 122.143C291.916 122.3 292.236 122.38 292.631 122.385C293.035 122.39 293.381 122.312 293.67 122.15C293.959 121.986 294.105 121.718 294.11 121.346C294.112 121.127 294.061 120.936 293.955 120.773C293.849 120.607 293.698 120.477 293.503 120.384C293.309 120.291 293.078 120.243 292.811 120.239L291.686 120.226L291.696 119.323L292.821 119.336C293.222 119.341 293.518 119.254 293.711 119.074C293.906 118.895 294.006 118.668 294.009 118.396C294.012 118.103 293.912 117.868 293.706 117.689C293.501 117.507 293.208 117.414 292.827 117.41C292.444 117.405 292.123 117.488 291.866 117.658C291.608 117.826 291.47 118.044 291.453 118.314L290.396 118.301C290.412 117.949 290.523 117.639 290.731 117.372C290.939 117.102 291.22 116.892 291.574 116.743C291.928 116.591 292.332 116.517 292.787 116.523C293.247 116.528 293.645 116.614 293.981 116.78C294.32 116.943 294.581 117.164 294.762 117.442C294.946 117.717 295.036 118.027 295.032 118.374C295.028 118.743 294.92 119.04 294.71 119.265C294.5 119.49 294.238 119.649 293.925 119.741L293.924 119.81C294.171 119.83 294.384 119.912 294.564 120.056C294.747 120.197 294.889 120.382 294.988 120.611C295.088 120.836 295.136 121.086 295.132 121.358C295.128 121.756 295.017 122.101 294.8 122.394C294.584 122.684 294.289 122.908 293.914 123.065C293.54 123.22 293.115 123.294 292.638 123.289C292.174 123.283 291.761 123.203 291.396 123.048C291.031 122.89 290.743 122.675 290.53 122.403C290.32 122.127 290.212 121.811 290.205 121.453ZM117.771 134.382L118.845 134.395C118.864 134.69 118.995 134.916 119.238 135.073C119.483 135.229 119.803 135.31 120.198 135.314C120.601 135.319 120.947 135.241 121.236 135.08C121.525 134.915 121.672 134.647 121.676 134.275C121.679 134.056 121.627 133.866 121.521 133.702C121.415 133.536 121.265 133.407 121.07 133.313C120.875 133.22 120.644 133.172 120.377 133.169L119.252 133.155L119.263 132.252L120.388 132.265C120.789 132.27 121.085 132.183 121.278 132.003C121.473 131.824 121.572 131.598 121.575 131.325C121.579 131.032 121.478 130.797 121.273 130.618C121.068 130.437 120.775 130.344 120.394 130.339C120.011 130.334 119.69 130.417 119.432 130.587C119.175 130.755 119.037 130.973 119.019 131.243L117.963 131.23C117.978 130.878 118.09 130.569 118.298 130.301C118.506 130.031 118.787 129.821 119.141 129.672C119.495 129.52 119.899 129.447 120.354 129.452C120.814 129.458 121.212 129.543 121.548 129.709C121.887 129.873 122.147 130.093 122.328 130.371C122.513 130.646 122.603 130.957 122.599 131.303C122.594 131.672 122.487 131.969 122.277 132.194C122.067 132.419 121.805 132.578 121.491 132.671L121.49 132.739C121.737 132.759 121.951 132.841 122.131 132.985C122.314 133.127 122.455 133.311 122.555 133.54C122.654 133.766 122.702 134.015 122.699 134.288C122.694 134.685 122.584 135.03 122.367 135.323C122.15 135.613 121.855 135.837 121.481 135.995C121.107 136.149 120.681 136.224 120.204 136.218C119.741 136.212 119.327 136.132 118.963 135.977C118.598 135.819 118.309 135.604 118.097 135.332C117.887 135.056 117.779 134.74 117.771 134.382ZM126.014 136.305C125.599 136.3 125.224 136.217 124.887 136.057C124.551 135.894 124.286 135.662 124.09 135.361C123.895 135.058 123.8 134.693 123.805 134.267C123.81 133.892 123.887 133.589 124.038 133.357C124.188 133.123 124.388 132.941 124.637 132.811C124.885 132.68 125.159 132.584 125.458 132.522C125.76 132.458 126.064 132.407 126.368 132.371C126.766 132.325 127.089 132.29 127.337 132.268C127.587 132.242 127.769 132.198 127.884 132.134C128.001 132.07 128.061 131.957 128.063 131.795L128.063 131.761C128.068 131.34 127.957 131.012 127.73 130.777C127.505 130.541 127.161 130.42 126.698 130.415C126.218 130.409 125.841 130.51 125.565 130.717C125.29 130.924 125.096 131.146 124.982 131.383L124.032 131.031C124.207 130.635 124.438 130.328 124.725 130.11C125.014 129.889 125.329 129.736 125.668 129.652C126.01 129.566 126.345 129.524 126.675 129.528C126.885 129.531 127.126 129.559 127.398 129.614C127.673 129.665 127.938 129.769 128.192 129.926C128.448 130.082 128.66 130.316 128.827 130.628C128.993 130.94 129.074 131.355 129.067 131.875L129.015 136.187L128.01 136.175L128.021 135.289L127.969 135.288C127.9 135.43 127.784 135.58 127.623 135.74C127.462 135.9 127.249 136.035 126.983 136.146C126.718 136.256 126.395 136.309 126.014 136.305ZM126.178 135.403C126.576 135.408 126.912 135.334 127.187 135.181C127.464 135.028 127.674 134.829 127.816 134.583C127.961 134.338 128.035 134.079 128.038 133.806L128.049 132.886C128.006 132.936 127.912 132.982 127.766 133.023C127.624 133.061 127.459 133.095 127.271 133.124C127.086 133.15 126.905 133.173 126.729 133.194C126.555 133.212 126.415 133.227 126.306 133.24C126.045 133.271 125.8 133.323 125.571 133.397C125.346 133.468 125.163 133.578 125.022 133.727C124.884 133.873 124.813 134.074 124.81 134.33C124.806 134.679 124.932 134.945 125.188 135.127C125.448 135.306 125.778 135.398 126.178 135.403ZM130.851 136.209L130.93 129.664L133.606 129.697C134.31 129.705 134.868 129.871 135.279 130.194C135.69 130.517 135.892 130.94 135.886 131.463C135.881 131.86 135.759 132.167 135.521 132.383C135.282 132.596 134.978 132.739 134.608 132.811C134.849 132.848 135.082 132.936 135.308 133.075C135.536 133.214 135.724 133.404 135.872 133.645C136.02 133.882 136.092 134.173 136.088 134.517C136.084 134.852 135.995 135.15 135.821 135.413C135.647 135.675 135.401 135.881 135.081 136.03C134.761 136.18 134.379 136.252 133.936 136.247L130.851 136.209ZM131.816 135.301L133.947 135.326C134.294 135.33 134.566 135.251 134.764 135.089C134.962 134.926 135.063 134.703 135.066 134.419C135.07 134.081 134.975 133.814 134.781 133.619C134.588 133.42 134.318 133.319 133.971 133.315L131.841 133.289L131.816 135.301ZM131.851 132.42L133.573 132.441C133.842 132.444 134.074 132.41 134.268 132.338C134.463 132.264 134.612 132.158 134.715 132.02C134.822 131.879 134.877 131.712 134.879 131.519C134.882 131.243 134.77 131.026 134.542 130.867C134.314 130.705 133.998 130.622 133.594 130.617L131.873 130.596L131.851 132.42ZM136.867 138.157L136.901 135.345L137.447 135.351C137.582 135.214 137.699 135.064 137.797 134.904C137.896 134.743 137.982 134.552 138.055 134.331C138.132 134.108 138.198 133.836 138.253 133.516C138.308 133.192 138.358 132.802 138.403 132.345L138.656 129.757L142.815 129.807L142.747 135.415L143.753 135.427L143.719 138.239L142.714 138.227L142.736 136.352L137.896 136.294L137.873 138.169L136.867 138.157ZM138.589 135.365L141.742 135.403L141.798 130.733L139.582 130.706L139.392 132.357C139.313 133.041 139.217 133.638 139.106 134.148C138.995 134.658 138.822 135.064 138.589 135.365ZM147.001 136.557C146.586 136.552 146.21 136.469 145.874 136.309C145.538 136.146 145.272 135.914 145.077 135.613C144.882 135.31 144.787 134.945 144.792 134.519C144.797 134.144 144.874 133.841 145.025 133.61C145.175 133.376 145.375 133.193 145.623 133.063C145.872 132.932 146.146 132.836 146.445 132.774C146.747 132.71 147.05 132.66 147.355 132.623C147.753 132.577 148.076 132.543 148.323 132.52C148.574 132.495 148.756 132.45 148.87 132.386C148.988 132.322 149.047 132.209 149.049 132.047L149.05 132.013C149.055 131.593 148.944 131.265 148.716 131.029C148.492 130.793 148.148 130.673 147.685 130.667C147.205 130.661 146.827 130.762 146.552 130.969C146.277 131.176 146.082 131.398 145.969 131.635L145.018 131.283C145.194 130.887 145.425 130.58 145.711 130.362C146.001 130.141 146.315 129.989 146.654 129.905C146.996 129.818 147.332 129.776 147.662 129.78C147.872 129.783 148.113 129.811 148.385 129.866C148.66 129.917 148.924 130.021 149.178 130.178C149.435 130.334 149.647 130.568 149.813 130.88C149.98 131.192 150.06 131.608 150.054 132.127L150.002 136.44L148.997 136.427L149.007 135.541L148.956 135.541C148.886 135.682 148.771 135.832 148.61 135.992C148.449 136.152 148.235 136.288 147.97 136.398C147.704 136.509 147.381 136.561 147.001 136.557ZM147.165 135.655C147.563 135.66 147.899 135.586 148.173 135.433C148.451 135.28 148.661 135.081 148.803 134.836C148.948 134.59 149.022 134.331 149.025 134.058L149.036 133.138C148.993 133.189 148.899 133.234 148.753 133.275C148.611 133.313 148.446 133.347 148.258 133.376C148.073 133.402 147.892 133.425 147.716 133.446C147.542 133.464 147.401 133.479 147.293 133.492C147.031 133.523 146.786 133.575 146.558 133.649C146.333 133.721 146.15 133.831 146.009 133.979C145.871 134.126 145.8 134.326 145.797 134.582C145.793 134.931 145.919 135.197 146.175 135.379C146.434 135.559 146.764 135.651 147.165 135.655ZM156.263 132.782L156.252 133.719L152.638 133.676L152.65 132.738L156.263 132.782ZM152.922 129.929L152.843 136.474L151.838 136.462L151.916 129.917L152.922 129.929ZM157.064 129.978L156.985 136.523L155.979 136.511L156.058 129.966L157.064 129.978ZM163.247 132.865L163.236 133.803L159.622 133.759L159.633 132.822L163.247 132.865ZM159.906 130.013L159.827 136.558L158.822 136.546L158.9 130.001L159.906 130.013ZM164.048 130.062L163.969 136.607L162.963 136.595L163.042 130.05L164.048 130.062ZM169.743 136.677L169.81 131.052L168.072 131.031C167.68 131.027 167.37 131.114 167.144 131.293C166.917 131.472 166.802 131.721 166.798 132.039C166.794 132.351 166.892 132.598 167.092 132.78C167.294 132.961 167.573 133.054 167.928 133.058L170.042 133.083L170.03 134.021L167.917 133.996C167.474 133.99 167.093 133.907 166.773 133.747C166.454 133.587 166.21 133.361 166.04 133.07C165.87 132.775 165.788 132.427 165.793 132.027C165.797 131.623 165.892 131.278 166.078 130.99C166.263 130.703 166.526 130.483 166.866 130.331C167.208 130.179 167.614 130.105 168.083 130.111L170.776 130.143L170.697 136.688L169.743 136.677ZM165.379 136.624L167.276 133.391L168.367 133.404L166.47 136.637L165.379 136.624ZM176.139 135.39L178.485 130.236L179.44 130.247L176.532 136.758L175.713 136.748L173.014 130.17L173.951 130.181L176.139 135.39ZM173.627 130.178L173.549 136.722L172.543 136.71L172.622 130.165L173.627 130.178ZM178.696 136.784L178.775 130.239L179.78 130.251L179.702 136.796L178.696 136.784ZM185.054 136.861L185.159 128.134L186.181 128.146L190.021 134.892L190.106 134.893L190.187 128.194L191.226 128.207L191.121 136.934L190.099 136.921L186.276 130.227L186.19 130.226L186.11 136.873L185.054 136.861ZM192.227 134.305L192.237 133.435L195.953 133.48L195.943 134.349L192.227 134.305ZM194.104 132.708C193.684 132.703 193.321 132.615 193.016 132.443C192.714 132.272 192.482 132.035 192.318 131.732C192.156 131.429 192.078 131.075 192.083 130.672L192.09 130.092C192.095 129.689 192.182 129.338 192.35 129.039C192.518 128.74 192.755 128.508 193.061 128.344C193.367 128.18 193.728 128.101 194.142 128.106C194.563 128.111 194.923 128.199 195.222 128.37C195.524 128.541 195.754 128.778 195.912 129.082C196.073 129.385 196.151 129.738 196.147 130.141L196.14 130.721C196.135 131.124 196.05 131.475 195.884 131.775C195.719 132.074 195.484 132.305 195.181 132.469C194.878 132.633 194.519 132.713 194.104 132.708ZM194.114 131.856C194.447 131.86 194.695 131.757 194.86 131.549C195.027 131.338 195.113 131.058 195.117 130.708L195.124 130.129C195.128 129.788 195.049 129.512 194.887 129.299C194.724 129.087 194.473 128.979 194.132 128.975C193.791 128.971 193.537 129.073 193.37 129.281C193.203 129.489 193.117 129.764 193.113 130.105L193.106 130.684C193.102 131.034 193.181 131.316 193.343 131.531C193.508 131.743 193.765 131.851 194.114 131.856ZM200.68 137.168C200.18 137.162 199.731 137.057 199.333 136.853C198.934 136.65 198.617 136.373 198.379 136.024C198.142 135.674 198.015 135.278 197.997 134.834L199.02 134.847C199.055 135.242 199.23 135.571 199.545 135.833C199.863 136.093 200.245 136.225 200.691 136.23C201.049 136.235 201.368 136.155 201.648 135.99C201.932 135.826 202.155 135.599 202.317 135.308C202.483 135.015 202.568 134.682 202.572 134.31C202.577 133.929 202.497 133.589 202.333 133.288C202.172 132.985 201.947 132.745 201.66 132.568C201.372 132.392 201.042 132.3 200.67 132.292C200.403 132.286 200.128 132.324 199.846 132.406C199.564 132.485 199.331 132.589 199.148 132.717L198.161 132.586L198.741 128.297L203.274 128.352L203.263 129.289L199.616 129.245L199.278 131.815L199.329 131.816C199.51 131.676 199.736 131.561 200.007 131.47C200.278 131.38 200.559 131.336 200.852 131.34C201.386 131.346 201.86 131.48 202.275 131.741C202.692 131.998 203.018 132.349 203.251 132.792C203.487 133.235 203.602 133.74 203.595 134.305C203.588 134.862 203.457 135.357 203.202 135.792C202.95 136.223 202.605 136.563 202.167 136.811C201.729 137.055 201.234 137.174 200.68 137.168Z" fill="white"/>
</g>
<path d="M36.615 192.149L38.9169 195.747L38.985 195.746L41.1827 192.084L42.4269 192.066L39.7455 196.468L42.5522 200.792L41.308 200.81L39.0071 197.28L38.9389 197.281L36.7403 200.876L35.4961 200.894L38.2456 196.49L35.3708 192.167L36.615 192.149ZM43.791 200.774L43.6971 194.23L46.3729 194.191C47.0774 194.181 47.6393 194.332 48.0586 194.644C48.4779 194.957 48.6913 195.374 48.6988 195.897C48.7045 196.294 48.591 196.604 48.3584 196.826C48.1257 197.046 47.8253 197.196 47.4571 197.278C47.6991 197.309 47.9346 197.391 48.1638 197.524C48.3959 197.657 48.5889 197.842 48.7429 198.078C48.8968 198.312 48.9763 198.6 48.9812 198.944C48.986 199.279 48.9051 199.58 48.7384 199.847C48.5718 200.113 48.3305 200.326 48.0146 200.484C47.6986 200.642 47.3191 200.724 46.8759 200.73L43.791 200.774ZM44.7323 199.84L46.8627 199.81C47.2093 199.805 47.4794 199.719 47.673 199.551C47.8666 199.383 47.9614 199.158 47.9573 198.874C47.9525 198.536 47.8507 198.271 47.6519 198.081C47.4531 197.888 47.1804 197.794 46.8338 197.799L44.7034 197.829L44.7323 199.84ZM44.6909 196.96L46.4123 196.935C46.6822 196.931 46.9132 196.891 47.1053 196.815C47.2973 196.735 47.4435 196.625 47.5438 196.484C47.6468 196.341 47.697 196.172 47.6942 195.979C47.6902 195.704 47.5721 195.49 47.3398 195.337C47.1074 195.181 46.7895 195.106 46.3861 195.112L44.6647 195.136L44.6909 196.96ZM51.5129 199.181L54.5933 194.073L55.7523 194.057L55.8462 200.601L54.8407 200.616L54.768 195.554L51.7046 200.661L50.5286 200.678L50.4347 194.133L51.4402 194.119L51.5129 199.181ZM57.1085 200.583L57.0951 199.646L57.3337 199.642C57.5297 199.64 57.6925 199.599 57.822 199.52C57.9516 199.439 58.0547 199.3 58.1314 199.103C58.2109 198.903 58.2695 198.626 58.307 198.273C58.3474 197.918 58.3736 197.465 58.3856 196.917L58.4633 194.018L62.8265 193.955L62.9204 200.5L61.9149 200.514L61.8344 194.907L59.4312 194.941L59.3625 197.278C59.3474 197.815 59.3059 198.289 59.238 198.699C59.1728 199.106 59.0683 199.449 58.9245 199.726C58.7836 200.004 58.5934 200.214 58.354 200.357C58.1145 200.499 57.813 200.573 57.4494 200.578L57.1085 200.583ZM65.7497 198.976L68.8301 193.869L69.9891 193.852L70.0831 200.397L69.0775 200.411L69.0048 195.35L65.9414 200.457L64.7654 200.473L64.6715 193.929L65.6771 193.914L65.7497 198.976ZM76.2515 196.575L76.2649 197.513L72.6517 197.564L72.6382 196.627L76.2515 196.575ZM72.8365 193.811L72.9304 200.356L71.9248 200.371L71.8309 193.826L72.8365 193.811ZM76.9781 193.752L77.072 200.297L76.0665 200.311L75.9725 193.766L76.9781 193.752ZM78.9085 200.27L78.8145 193.726L79.8201 193.711L79.861 196.557L80.5257 196.548L82.8369 193.668L84.1322 193.649L81.5357 196.84L84.2602 200.194L82.9649 200.212L80.7778 197.482L79.8744 197.495L79.9141 200.256L78.9085 200.27ZM86.036 202.623C85.8656 202.625 85.7134 202.613 85.5795 202.587C85.4456 202.563 85.3529 202.539 85.3014 202.514L85.5444 201.624C85.7896 201.683 86.0058 201.703 86.193 201.683C86.3802 201.663 86.5452 201.577 86.6879 201.424C86.8335 201.275 86.965 201.033 87.0824 200.699L87.2625 200.185L84.7479 193.64L85.8387 193.625L87.7202 198.814L87.7884 198.813L89.5201 193.572L90.6109 193.556L87.9404 201.095C87.8203 201.435 87.6695 201.717 87.488 201.941C87.3066 202.169 87.0945 202.338 86.8518 202.449C86.6119 202.561 86.34 202.619 86.036 202.623ZM93.1047 198.873L93.0432 199.334C92.9995 199.659 92.9307 200.007 92.8365 200.377C92.7453 200.748 92.6494 201.097 92.549 201.426C92.4486 201.754 92.3657 202.015 92.3003 202.209L91.5333 202.22C91.5676 202.038 91.6125 201.797 91.6678 201.498C91.7232 201.199 91.7781 200.864 91.8324 200.494C91.8897 200.127 91.9354 199.751 91.9697 199.367L92.014 198.889L93.1047 198.873ZM97.9266 198.327L99.0003 198.311C99.0273 198.606 99.164 198.829 99.4105 198.979C99.6599 199.129 99.982 199.201 100.377 199.195C100.78 199.189 101.124 199.102 101.409 198.933C101.693 198.761 101.833 198.489 101.827 198.117C101.824 197.899 101.768 197.709 101.657 197.549C101.547 197.386 101.393 197.26 101.196 197.172C100.999 197.084 100.766 197.042 100.499 197.045L99.3745 197.062L99.3615 196.158L100.486 196.142C100.887 196.136 101.181 196.041 101.369 195.857C101.559 195.672 101.653 195.443 101.649 195.171C101.645 194.878 101.537 194.645 101.328 194.472C101.118 194.296 100.822 194.211 100.442 194.216C100.058 194.222 99.7399 194.313 99.4867 194.49C99.2335 194.664 99.1018 194.886 99.0914 195.156L98.0347 195.171C98.041 194.819 98.1445 194.506 98.3452 194.234C98.5458 193.958 98.8211 193.741 99.1711 193.583C99.5211 193.421 99.9234 193.337 100.378 193.331C100.838 193.324 101.238 193.399 101.579 193.557C101.922 193.711 102.188 193.924 102.376 194.197C102.568 194.467 102.666 194.775 102.671 195.122C102.676 195.491 102.577 195.791 102.373 196.021C102.169 196.251 101.911 196.417 101.6 196.518L101.601 196.586C101.848 196.6 102.064 196.676 102.248 196.816C102.434 196.952 102.58 197.133 102.686 197.359C102.791 197.582 102.846 197.83 102.85 198.103C102.856 198.5 102.754 198.848 102.545 199.147C102.337 199.443 102.047 199.674 101.677 199.841C101.308 200.006 100.884 200.091 100.407 200.098C99.9438 200.105 99.528 200.035 99.1594 199.89C98.7907 199.742 98.4965 199.535 98.2768 199.268C98.0598 198.998 97.9431 198.685 97.9266 198.327ZM106.217 200.032C105.802 200.038 105.425 199.965 105.084 199.814C104.744 199.659 104.472 199.435 104.269 199.139C104.066 198.841 103.961 198.479 103.955 198.053C103.95 197.678 104.019 197.373 104.164 197.138C104.308 196.9 104.503 196.712 104.748 196.575C104.993 196.438 105.265 196.335 105.562 196.265C105.862 196.193 106.164 196.134 106.467 196.09C106.864 196.033 107.186 195.991 107.433 195.961C107.682 195.929 107.863 195.88 107.976 195.813C108.092 195.746 108.148 195.631 108.146 195.47L108.145 195.435C108.139 195.015 108.02 194.69 107.786 194.46C107.556 194.231 107.209 194.119 106.746 194.126C106.266 194.133 105.891 194.243 105.621 194.457C105.351 194.672 105.163 194.899 105.056 195.139L104.096 194.812C104.261 194.412 104.484 194.099 104.765 193.873C105.048 193.645 105.359 193.484 105.695 193.391C106.035 193.295 106.369 193.245 106.699 193.24C106.909 193.237 107.151 193.259 107.424 193.306C107.701 193.351 107.968 193.448 108.226 193.597C108.486 193.747 108.704 193.976 108.879 194.283C109.054 194.59 109.145 195.003 109.152 195.523L109.214 199.835L108.209 199.85L108.196 198.964L108.145 198.964C108.079 199.107 107.967 199.261 107.811 199.425C107.654 199.589 107.444 199.73 107.182 199.847C106.919 199.965 106.597 200.026 106.217 200.032ZM106.357 199.126C106.755 199.121 107.089 199.038 107.359 198.878C107.633 198.717 107.837 198.513 107.973 198.264C108.111 198.014 108.179 197.753 108.175 197.481L108.162 196.56C108.12 196.612 108.027 196.66 107.882 196.705C107.741 196.747 107.577 196.785 107.39 196.819C107.205 196.85 107.025 196.878 106.85 196.903C106.677 196.925 106.536 196.945 106.428 196.96C106.168 196.998 105.924 197.057 105.698 197.137C105.475 197.214 105.294 197.329 105.157 197.481C105.023 197.631 104.958 197.834 104.962 198.089C104.967 198.439 105.1 198.701 105.361 198.876C105.625 199.049 105.957 199.132 106.357 199.126ZM111.085 202.263L110.956 193.264L111.927 193.25L111.942 194.29L112.061 194.288C112.134 194.174 112.234 194.027 112.362 193.849C112.493 193.668 112.681 193.507 112.926 193.364C113.174 193.218 113.511 193.142 113.937 193.136C114.488 193.128 114.976 193.259 115.4 193.529C115.825 193.798 116.158 194.184 116.401 194.686C116.644 195.188 116.771 195.783 116.781 196.471C116.791 197.164 116.681 197.766 116.453 198.278C116.225 198.787 115.903 199.184 115.49 199.468C115.076 199.75 114.597 199.894 114.051 199.902C113.631 199.908 113.293 199.844 113.039 199.708C112.784 199.57 112.587 199.412 112.448 199.235C112.309 199.055 112.202 198.906 112.126 198.788L112.041 198.789L112.091 202.249L111.085 202.263ZM111.991 196.522C111.998 197.017 112.077 197.452 112.227 197.827C112.378 198.2 112.593 198.491 112.875 198.7C113.156 198.907 113.499 199.007 113.902 199.001C114.322 198.995 114.672 198.879 114.95 198.653C115.231 198.425 115.439 198.121 115.576 197.741C115.715 197.358 115.782 196.934 115.775 196.468C115.768 196.008 115.691 195.594 115.544 195.227C115.4 194.857 115.184 194.566 114.897 194.354C114.612 194.139 114.257 194.035 113.831 194.041C113.422 194.047 113.08 194.156 112.804 194.367C112.529 194.576 112.323 194.866 112.186 195.237C112.049 195.605 111.984 196.034 111.991 196.522ZM120.29 199.83C119.875 199.836 119.497 199.763 119.157 199.612C118.817 199.457 118.545 199.233 118.342 198.937C118.139 198.639 118.034 198.277 118.028 197.851C118.023 197.476 118.092 197.171 118.236 196.936C118.381 196.698 118.576 196.51 118.821 196.373C119.066 196.236 119.337 196.133 119.635 196.063C119.935 195.991 120.236 195.932 120.54 195.888C120.937 195.831 121.259 195.789 121.505 195.759C121.755 195.727 121.936 195.678 122.049 195.611C122.164 195.544 122.221 195.429 122.219 195.268L122.218 195.233C122.212 194.813 122.092 194.488 121.859 194.258C121.628 194.029 121.282 193.917 120.819 193.924C120.338 193.931 119.964 194.041 119.694 194.255C119.424 194.47 119.236 194.697 119.128 194.937L118.169 194.61C118.334 194.21 118.557 193.897 118.837 193.671C119.121 193.443 119.431 193.282 119.768 193.189C120.108 193.093 120.442 193.043 120.772 193.038C120.982 193.035 121.224 193.057 121.497 193.104C121.773 193.149 122.04 193.246 122.298 193.395C122.559 193.545 122.777 193.774 122.952 194.081C123.127 194.388 123.218 194.801 123.225 195.321L123.287 199.633L122.282 199.648L122.269 198.762L122.218 198.762C122.152 198.905 122.04 199.059 121.883 199.223C121.727 199.387 121.517 199.528 121.254 199.645C120.992 199.763 120.67 199.824 120.29 199.83ZM120.43 198.924C120.828 198.919 121.162 198.836 121.432 198.676C121.706 198.515 121.91 198.311 122.046 198.062C122.184 197.812 122.251 197.551 122.248 197.279L122.234 196.358C122.192 196.41 122.099 196.458 121.955 196.503C121.814 196.545 121.649 196.583 121.462 196.617C121.278 196.648 121.098 196.676 120.922 196.701C120.749 196.723 120.609 196.743 120.501 196.758C120.24 196.796 119.997 196.855 119.771 196.935C119.547 197.012 119.367 197.127 119.23 197.279C119.096 197.429 119.031 197.632 119.034 197.887C119.039 198.237 119.172 198.499 119.433 198.674C119.697 198.847 120.03 198.93 120.43 198.924ZM124.689 197.943L125.763 197.927C125.79 198.222 125.927 198.445 126.173 198.595C126.423 198.745 126.745 198.817 127.14 198.811C127.543 198.805 127.887 198.718 128.172 198.549C128.456 198.377 128.596 198.105 128.59 197.733C128.587 197.514 128.53 197.325 128.42 197.165C128.31 197.001 128.156 196.876 127.959 196.788C127.761 196.7 127.529 196.657 127.262 196.661L126.137 196.677L126.124 195.774L127.249 195.758C127.65 195.752 127.944 195.657 128.132 195.472C128.322 195.288 128.416 195.059 128.412 194.787C128.407 194.494 128.3 194.261 128.09 194.088C127.881 193.912 127.585 193.827 127.205 193.832C126.821 193.838 126.503 193.929 126.25 194.106C125.996 194.28 125.865 194.502 125.854 194.772L124.798 194.787C124.804 194.435 124.907 194.122 125.108 193.85C125.309 193.574 125.584 193.357 125.934 193.198C126.284 193.037 126.686 192.953 127.141 192.947C127.601 192.94 128.001 193.015 128.342 193.172C128.685 193.327 128.951 193.54 129.139 193.813C129.331 194.083 129.429 194.391 129.434 194.738C129.439 195.107 129.34 195.407 129.136 195.637C128.931 195.867 128.674 196.033 128.363 196.134L128.364 196.202C128.611 196.216 128.827 196.292 129.011 196.432C129.197 196.568 129.343 196.749 129.449 196.975C129.554 197.198 129.609 197.446 129.613 197.719C129.619 198.116 129.517 198.464 129.308 198.763C129.099 199.058 128.81 199.29 128.44 199.457C128.07 199.622 127.647 199.707 127.17 199.714C126.707 199.721 126.291 199.651 125.922 199.506C125.554 199.358 125.259 199.15 125.04 198.884C124.823 198.614 124.706 198.3 124.689 197.943ZM134.426 199.473L134.332 192.929L137.008 192.89C137.713 192.88 138.274 193.031 138.694 193.343C139.113 193.656 139.326 194.073 139.334 194.596C139.34 194.993 139.226 195.303 138.994 195.525C138.761 195.745 138.46 195.895 138.092 195.977C138.334 196.008 138.57 196.09 138.799 196.223C139.031 196.356 139.224 196.541 139.378 196.777C139.532 197.011 139.611 197.299 139.616 197.643C139.621 197.978 139.54 198.279 139.374 198.546C139.207 198.812 138.966 199.025 138.65 199.183C138.334 199.341 137.954 199.423 137.511 199.429L134.426 199.473ZM135.367 198.539L137.498 198.509C137.844 198.504 138.115 198.418 138.308 198.25C138.502 198.082 138.597 197.857 138.593 197.573C138.588 197.235 138.486 196.97 138.287 196.78C138.088 196.587 137.816 196.493 137.469 196.498L135.339 196.528L135.367 198.539ZM135.326 195.659L137.048 195.634C137.317 195.63 137.548 195.59 137.74 195.514C137.933 195.434 138.079 195.324 138.179 195.183C138.282 195.04 138.332 194.871 138.329 194.678C138.325 194.403 138.207 194.189 137.975 194.036C137.743 193.88 137.425 193.805 137.021 193.811L135.3 193.835L135.326 195.659ZM143.825 199.475C143.211 199.484 142.681 199.346 142.233 199.063C141.786 198.78 141.439 198.385 141.193 197.88C140.948 197.375 140.82 196.796 140.811 196.143C140.801 195.478 140.915 194.89 141.152 194.378C141.392 193.863 141.729 193.459 142.166 193.166C142.605 192.87 143.12 192.717 143.71 192.709C144.171 192.702 144.587 192.782 144.958 192.947C145.33 193.112 145.636 193.346 145.876 193.649C146.116 193.953 146.268 194.309 146.33 194.717L145.325 194.731C145.244 194.434 145.07 194.172 144.802 193.946C144.537 193.717 144.184 193.606 143.74 193.612C143.348 193.618 143.006 193.725 142.714 193.934C142.424 194.139 142.199 194.428 142.04 194.8C141.883 195.169 141.809 195.6 141.816 196.094C141.823 196.6 141.909 197.039 142.073 197.412C142.24 197.784 142.472 198.072 142.767 198.276C143.066 198.479 143.414 198.577 143.812 198.572C144.073 198.568 144.309 198.519 144.521 198.425C144.733 198.331 144.911 198.198 145.057 198.025C145.202 197.853 145.304 197.647 145.363 197.407L146.369 197.393C146.318 197.78 146.182 198.13 145.962 198.443C145.745 198.753 145.454 199.001 145.09 199.188C144.729 199.372 144.307 199.468 143.825 199.475ZM150.612 199.378C149.982 199.387 149.436 199.255 148.974 198.983C148.516 198.709 148.159 198.322 147.905 197.822C147.653 197.32 147.523 196.734 147.513 196.064C147.504 195.393 147.617 194.801 147.854 194.286C148.094 193.768 148.432 193.363 148.868 193.07C149.307 192.773 149.822 192.621 150.413 192.613C150.754 192.608 151.091 192.66 151.425 192.769C151.759 192.877 152.064 193.058 152.341 193.309C152.617 193.558 152.839 193.89 153.007 194.306C153.175 194.721 153.263 195.234 153.272 195.845L153.278 196.271L148.233 196.343L148.221 195.474L152.243 195.416C152.238 195.047 152.159 194.718 152.007 194.431C151.858 194.143 151.648 193.917 151.375 193.754C151.106 193.59 150.789 193.511 150.426 193.516C150.025 193.522 149.68 193.626 149.39 193.829C149.103 194.029 148.884 194.288 148.732 194.606C148.581 194.923 148.507 195.262 148.513 195.623L148.521 196.203C148.528 196.697 148.619 197.115 148.795 197.456C148.973 197.794 149.217 198.051 149.526 198.225C149.835 198.397 150.193 198.48 150.599 198.474C150.863 198.47 151.102 198.43 151.314 198.353C151.528 198.273 151.713 198.157 151.867 198.004C152.021 197.849 152.139 197.657 152.221 197.428L153.196 197.687C153.099 198.018 152.931 198.31 152.693 198.563C152.455 198.814 152.16 199.012 151.807 199.156C151.453 199.297 151.055 199.371 150.612 199.378ZM158.225 199.132L158.131 192.587L163.278 192.513L163.372 199.058L162.366 199.072L162.286 193.465L159.15 193.51L159.23 199.117L158.225 199.132ZM167.869 199.13C167.278 199.138 166.758 199.005 166.308 198.73C165.861 198.455 165.508 198.067 165.251 197.565C164.997 197.063 164.865 196.474 164.855 195.798C164.845 195.116 164.96 194.519 165.2 194.007C165.443 193.495 165.784 193.095 166.223 192.808C166.665 192.52 167.181 192.372 167.772 192.363C168.363 192.355 168.882 192.488 169.329 192.763C169.779 193.038 170.131 193.428 170.386 193.933C170.643 194.438 170.776 195.031 170.786 195.713C170.796 196.389 170.679 196.981 170.437 197.491C170.197 198 169.856 198.398 169.414 198.686C168.975 198.973 168.46 199.121 167.869 199.13ZM167.856 198.226C168.305 198.22 168.672 198.1 168.959 197.865C169.245 197.631 169.455 197.326 169.589 196.949C169.723 196.572 169.787 196.164 169.781 195.727C169.774 195.29 169.699 194.883 169.554 194.507C169.41 194.131 169.191 193.829 168.898 193.6C168.605 193.371 168.234 193.26 167.785 193.267C167.336 193.273 166.968 193.395 166.682 193.632C166.396 193.869 166.186 194.178 166.052 194.557C165.918 194.937 165.854 195.346 165.861 195.783C165.867 196.221 165.942 196.626 166.087 196.999C166.231 197.372 166.45 197.671 166.743 197.897C167.036 198.123 167.407 198.233 167.856 198.226ZM176.305 198.872L176.224 193.248L174.486 193.273C174.094 193.279 173.787 193.374 173.565 193.559C173.343 193.744 173.234 193.995 173.239 194.314C173.243 194.626 173.348 194.87 173.552 195.046C173.759 195.222 174.04 195.308 174.395 195.303L176.509 195.272L176.522 196.21L174.409 196.24C173.966 196.247 173.582 196.174 173.259 196.022C172.936 195.871 172.686 195.651 172.508 195.364C172.331 195.074 172.239 194.729 172.233 194.328C172.228 193.925 172.314 193.577 172.491 193.284C172.669 192.992 172.926 192.765 173.261 192.604C173.6 192.443 174.004 192.359 174.472 192.353L177.165 192.314L177.259 198.859L176.305 198.872ZM171.942 198.935L173.753 195.653L174.843 195.637L173.032 198.919L171.942 198.935ZM181.766 198.93C181.152 198.939 180.622 198.802 180.175 198.518C179.727 198.235 179.381 197.841 179.135 197.336C178.889 196.831 178.761 196.252 178.752 195.598C178.742 194.934 178.856 194.345 179.093 193.833C179.333 193.318 179.671 192.914 180.107 192.621C180.546 192.325 181.061 192.173 181.652 192.164C182.112 192.158 182.528 192.237 182.9 192.402C183.271 192.567 183.577 192.801 183.818 193.105C184.058 193.408 184.209 193.764 184.272 194.172L183.266 194.187C183.185 193.89 183.011 193.628 182.744 193.402C182.479 193.172 182.125 193.061 181.682 193.067C181.29 193.073 180.948 193.18 180.655 193.389C180.365 193.595 180.141 193.884 179.981 194.255C179.825 194.624 179.75 195.055 179.757 195.55C179.764 196.055 179.85 196.495 180.015 196.867C180.182 197.24 180.413 197.528 180.709 197.731C181.007 197.934 181.355 198.033 181.753 198.027C182.014 198.023 182.251 197.974 182.463 197.88C182.674 197.786 182.853 197.653 182.998 197.481C183.143 197.308 183.246 197.102 183.305 196.863L184.31 196.848C184.259 197.235 184.123 197.585 183.903 197.898C183.686 198.208 183.396 198.457 183.032 198.644C182.671 198.828 182.249 198.923 181.766 198.93ZM190.134 194.94L190.148 195.878L186.534 195.93L186.521 194.992L190.134 194.94ZM186.719 192.177L186.813 198.722L185.808 198.736L185.714 192.191L186.719 192.177ZM190.861 192.117L190.955 198.662L189.949 198.676L189.855 192.132L190.861 192.117ZM195.874 194.909L195.888 195.847L192.428 195.896L192.415 194.959L195.874 194.909ZM193.226 192.083L193.32 198.628L192.314 198.643L192.22 192.098L193.226 192.083ZM197.94 198.698C197.35 198.707 196.829 198.573 196.379 198.299C195.932 198.024 195.58 197.635 195.323 197.133C195.068 196.631 194.936 196.042 194.926 195.366C194.917 194.684 195.032 194.087 195.271 193.575C195.514 193.063 195.855 192.664 196.294 192.376C196.736 192.088 197.252 191.94 197.843 191.932C198.434 191.923 198.953 192.057 199.4 192.331C199.85 192.606 200.203 192.996 200.457 193.501C200.714 194.006 200.848 194.599 200.858 195.281C200.867 195.957 200.751 196.55 200.508 197.059C200.268 197.568 199.927 197.966 199.485 198.254C199.046 198.542 198.531 198.69 197.94 198.698ZM197.927 197.795C198.376 197.788 198.744 197.668 199.03 197.434C199.317 197.2 199.527 196.894 199.661 196.517C199.795 196.14 199.858 195.733 199.852 195.295C199.846 194.858 199.77 194.451 199.626 194.075C199.481 193.7 199.262 193.397 198.969 193.169C198.676 192.94 198.305 192.829 197.856 192.835C197.407 192.842 197.04 192.963 196.753 193.2C196.467 193.438 196.257 193.746 196.123 194.126C195.989 194.506 195.926 194.914 195.932 195.352C195.938 195.789 196.014 196.194 196.158 196.567C196.303 196.94 196.522 197.24 196.815 197.466C197.108 197.692 197.479 197.801 197.927 197.795ZM205.915 198.447L205.821 191.903L206.827 191.888L206.921 198.433L205.915 198.447ZM206.317 190.804C206.121 190.807 205.951 190.743 205.807 190.611C205.666 190.48 205.594 190.32 205.591 190.133C205.588 189.945 205.656 189.784 205.793 189.648C205.933 189.513 206.101 189.444 206.297 189.441C206.493 189.438 206.662 189.502 206.803 189.634C206.947 189.765 207.02 189.925 207.023 190.112C207.025 190.3 206.957 190.461 206.817 190.597C206.679 190.732 206.513 190.802 206.317 190.804ZM40.6345 212.088L40.648 213.025L37.0347 213.077L37.0213 212.14L40.6345 212.088ZM37.2195 209.324L37.3135 215.869L36.3079 215.883L36.2139 209.339L37.2195 209.324ZM41.3611 209.265L41.4551 215.81L40.4495 215.824L40.3556 209.279L41.3611 209.265ZM45.2197 215.909C44.8049 215.915 44.4274 215.842 44.0872 215.691C43.7469 215.537 43.4751 215.312 43.272 215.016C43.0688 214.718 42.9642 214.356 42.9581 213.93C42.9527 213.555 43.0222 213.25 43.1666 213.015C43.3109 212.777 43.5057 212.589 43.7509 212.452C43.9961 212.315 44.2674 212.212 44.5647 212.142C44.8648 212.07 45.1666 212.012 45.4699 211.967C45.8669 211.911 46.1888 211.868 46.4355 211.838C46.6851 211.807 46.8662 211.757 46.9789 211.69C47.0944 211.623 47.151 211.509 47.1487 211.347L47.1482 211.313C47.1422 210.892 47.0225 210.567 46.789 210.338C46.5584 210.108 46.2116 209.996 45.7486 210.003C45.2685 210.01 44.8937 210.12 44.624 210.335C44.3543 210.549 44.1658 210.776 44.0584 211.016L43.0991 210.689C43.2638 210.289 43.4866 209.976 43.7675 209.75C44.0512 209.522 44.3614 209.361 44.6982 209.268C45.0377 209.172 45.3723 209.122 45.7018 209.117C45.912 209.114 46.1538 209.136 46.4273 209.184C46.7035 209.228 46.9705 209.325 47.2284 209.475C47.4891 209.624 47.7069 209.853 47.8818 210.16C48.0566 210.467 48.1478 210.881 48.1553 211.4L48.2172 215.712L47.2116 215.727L47.1989 214.841L47.1477 214.841C47.0816 214.984 46.9702 215.138 46.8134 215.302C46.6567 215.466 46.447 215.607 46.1845 215.725C45.9219 215.842 45.6003 215.903 45.2197 215.909ZM45.3601 215.003C45.7578 214.998 46.0919 214.915 46.3623 214.755C46.6356 214.594 46.8401 214.39 46.9757 214.141C47.1142 213.891 47.1815 213.631 47.1776 213.358L47.1644 212.437C47.1225 212.489 47.0294 212.537 46.8852 212.582C46.7437 212.624 46.5795 212.662 46.3924 212.696C46.2082 212.727 46.0282 212.755 45.8524 212.78C45.6794 212.803 45.539 212.822 45.4313 212.837C45.1704 212.875 44.927 212.934 44.7008 213.014C44.4775 213.091 44.2973 213.206 44.1602 213.359C44.026 213.508 43.9607 213.711 43.9644 213.967C43.9694 214.316 44.1025 214.578 44.3635 214.753C44.6274 214.926 44.9596 215.009 45.3601 215.003ZM49.3807 217.571L49.3403 214.759L49.8857 214.751C50.0172 214.61 50.1301 214.458 50.2244 214.294C50.3186 214.131 50.3997 213.938 50.4675 213.715C50.5381 213.49 50.5967 213.216 50.6432 212.895C50.6897 212.57 50.7296 212.179 50.7628 211.721L50.9471 209.127L55.1058 209.067L55.1863 214.675L56.1919 214.66L56.2322 217.473L55.2267 217.487L55.1998 215.612L50.3593 215.682L50.3863 217.557L49.3807 217.571ZM51.0276 214.735L54.1807 214.689L54.1137 210.019L51.898 210.051L51.7513 211.707C51.6901 212.392 51.6106 212.992 51.5129 213.504C51.4151 214.017 51.2534 214.427 51.0276 214.735ZM57.5401 215.579L57.4461 209.034L58.4517 209.019L58.5456 215.564L57.5401 215.579ZM57.9418 207.936C57.7458 207.939 57.5758 207.874 57.4319 207.743C57.2907 207.611 57.2188 207.452 57.2162 207.264C57.2135 207.077 57.2808 206.915 57.418 206.78C57.5581 206.644 57.7262 206.575 57.9222 206.572C58.1182 206.569 58.2868 206.634 58.4279 206.765C58.5718 206.897 58.6451 207.056 58.6478 207.244C58.6505 207.431 58.5818 207.593 58.4417 207.728C58.3044 207.864 58.1378 207.933 57.9418 207.936ZM60.2935 208.993L61.2991 208.979L61.3796 214.586L63.8509 214.55L63.7704 208.943L64.776 208.929L64.8565 214.536L67.3278 214.501L67.2473 208.893L68.2529 208.879L68.3468 215.424L60.3874 215.538L60.2935 208.993ZM69.6038 215.405L69.5904 214.468L69.829 214.465C70.025 214.462 70.1878 214.421 70.3173 214.343C70.4469 214.261 70.55 214.122 70.6267 213.925C70.7062 213.725 70.7648 213.448 70.8023 213.095C70.8427 212.74 70.8689 212.288 70.8809 211.739L70.9586 208.84L75.3218 208.777L75.4157 215.322L74.4101 215.336L74.3296 209.729L71.9265 209.764L71.8577 212.1C71.8427 212.637 71.8012 213.111 71.7332 213.521C71.6681 213.928 71.5636 214.271 71.4198 214.548C71.2789 214.826 71.0887 215.036 70.8493 215.179C70.6098 215.321 70.3083 215.395 69.9447 215.401L69.6038 215.405ZM80.3439 211.569L80.3573 212.507L76.8975 212.556L76.884 211.619L80.3439 211.569ZM77.6951 208.743L77.789 215.288L76.7835 215.302L76.6895 208.758L77.6951 208.743ZM82.4098 215.358C81.819 215.367 81.2986 215.233 80.8486 214.959C80.4014 214.684 80.0492 214.295 79.7919 213.793C79.5376 213.291 79.4055 212.702 79.3958 212.026C79.386 211.344 79.501 210.747 79.7409 210.235C79.9836 209.723 80.3244 209.323 80.7635 209.036C81.2055 208.748 81.7219 208.6 82.3127 208.592C82.9036 208.583 83.4226 208.716 83.8698 208.991C84.3198 209.266 84.672 209.656 84.9264 210.161C85.1837 210.666 85.3172 211.259 85.327 211.941C85.3367 212.617 85.2202 213.21 84.9775 213.719C84.7376 214.228 84.3967 214.626 83.9548 214.914C83.5157 215.202 83.0007 215.35 82.4098 215.358ZM82.3969 214.455C82.8457 214.448 83.2133 214.328 83.4998 214.094C83.7862 213.859 83.9963 213.554 84.1301 213.177C84.2639 212.8 84.3277 212.393 84.3214 211.955C84.3152 211.518 84.2397 211.111 84.0951 210.735C83.9505 210.36 83.7316 210.057 83.4385 209.829C83.1455 209.6 82.7745 209.489 82.3257 209.495C81.8769 209.501 81.5093 209.623 81.2229 209.86C80.9365 210.097 80.7264 210.406 80.5926 210.786C80.4588 211.165 80.3951 211.574 80.4014 212.012C80.4077 212.449 80.4831 212.854 80.6277 213.227C80.7722 213.6 80.991 213.9 81.2841 214.125C81.5771 214.351 81.9481 214.461 82.3969 214.455ZM93.0871 216.944L93.0467 214.131L93.5921 214.124C93.7237 213.982 93.8365 213.83 93.9308 213.667C94.0251 213.504 94.1061 213.311 94.1739 213.088C94.2446 212.863 94.3031 212.589 94.3497 212.267C94.3962 211.943 94.436 211.552 94.4692 211.094L94.6536 208.5L98.8122 208.44L98.8927 214.047L99.8983 214.033L99.9387 216.845L98.9331 216.86L98.9062 214.985L94.0658 215.054L94.0927 216.929L93.0871 216.944ZM94.7341 214.107L97.8872 214.062L97.8201 209.392L95.6044 209.424L95.4577 211.079C95.3965 211.765 95.3171 212.364 95.2193 212.877C95.1215 213.39 94.9598 213.8 94.7341 214.107ZM103.907 215.049C103.316 215.058 102.796 214.925 102.346 214.65C101.899 214.375 101.547 213.987 101.289 213.485C101.035 212.983 100.903 212.393 100.893 211.717C100.883 211.036 100.998 210.439 101.238 209.927C101.481 209.415 101.822 209.015 102.261 208.727C102.703 208.44 103.219 208.292 103.81 208.283C104.401 208.275 104.92 208.408 105.367 208.683C105.817 208.958 106.169 209.347 106.424 209.852C106.681 210.357 106.815 210.951 106.824 211.632C106.834 212.308 106.718 212.901 106.475 213.41C106.235 213.919 105.894 214.318 105.452 214.605C105.013 214.893 104.498 215.041 103.907 215.049ZM103.894 214.146C104.343 214.14 104.711 214.019 104.997 213.785C105.284 213.551 105.494 213.245 105.628 212.868C105.761 212.491 105.825 212.084 105.819 211.647C105.813 211.209 105.737 210.803 105.593 210.427C105.448 210.051 105.229 209.749 104.936 209.52C104.643 209.291 104.272 209.18 103.823 209.186C103.374 209.193 103.007 209.315 102.72 209.552C102.434 209.789 102.224 210.097 102.09 210.477C101.956 210.857 101.893 211.265 101.899 211.703C101.905 212.14 101.981 212.546 102.125 212.919C102.27 213.292 102.488 213.591 102.782 213.817C103.075 214.043 103.445 214.153 103.894 214.146ZM107.734 216.733L107.694 213.921L108.239 213.913C108.371 213.772 108.483 213.62 108.578 213.457C108.672 213.293 108.753 213.1 108.821 212.878C108.891 212.652 108.95 212.379 108.997 212.057C109.043 211.733 109.083 211.341 109.116 210.883L109.301 208.29L113.459 208.23L113.54 213.837L114.545 213.823L114.586 216.635L113.58 216.649L113.553 214.775L108.713 214.844L108.74 216.719L107.734 216.733ZM109.381 213.897L112.534 213.852L112.467 209.182L110.251 209.213L110.105 210.869C110.043 211.555 109.964 212.154 109.866 212.667C109.768 213.18 109.607 213.59 109.381 213.897ZM117.822 214.867C117.407 214.873 117.029 214.8 116.689 214.649C116.349 214.494 116.077 214.27 115.874 213.974C115.671 213.676 115.566 213.314 115.56 212.888C115.555 212.513 115.624 212.208 115.768 211.973C115.913 211.735 116.108 211.547 116.353 211.41C116.598 211.273 116.869 211.17 117.167 211.1C117.467 211.028 117.768 210.969 118.072 210.925C118.469 210.868 118.791 210.825 119.037 210.796C119.287 210.764 119.468 210.715 119.581 210.648C119.696 210.581 119.753 210.466 119.751 210.305L119.75 210.27C119.744 209.85 119.624 209.525 119.391 209.295C119.16 209.066 118.814 208.954 118.35 208.961C117.87 208.968 117.496 209.078 117.226 209.292C116.956 209.506 116.768 209.734 116.66 209.974L115.701 209.647C115.866 209.247 116.089 208.934 116.369 208.708C116.653 208.479 116.963 208.319 117.3 208.226C117.64 208.13 117.974 208.08 118.304 208.075C118.514 208.072 118.756 208.094 119.029 208.141C119.305 208.186 119.572 208.283 119.83 208.432C120.091 208.582 120.309 208.811 120.484 209.118C120.659 209.425 120.75 209.838 120.757 210.358L120.819 214.67L119.813 214.685L119.801 213.798L119.75 213.799C119.683 213.942 119.572 214.096 119.415 214.26C119.259 214.424 119.049 214.565 118.786 214.682C118.524 214.8 118.202 214.861 117.822 214.867ZM117.962 213.961C118.36 213.956 118.694 213.873 118.964 213.712C119.238 213.552 119.442 213.348 119.578 213.099C119.716 212.849 119.783 212.588 119.779 212.316L119.766 211.395C119.724 211.447 119.631 211.495 119.487 211.54C119.346 211.582 119.181 211.62 118.994 211.654C118.81 211.685 118.63 211.713 118.454 211.738C118.281 211.76 118.141 211.78 118.033 211.795C117.772 211.833 117.529 211.892 117.303 211.972C117.079 212.049 116.899 212.164 116.762 212.316C116.628 212.466 116.563 212.669 116.566 212.924C116.571 213.274 116.704 213.536 116.965 213.711C117.229 213.884 117.561 213.967 117.962 213.961ZM121.683 209.049L121.67 208.112L126.988 208.036L127.001 208.973L124.854 209.004L124.934 214.611L123.928 214.626L123.848 209.018L121.683 209.049ZM128.548 214.559L128.454 208.015L129.46 208L129.501 210.846L130.166 210.837L132.477 207.957L133.772 207.938L131.176 211.129L133.9 214.483L132.605 214.501L130.418 211.771L129.514 211.784L129.554 214.545L128.548 214.559ZM137.384 214.569C136.793 214.577 136.273 214.444 135.823 214.169C135.376 213.895 135.024 213.506 134.766 213.004C134.512 212.502 134.38 211.913 134.37 211.237C134.36 210.555 134.475 209.958 134.715 209.446C134.958 208.934 135.299 208.534 135.738 208.247C136.18 207.959 136.696 207.811 137.287 207.803C137.878 207.794 138.397 207.927 138.844 208.202C139.294 208.477 139.646 208.867 139.901 209.372C140.158 209.877 140.292 210.47 140.301 211.152C140.311 211.828 140.195 212.42 139.952 212.93C139.712 213.439 139.371 213.837 138.929 214.125C138.49 214.412 137.975 214.56 137.384 214.569ZM137.371 213.666C137.82 213.659 138.188 213.539 138.474 213.305C138.761 213.07 138.971 212.765 139.105 212.388C139.238 212.011 139.302 211.604 139.296 211.166C139.29 210.729 139.214 210.322 139.07 209.946C138.925 209.57 138.706 209.268 138.413 209.039C138.12 208.811 137.749 208.699 137.3 208.706C136.851 208.712 136.484 208.834 136.197 209.071C135.911 209.308 135.701 209.617 135.567 209.997C135.433 210.376 135.37 210.785 135.376 211.222C135.382 211.66 135.458 212.065 135.602 212.438C135.747 212.811 135.965 213.11 136.259 213.336C136.552 213.562 136.923 213.672 137.371 213.666ZM141.883 214.368L141.789 207.823L144.465 207.785C145.169 207.775 145.731 207.926 146.151 208.238C146.57 208.55 146.783 208.968 146.791 209.49C146.796 209.888 146.683 210.198 146.45 210.42C146.218 210.639 145.917 210.79 145.549 210.872C145.791 210.902 146.027 210.984 146.256 211.117C146.488 211.25 146.681 211.435 146.835 211.672C146.989 211.905 147.068 212.194 147.073 212.538C147.078 212.873 146.997 213.174 146.83 213.44C146.664 213.707 146.422 213.919 146.106 214.077C145.791 214.235 145.411 214.317 144.968 214.324L141.883 214.368ZM142.824 213.434L144.955 213.403C145.301 213.398 145.571 213.312 145.765 213.145C145.959 212.977 146.053 212.751 146.049 212.467C146.044 212.129 145.943 211.865 145.744 211.675C145.545 211.481 145.272 211.387 144.926 211.392L142.795 211.423L142.824 213.434ZM142.783 210.554L144.504 210.529C144.774 210.525 145.005 210.485 145.197 210.408C145.389 210.329 145.535 210.219 145.636 210.078C145.739 209.934 145.789 209.766 145.786 209.573C145.782 209.297 145.664 209.083 145.432 208.93C145.199 208.774 144.881 208.699 144.478 208.705L142.757 208.73L142.783 210.554ZM148.621 214.271L148.527 207.726L149.532 207.712L149.626 214.257L148.621 214.271ZM149.022 206.628C148.826 206.631 148.656 206.567 148.512 206.435C148.371 206.304 148.299 206.144 148.297 205.957C148.294 205.769 148.361 205.608 148.498 205.472C148.639 205.337 148.807 205.268 149.003 205.265C149.199 205.262 149.367 205.326 149.508 205.458C149.652 205.589 149.726 205.749 149.728 205.936C149.731 206.124 149.662 206.285 149.522 206.421C149.385 206.556 149.218 206.626 149.022 206.628ZM158.402 212.767L160.612 207.553L161.566 207.539L158.831 214.125L158.013 214.136L155.141 207.632L156.078 207.618L158.402 212.767ZM155.754 207.623L155.848 214.168L154.843 214.182L154.749 207.637L155.754 207.623ZM160.995 214.094L160.901 207.549L161.907 207.534L162.001 214.079L160.995 214.094ZM165.77 214.179C165.355 214.184 164.978 214.112 164.637 213.96C164.297 213.806 164.025 213.581 163.822 213.286C163.619 212.988 163.514 212.626 163.508 212.199C163.503 211.824 163.572 211.519 163.717 211.284C163.861 211.047 164.056 210.859 164.301 210.722C164.546 210.585 164.817 210.482 165.115 210.412C165.415 210.339 165.717 210.281 166.02 210.237C166.417 210.18 166.739 210.137 166.986 210.108C167.235 210.076 167.416 210.027 167.529 209.96C167.645 209.893 167.701 209.778 167.699 209.616L167.698 209.582C167.692 209.162 167.573 208.837 167.339 208.607C167.109 208.377 166.762 208.266 166.299 208.273C165.819 208.279 165.444 208.39 165.174 208.604C164.904 208.818 164.716 209.045 164.609 209.286L163.649 208.958C163.814 208.558 164.037 208.245 164.318 208.02C164.601 207.791 164.911 207.631 165.248 207.538C165.588 207.442 165.922 207.392 166.252 207.387C166.462 207.384 166.704 207.406 166.977 207.453C167.254 207.497 167.521 207.594 167.778 207.744C168.039 207.894 168.257 208.122 168.432 208.43C168.607 208.737 168.698 209.15 168.705 209.67L168.767 213.982L167.762 213.997L167.749 213.11L167.698 213.111C167.632 213.254 167.52 213.408 167.363 213.572C167.207 213.736 166.997 213.877 166.735 213.994C166.472 214.112 166.15 214.173 165.77 214.179ZM165.91 213.273C166.308 213.267 166.642 213.184 166.912 213.024C167.186 212.864 167.39 212.659 167.526 212.41C167.664 212.161 167.732 211.9 167.728 211.627L167.714 210.707C167.673 210.759 167.58 210.807 167.435 210.852C167.294 210.894 167.13 210.931 166.943 210.965C166.758 210.996 166.578 211.025 166.402 211.05C166.229 211.072 166.089 211.091 165.981 211.107C165.721 211.145 165.477 211.204 165.251 211.284C165.028 211.361 164.847 211.476 164.71 211.628C164.576 211.778 164.511 211.98 164.514 212.236C164.519 212.586 164.653 212.848 164.914 213.023C165.177 213.195 165.51 213.279 165.91 213.273ZM169.632 208.361L169.618 207.424L174.936 207.347L174.949 208.285L172.802 208.316L172.882 213.923L171.877 213.937L171.796 208.33L169.632 208.361ZM178.903 213.973C178.272 213.982 177.726 213.851 177.265 213.579C176.806 213.304 176.45 212.917 176.195 212.418C175.944 211.916 175.813 211.33 175.804 210.659C175.794 209.989 175.908 209.396 176.145 208.881C176.384 208.364 176.722 207.958 177.159 207.665C177.598 207.369 178.113 207.217 178.703 207.208C179.044 207.203 179.382 207.255 179.716 207.364C180.05 207.473 180.355 207.653 180.631 207.905C180.908 208.154 181.13 208.486 181.298 208.901C181.465 209.316 181.554 209.829 181.563 210.44L181.569 210.866L176.524 210.939L176.511 210.069L180.534 210.012C180.528 209.642 180.45 209.314 180.298 209.026C180.149 208.739 179.938 208.513 179.666 208.349C179.396 208.185 179.08 208.106 178.716 208.111C178.316 208.117 177.971 208.222 177.681 208.425C177.394 208.625 177.175 208.884 177.023 209.201C176.871 209.519 176.798 209.858 176.803 210.219L176.812 210.798C176.819 211.292 176.91 211.71 177.085 212.051C177.263 212.39 177.507 212.646 177.816 212.821C178.126 212.993 178.484 213.075 178.89 213.07C179.154 213.066 179.392 213.026 179.604 212.949C179.819 212.869 180.003 212.753 180.157 212.6C180.311 212.444 180.429 212.252 180.511 212.024L181.487 212.282C181.389 212.613 181.221 212.905 180.984 213.159C180.746 213.41 180.45 213.607 180.097 213.751C179.744 213.893 179.346 213.967 178.903 213.973ZM183.176 216.23L183.046 207.231L184.018 207.217L184.033 208.257L184.152 208.255C184.224 208.14 184.325 207.994 184.453 207.816C184.584 207.635 184.772 207.473 185.017 207.331C185.265 207.185 185.602 207.109 186.028 207.103C186.579 207.095 187.067 207.226 187.491 207.495C187.915 207.765 188.249 208.151 188.492 208.653C188.735 209.155 188.862 209.75 188.871 210.437C188.881 211.131 188.772 211.733 188.544 212.245C188.315 212.754 187.994 213.151 187.581 213.435C187.167 213.717 186.687 213.861 186.142 213.869C185.722 213.875 185.384 213.81 185.129 213.675C184.874 213.536 184.677 213.379 184.539 213.202C184.4 213.022 184.292 212.873 184.217 212.755L184.132 212.756L184.181 216.216L183.176 216.23ZM184.082 210.489C184.089 210.983 184.168 211.418 184.318 211.794C184.468 212.167 184.684 212.458 184.966 212.667C185.247 212.873 185.589 212.973 185.993 212.968C186.413 212.962 186.762 212.846 187.04 212.62C187.321 212.392 187.53 212.088 187.667 211.708C187.806 211.325 187.872 210.901 187.866 210.435C187.859 209.975 187.782 209.561 187.635 209.194C187.49 208.824 187.274 208.533 186.987 208.321C186.703 208.106 186.348 208.002 185.922 208.008C185.513 208.014 185.17 208.122 184.895 208.334C184.619 208.542 184.413 208.832 184.277 209.204C184.14 209.572 184.075 210.001 184.082 210.489ZM190.452 213.671L190.358 207.126L191.364 207.112L191.458 213.656L190.452 213.671ZM190.854 206.028C190.658 206.031 190.488 205.966 190.344 205.835C190.203 205.703 190.131 205.544 190.128 205.356C190.126 205.169 190.193 205.007 190.33 204.872C190.47 204.736 190.638 204.667 190.834 204.664C191.03 204.662 191.199 204.726 191.34 204.857C191.484 204.989 191.557 205.148 191.56 205.336C191.563 205.523 191.494 205.685 191.354 205.82C191.217 205.956 191.05 206.025 190.854 206.028ZM195.228 213.756C194.813 213.762 194.435 213.689 194.095 213.538C193.755 213.383 193.483 213.159 193.28 212.863C193.077 212.565 192.972 212.203 192.966 211.777C192.961 211.402 193.03 211.097 193.175 210.862C193.319 210.624 193.514 210.436 193.759 210.299C194.004 210.162 194.275 210.059 194.573 209.989C194.873 209.917 195.175 209.858 195.478 209.814C195.875 209.757 196.197 209.714 196.444 209.685C196.693 209.653 196.874 209.604 196.987 209.537C197.102 209.47 197.159 209.355 197.157 209.193L197.156 209.159C197.15 208.739 197.03 208.414 196.797 208.184C196.566 207.955 196.22 207.843 195.757 207.85C195.277 207.857 194.902 207.967 194.632 208.181C194.362 208.395 194.174 208.623 194.066 208.863L193.107 208.536C193.272 208.135 193.495 207.823 193.775 207.597C194.059 207.368 194.369 207.208 194.706 207.115C195.046 207.019 195.38 206.969 195.71 206.964C195.92 206.961 196.162 206.983 196.435 207.03C196.711 207.075 196.979 207.172 197.236 207.321C197.497 207.471 197.715 207.699 197.89 208.007C198.065 208.314 198.156 208.727 198.163 209.247L198.225 213.559L197.22 213.574L197.207 212.687L197.156 212.688C197.09 212.831 196.978 212.985 196.821 213.149C196.665 213.313 196.455 213.454 196.192 213.571C195.93 213.689 195.608 213.75 195.228 213.756ZM195.368 212.85C195.766 212.844 196.1 212.762 196.37 212.601C196.644 212.441 196.848 212.237 196.984 211.987C197.122 211.738 197.189 211.477 197.186 211.205L197.172 210.284C197.13 210.336 197.037 210.384 196.893 210.429C196.752 210.471 196.587 210.509 196.4 210.543C196.216 210.574 196.036 210.602 195.86 210.627C195.687 210.649 195.547 210.668 195.439 210.684C195.178 210.722 194.935 210.781 194.709 210.861C194.485 210.938 194.305 211.053 194.168 211.205C194.034 211.355 193.969 211.558 193.972 211.813C193.977 212.163 194.11 212.425 194.372 212.6C194.635 212.773 194.968 212.856 195.368 212.85ZM199.481 213.541L199.468 212.604L199.706 212.6C199.902 212.598 200.065 212.557 200.195 212.478C200.324 212.397 200.427 212.258 200.504 212.06C200.583 211.86 200.642 211.584 200.68 211.231C200.72 210.875 200.746 210.423 200.758 209.875L200.836 206.976L205.199 206.913L205.293 213.458L204.287 213.472L204.207 207.865L201.804 207.899L201.735 210.236C201.72 210.773 201.678 211.247 201.61 211.657C201.545 212.064 201.441 212.406 201.297 212.684C201.156 212.962 200.966 213.172 200.727 213.315C200.487 213.457 200.186 213.531 199.822 213.536L199.481 213.541ZM208.122 211.934L211.203 206.827L212.362 206.81L212.456 213.355L211.45 213.369L211.377 208.307L208.314 213.414L207.138 213.431L207.044 206.887L208.05 206.872L208.122 211.934Z" fill="white"/>
<path d="M28.9054 102.759C28.7452 102.878 28.5317 102.89 28.3478 102.795C28.33 102.783 26.1648 101.674 22.4928 102.192C21.0039 102.401 19.5328 102.849 18.1209 103.528L11.916 106.499C10.4093 107.22 8.60593 106.576 7.88815 105.061L3.29675 95.3756C2.94676 94.642 2.90524 93.8189 3.17811 93.0555C3.44506 92.2921 3.99673 91.6779 4.72637 91.326L21.4785 83.2984C22.2081 82.9465 23.0267 82.9047 23.786 83.1791C24.5453 83.4475 25.1563 84.0021 25.5063 84.7357L30.0977 94.4213C30.8155 95.9362 30.1748 97.7493 28.6681 98.4709L27.6003 98.9838L29.0774 102.097C29.1783 102.306 29.1308 102.55 28.9647 102.705C28.9469 102.723 28.9291 102.741 28.9054 102.759ZM4.87467 92.4711C4.55434 92.7037 4.31113 93.0317 4.17469 93.4134C3.99673 93.9084 4.02639 94.4452 4.25181 94.9223L8.84321 104.608C9.31184 105.592 10.4864 106.009 11.4652 105.544L17.6701 102.574C19.1828 101.847 20.7607 101.369 22.3505 101.143C24.6936 100.815 26.4732 101.089 27.5707 101.393L26.6275 99.4073C26.3902 98.9003 26.6038 98.292 27.108 98.0534L28.2173 97.5226C29.1961 97.0515 29.6113 95.8706 29.1486 94.8865L24.5572 85.2009C24.3318 84.7238 23.9343 84.3659 23.436 84.187C22.9437 84.0081 22.4098 84.0379 21.9352 84.2645L5.18314 92.2922C5.07043 92.3399 4.96959 92.3995 4.87467 92.4711Z" fill="#F7A845"/>
<path d="M6.53544 95.0247L22.8011 87.2296C23.0384 87.1163 23.1392 86.8301 23.0265 86.5855C22.9138 86.347 22.6291 86.2456 22.3859 86.3589L6.1202 94.1539C5.88291 94.2672 5.78207 94.5535 5.89478 94.798C6.00748 95.0366 6.29816 95.138 6.53544 95.0247Z" fill="#F7A845"/>
<path d="M17.8831 92.1857L23.8033 89.3468C24.0405 89.2335 24.1414 88.9472 24.0287 88.7027C23.916 88.4642 23.6312 88.3628 23.388 88.4761L17.4678 91.315C17.2306 91.4283 17.1297 91.7146 17.2424 91.9591C17.3551 92.1977 17.6399 92.305 17.8831 92.1857Z" fill="#F7A845"/>
<path d="M13.7737 94.1542L16.3008 92.9435C16.538 92.8302 16.6389 92.5439 16.5262 92.2994C16.4135 92.0608 16.1287 91.9594 15.8855 92.0728L13.3585 93.2835C13.1212 93.3968 13.0203 93.6831 13.1331 93.9276C13.2517 94.1661 13.5364 94.2735 13.7737 94.1542Z" fill="#F7A845"/>
<path d="M7.53934 97.1425L12.1604 94.9298C12.3977 94.8165 12.4985 94.5302 12.3858 94.2857C12.2731 94.0472 11.9884 93.9458 11.7452 94.0591L7.1241 96.2718C6.88682 96.3851 6.78597 96.6713 6.89868 96.9159C7.01732 97.1544 7.30206 97.2558 7.53934 97.1425Z" fill="#F7A845"/>
<path d="M22.1253 92.7522L24.8066 91.4699C25.0438 91.3566 25.1447 91.0703 25.032 90.8258C24.9193 90.5872 24.6345 90.4858 24.3913 90.5991L21.71 91.8814C21.4728 91.9947 21.3719 92.281 21.4846 92.5255C21.6033 92.7641 21.888 92.8655 22.1253 92.7522Z" fill="#F7A845"/>
<path d="M11.9456 97.6311L20.1911 93.6769C20.4284 93.5636 20.5293 93.2773 20.4165 93.0328C20.3038 92.7942 20.0191 92.6928 19.7759 92.8062L11.5303 96.7603C11.2931 96.8736 11.1922 97.1599 11.3049 97.4044C11.4176 97.643 11.7083 97.7504 11.9456 97.6311Z" fill="#F7A845"/>
<path d="M18.3108 97.1834L25.8149 93.5871C26.0521 93.4737 26.153 93.1875 26.0403 92.9429C25.9276 92.7044 25.6428 92.603 25.3996 92.7163L17.8956 96.3126C17.6583 96.426 17.5575 96.7122 17.6702 96.9568C17.7888 97.1953 18.0735 97.2967 18.3108 97.1834Z" fill="#F7A845"/>
<path d="M12.9475 99.754L16.5424 98.0304C16.7796 97.9171 16.8805 97.6308 16.7678 97.3863C16.6551 97.1477 16.3703 97.0464 16.1271 97.1597L12.5323 98.8833C12.295 98.9966 12.1942 99.2829 12.3069 99.5274C12.4255 99.766 12.7103 99.8674 12.9475 99.754Z" fill="#F7A845"/>
<path d="M8.54716 99.2658L10.1132 98.5141C10.3505 98.4007 10.4513 98.1144 10.3386 97.8698C10.2259 97.6312 9.94119 97.5297 9.69797 97.6431L8.13191 98.3948C7.89463 98.5081 7.79379 98.7945 7.90649 99.0391C8.0192 99.2777 8.30394 99.3791 8.54716 99.2658Z" fill="#F7A845"/>
<defs>
<clipPath id="clip0_4707_1994">
<rect width="214" height="54" fill="white" transform="translate(113.649 102) rotate(0.688407)"/>
</clipPath>
</defs>
</svg>
