<svg viewBox="0 0 69 37" fill="currentColor" xmlns="http://www.w3.org/2000/svg">
<path d="M7.78398 16.3392C7.89091 17.7063 7.71984 19.0413 7.36696 20.2696C7.32419 20.4084 7.28141 20.5579 7.22794 20.6861L7.16378 20.8463C7.16378 20.8463 7.17449 20.8356 7.14241 20.8677C6.9927 21.0599 6.80021 21.2308 6.59704 21.3803C6.18 21.6794 5.6774 21.8609 5.17481 21.9037C4.65084 21.9571 4.12687 21.8075 3.77399 21.5405C3.41042 21.2522 3.08964 20.7502 2.85439 20.1521C2.41596 19.052 2.35179 17.7383 2.04168 16.5208C1.87059 15.8265 1.0472 15.6663 0.897494 16.4887C0.683628 17.7383 0.694321 19.2015 1.16483 20.6968C1.40008 21.4337 1.80645 22.2241 2.49082 22.8435C3.20727 23.4844 4.09481 23.7086 4.89681 23.7193C5.81643 23.7193 6.70398 23.4523 7.44182 22.9717C7.81608 22.7261 8.14757 22.427 8.43629 22.0852L8.68221 21.7541C8.75707 21.5939 8.81056 21.4444 8.84264 21.3697C8.9068 21.1667 8.96027 20.9745 9.01374 20.7822C9.36661 19.2015 9.16344 17.7063 8.87472 16.2431C8.66085 15.3032 7.68774 15.4314 7.78398 16.3392Z" />
<path d="M7.58017 23.164C5.60193 25.4603 3.8055 27.7245 2.28707 30.4907C1.94488 31.1956 1.64546 31.986 1.63477 32.9152C1.64546 33.8337 1.9235 34.7842 2.72549 35.5212C2.92866 35.7028 3.1639 35.8523 3.42054 35.9591C3.68787 36.0766 3.84827 36.0979 4.06214 36.1727C4.48987 36.2688 4.93896 36.3542 5.44153 36.2902C5.92273 36.2368 6.43601 36.0766 6.85304 35.7882C7.27008 35.5105 7.59086 35.158 7.8475 34.7949C8.37147 34.0046 8.62811 33.1929 8.82058 32.4025C9.00237 31.6122 9.09861 30.8218 9.16277 30.0528C9.29109 28.5042 9.19484 26.9555 9.18415 25.4923C9.19484 22.7902 9.32316 19.992 9.11999 17.3967C9.00237 15.9228 8.18971 15.6024 7.97584 17.2578C7.65505 19.7677 7.49464 22.598 7.3984 25.4603C7.36632 26.9128 7.45186 28.2906 7.35562 29.647C7.27008 30.982 7.0776 32.2957 6.61779 33.2997C6.35046 33.8657 5.9976 34.2823 5.59125 34.4211C5.38808 34.4959 5.14213 34.5172 4.8748 34.4959C4.73579 34.4638 4.59679 34.4638 4.45778 34.4104C4.30808 34.3677 4.15835 34.325 4.10489 34.2929C3.78409 34.1434 3.49538 33.6414 3.44192 33.0967C3.37776 32.5841 3.53816 31.9433 3.81618 31.3345C4.40431 30.0849 5.18491 28.7712 5.92274 27.543C6.68196 26.3041 7.49465 25.0972 8.40357 23.9223C9.51566 22.4591 8.9382 21.6474 7.58017 23.164Z" />
<path d="M21.9525 19.5006C21.3323 19.3724 20.7442 19.1695 20.1133 19.0947C19.5252 19.0307 18.9263 19.0093 18.3382 18.9986C17.7073 18.9879 17.0764 18.9986 16.4455 19.0734C15.8681 19.1375 15.2799 19.1054 14.7453 19.4045C14.4352 19.5754 14.4031 20.3977 14.756 20.5473C15.7932 21.0065 17.0764 20.8143 18.1564 20.8143C18.7766 20.8143 19.3862 20.825 20.0064 20.7929C20.6266 20.7716 21.2361 20.6114 21.8563 20.5686C22.2306 20.5473 22.3696 19.586 21.9525 19.5006Z" />
<path d="M22.9582 25.023C22.3059 24.9696 21.6643 24.8308 21.012 24.8094C20.3918 24.7987 19.7823 24.8201 19.1621 24.8521C18.4991 24.8842 17.8469 24.9162 17.1946 25.0123C16.5958 25.0978 15.9862 25.0764 15.4195 25.3755C15.0987 25.5464 15.0559 26.3687 15.4302 26.5183C16.5423 26.9775 17.9217 26.7532 19.0659 26.6785C19.7182 26.6357 20.3811 26.6037 21.0334 26.5289C21.6964 26.4435 22.3273 26.2299 22.9796 26.1124C23.3753 26.027 23.3966 25.0551 22.9582 25.023Z" />
<path d="M35.7998 24.9159C35.7463 24.8518 35.65 24.5527 35.65 24.2323C35.65 24.0721 35.6607 23.8906 35.6714 23.7197C35.6821 23.5167 35.7035 23.2925 35.7035 23.0788C35.7142 22.2671 35.6928 21.4448 35.6714 20.6331C35.6501 19.7573 35.618 18.8922 35.5217 18.0271C35.4362 17.2367 35.4683 16.425 35.1688 15.6774C34.9978 15.2502 34.1744 15.1861 34.0246 15.6667C33.5648 17.1299 33.7787 18.9456 33.8535 20.4622C33.8963 21.3273 33.9177 22.2031 34.0033 23.0682C34.0247 23.2925 34.046 23.5061 34.0888 23.7197C34.1209 23.9653 34.1744 24.211 34.2599 24.4459C34.4203 24.9159 34.6342 25.4392 35.2009 25.8023C35.5966 26.0052 35.8425 25.7169 35.8532 25.4712C35.8425 25.2256 35.7998 24.9586 35.7998 24.9159Z" />
<path d="M33.8435 16.2859C33.6618 17.3646 33.48 18.422 33.3089 19.4793C33.2233 20.0027 33.1271 20.526 33.0416 21.0493C32.956 21.5193 32.817 21.9785 32.6352 22.4057C32.3038 23.2174 31.7798 23.901 31.1596 24.1787C30.8602 24.3175 30.4752 24.3816 30.1437 24.3496C29.8122 24.3175 29.5128 24.2 29.2348 23.9864C28.6466 23.5272 28.2189 22.6193 28.1227 21.7542C28.0158 20.8571 28.1869 19.9065 28.5825 19.0521C28.7643 18.6676 28.9995 18.2938 29.2776 17.9948C29.5235 17.7278 29.8229 17.5462 30.1544 17.4501C30.8281 17.2471 31.6514 17.4714 32.3465 17.9093C32.7315 18.155 33.095 18.2831 33.3303 18.1763C33.5442 18.0909 33.6404 17.6957 33.1913 17.1297C32.5069 16.3073 31.3307 15.6451 29.9512 15.8267C29.2776 15.9228 28.6039 16.2539 28.112 16.7345C27.6415 17.1937 27.2993 17.6743 27.0106 18.219C26.4439 19.2978 26.1872 20.526 26.2835 21.7329C26.3797 22.9504 26.8395 24.0932 27.6522 24.9904C28.1227 25.5031 28.7643 25.9196 29.4807 26.0798C30.2079 26.24 30.9029 26.1866 31.5873 25.9516C32.9667 25.4496 33.7901 24.2535 34.2178 23.1213C34.4424 22.5446 34.5707 21.9465 34.6349 21.3591C34.6883 20.7503 34.7097 20.259 34.7418 19.7143C34.806 18.6356 34.8701 17.5676 34.9343 16.4782C35.0198 15.1111 34.0681 14.8334 33.8435 16.2859Z" />
<path d="M49.4753 19.3523C48.6626 19.3203 47.8606 19.1921 47.0479 19.2028C46.278 19.2135 45.508 19.2562 44.7488 19.2989C43.9254 19.3523 43.1127 19.4057 42.3001 19.5232C41.5622 19.63 40.7923 19.6193 40.0973 19.9397C39.7016 20.1213 39.6589 20.9437 40.1187 21.0825C41.5088 21.5097 43.2197 21.232 44.6419 21.1252C45.4546 21.0612 46.278 21.0078 47.0906 20.9116C47.914 20.8048 48.6946 20.5805 49.5073 20.431C50.0206 20.3456 50.0313 19.3737 49.4753 19.3523Z" />
<path d="M45.6907 24.1683C45.6907 23.5381 45.8404 22.8332 45.8511 22.1497C45.8617 21.4875 45.8297 20.836 45.8083 20.1632C45.7762 19.4583 45.7334 18.7427 45.6158 18.0378C45.5089 17.397 45.4982 16.7134 45.1453 16.126C44.9421 15.7843 44.1187 15.8483 44.0011 16.2328C43.6482 17.4076 43.8941 18.8388 43.9797 20.067C44.0225 20.7613 44.0545 21.4662 44.1401 22.1711C44.2256 22.8866 44.4288 23.5488 44.6106 24.2858C44.771 24.8304 45.6907 24.4566 45.6907 24.1683Z" />
<path d="M59.2414 12.9325C59.8937 13.082 60.407 13.4559 60.5994 13.9685C60.824 14.4919 60.7278 15.09 60.4283 15.3356C60.1396 15.624 59.5301 15.6987 59.0275 15.5172C58.557 15.357 58.0972 14.8977 57.7764 14.321C57.1669 13.2102 56.9209 11.747 56.9209 10.3265C56.9209 8.89535 57.1241 7.35739 57.37 5.91555C57.5197 5.16792 57.7229 4.47369 58.0651 3.91831C58.2469 3.62994 58.4287 3.41635 58.6533 3.24546C58.8778 3.0639 59.1558 2.92504 59.4339 2.85028C60.0006 2.69007 60.4925 2.7862 60.7919 3.11729C61.1127 3.44838 61.2838 4.11056 61.2517 4.78342C61.1983 6.05438 60.5674 7.32535 59.6905 8.3827C58.8137 9.44006 57.6802 10.3052 56.5467 11.1382C55.2528 12.0567 55.3169 12.9539 57.0279 12.1849C58.3004 11.5868 59.6477 10.7858 60.8026 9.58957C61.9361 8.40405 62.8771 6.80201 63.0268 4.95431C63.091 4.0358 62.9841 2.98913 62.2997 2.07062C61.9682 1.62204 61.4549 1.25891 60.9096 1.08803C60.3642 0.906463 59.8081 0.906467 59.3056 0.991909C58.3004 1.17348 57.4342 1.71817 56.8354 2.47648C56.2686 3.20274 55.9478 4.02511 55.7554 4.78342C55.5308 5.65921 55.4239 6.50296 55.3169 7.32534C55.21 8.15841 55.1352 9.00216 55.1245 9.86727C55.1031 11.5868 55.3169 13.3918 56.2152 15.0472C56.6857 15.8696 57.3914 16.6493 58.4073 16.9911C59.3804 17.3115 60.5353 17.194 61.348 16.425C61.7543 16.0512 61.9789 15.5065 62.0323 14.9938C62.0858 14.4812 61.9789 13.9792 61.7757 13.5306C61.3694 12.6121 60.439 12.046 59.5515 11.8752C58.3859 11.6829 57.8299 12.1635 57.862 12.3985C57.8726 12.6976 58.3752 12.7616 59.2414 12.9325Z" />
<path d="M67.9968 18.3466C66.7778 18.3787 65.5908 18.2826 64.3611 18.3039C63.2062 18.3253 62.0514 18.3787 60.8858 18.4214C59.6454 18.4641 58.4157 18.5175 57.186 18.6243C56.0632 18.7204 54.9083 18.6991 53.839 18.9981C53.2295 19.169 53.1225 19.9914 53.8176 20.1409C55.9028 20.6002 58.5012 20.3545 60.672 20.2477C61.9124 20.1837 63.1528 20.1303 64.3932 20.0128C65.6443 19.8953 66.8312 19.6283 68.061 19.4253C68.8416 19.2972 68.8095 18.3253 67.9968 18.3466Z" />
<path d="M65.3885 28.3017C64.6613 27.8425 64.0197 27.2978 63.2926 26.8492L61.2288 25.5996C60.491 25.151 59.7745 24.7024 59.0153 24.2752C58.3309 23.8907 57.7 23.3888 56.9301 23.1752C56.4917 23.0577 55.9249 23.6558 56.2243 24.083C57.1226 25.3539 58.7693 26.2511 60.0846 27.0307C60.8438 27.4793 61.6031 27.9279 62.3944 28.3124C63.1964 28.6969 64.0304 28.9425 64.8538 29.2523C65.3778 29.4445 65.8697 28.6008 65.3885 28.3017Z" />
<path d="M65.24 21.7977C64.3632 22.2249 63.4757 22.6201 62.663 23.1968C61.9038 23.7415 61.2087 24.361 60.5457 25.0231C59.84 25.728 59.1984 26.4863 58.653 27.3194C58.1611 28.067 57.6051 28.8253 57.4233 29.7011C57.3164 30.2031 58.0007 30.673 58.3964 30.3099C59.5833 29.2312 60.5778 27.6291 61.6899 26.465C62.3208 25.8028 62.9945 25.1834 63.6788 24.5746C64.3739 23.9658 65.0048 23.3036 65.764 22.7482C66.2238 22.4171 65.8389 21.52 65.24 21.7977Z" />
</svg>
