<svg viewBox="0 0 90 81" fill="currentColor" xmlns="http://www.w3.org/2000/svg">
<path d="M82.0825 75.2263C69.6142 75.1301 57.4987 75.034 44.9448 74.9379C33.1395 74.9379 21.3662 74.9272 9.55019 74.9272C8.28839 74.9272 7.02659 74.9272 5.77548 74.9272C5.7327 64.2896 5.70061 53.7375 5.65784 43.1426C5.58298 31.7467 5.62577 19.9663 5.30497 9.10442C5.12319 2.9312 4.20355 1.71364 4.02177 8.67721C3.75444 18.8876 3.6689 30.3476 3.6582 41.9464C3.67959 53.8763 3.71168 65.9344 3.73306 76.9672C4.81308 76.9672 5.77547 76.9672 6.73786 76.9672C19.3131 76.9244 31.8884 76.8924 44.4423 76.8497C57.1031 76.7108 69.2185 76.5827 81.7617 76.4438C89.6426 76.369 90.4767 75.2797 82.0825 75.2263Z" />
<path d="M13.8939 60.5421C15.252 54.6359 16.5031 48.7831 17.6793 42.9196C18.2675 39.9825 18.8342 37.0454 19.3902 34.087C19.9356 31.1285 20.4703 28.1274 21.1867 25.1262C21.8604 22.2959 22.6624 19.487 23.7103 16.7422C24.7689 14.008 26.0842 11.3166 27.9448 8.92416C29.7841 6.54245 32.3397 4.47047 35.4622 3.70149C37.0341 3.29564 38.7985 3.35972 40.3276 3.9685C41.8781 4.53455 43.1506 5.55987 44.2306 6.64926C46.5083 9.05233 48.0054 11.8826 49.2458 14.7556C50.4755 17.6393 51.4165 20.6084 52.1329 23.6416C53.5017 29.6333 54.6459 35.6143 56.036 41.5312C57.3192 46.8927 58.8269 52.3397 60.9656 57.3808C62.0884 59.8693 63.3929 62.2723 65.0718 64.3123C65.8845 65.359 66.8362 66.2668 67.82 67.0998C68.8358 67.9009 69.9158 68.5951 71.0814 69.0971C73.7333 70.2399 75.5726 70.3039 75.7544 70.6564C75.8506 70.7952 75.5512 70.9234 74.7706 70.9875C74.5781 70.9982 74.3535 71.0088 74.0969 71.0195C73.8402 71.0088 73.5622 70.9768 73.2414 70.9341C72.5998 70.8914 71.8727 70.6991 71.0065 70.4535C68.4402 69.5884 66.0876 67.9222 64.2056 65.8289C62.3129 63.7356 60.7838 61.2898 59.5434 58.6944C58.2816 56.0884 57.3513 53.3436 56.453 50.5774C55.5762 47.8005 54.8063 44.9702 54.1112 42.1293C52.7104 36.4367 51.5876 30.68 50.3365 25.1048C49.7377 22.3386 48.9464 19.6686 47.9733 17.116C47.0002 14.574 45.8346 12.1389 44.3803 10.0456C42.7229 7.68524 40.4666 5.5919 37.7933 5.45306C36.4994 5.38898 35.12 5.76279 33.8689 6.41429C32.6178 7.05511 31.4843 7.94157 30.5005 8.98824C28.5116 11.0923 27.068 13.741 25.9131 16.4858C24.7582 19.2414 23.8814 22.1464 23.1436 25.0728C22.395 28.0313 21.8069 31.0004 21.1974 33.9802C20.5879 36.9493 19.957 39.8971 19.294 42.8449C17.9787 48.719 16.5779 54.5612 15.1129 60.4994C13.2951 67.9756 12.044 68.499 13.8939 60.5421Z" />
<path d="M8.42825 10.5256C7.90428 9.77798 7.61556 8.92355 7.21992 8.12253C6.87773 7.35354 6.52488 6.58455 6.26824 5.77285C5.97953 4.90774 5.75498 4.04264 5.54111 3.14549C5.34864 2.33379 5.32723 1.47937 5.01713 0.689021C4.84604 0.251128 3.93714 0.0588787 3.73397 0.635616C3.14584 2.35515 3.68049 4.51258 4.25792 6.17871C4.56802 7.15062 4.98506 8.09049 5.49833 8.96627C6.05438 9.83138 6.72803 10.5683 7.45517 11.2519C7.90428 11.7111 8.75974 11.0383 8.42825 10.5256Z" />
<path d="M3.6706 0.635583C3.53159 1.44729 3.17869 2.18423 2.95414 2.96389C2.6975 3.69016 2.47295 4.4271 2.16284 5.132C1.84205 5.90098 1.47847 6.63793 1.1256 7.39623C0.794105 8.09045 0.323609 8.7099 0.13113 9.47889C0.0241978 9.9061 0.655093 10.5896 1.1256 10.2906C2.51572 9.41481 3.34978 7.59915 3.9486 6.12527C4.30148 5.27084 4.60089 4.39506 4.78267 3.49791C4.94307 2.5794 4.92172 1.67158 4.87894 0.76375C4.85756 0.187013 3.77753 0.101567 3.6706 0.635583Z" />
<path d="M78.7695 72.9736C79.4967 73.6785 80.2559 74.33 81.1434 74.8533C81.9989 75.3126 82.8864 75.6864 83.8061 75.9534C84.7898 76.2524 85.7843 76.466 86.8002 76.5194C87.7198 76.5728 88.6715 76.6903 89.5483 76.3592C90.0616 76.167 90.0509 75.2378 89.559 75.0776C88.0406 74.5649 86.1586 74.5009 84.6187 74.0736C83.7312 73.8494 82.8971 73.4969 82.0523 73.1658C81.2183 72.792 80.3307 72.5357 79.5394 72.0337C79.0368 71.7453 78.2562 72.5143 78.7695 72.9736Z" />
<path d="M89.4614 75.0559C88.5418 75.0453 87.6222 75.0666 86.7133 75.2589C85.8685 75.4725 85.0344 75.7609 84.2538 76.124C83.409 76.5085 82.5964 76.9464 81.8585 77.4804C81.1956 77.9717 80.447 78.4203 80.0193 79.1572C79.7734 79.5844 80.3294 80.3214 80.7892 80.1825C82.2114 79.7553 83.5801 78.6979 84.8954 78.0571C85.6439 77.694 86.4139 77.4056 87.1945 77.1066C87.9751 76.8396 88.7236 76.4337 89.5577 76.2628C90.0602 76.1453 90.0923 75.0559 89.4614 75.0559Z" />
</svg>
