<svg viewBox="0 0 128 28" fill="currentColor" xmlns="http://www.w3.org/2000/svg">
<path d="M1.0105 26.8838C1.73764 27.2896 2.60378 27.4071 3.42716 27.1187C3.8335 26.9799 4.23986 26.6808 4.50719 26.3604C4.78521 26.0293 4.97769 25.6555 5.09532 25.2817C5.34126 24.5341 5.38403 23.8185 5.39473 23.167C5.41611 22.5155 5.41611 21.8533 5.39473 21.2018C5.30918 18.724 4.97768 16.2889 4.66758 13.8858C4.34678 11.3118 4.04737 8.7913 3.98321 6.26007C3.97252 5.68333 3.97252 5.10659 4.0046 4.52985C4.02599 3.94244 4.06876 3.39774 4.18639 2.91712C4.29332 2.43651 4.50719 2.03066 4.77452 1.78501C5.02046 1.56073 5.48027 1.44324 5.85453 1.50732C6.25018 1.56072 6.5282 1.75298 6.78483 1.76366C6.90246 1.75298 7.0094 1.66753 7.0094 1.42189C7.0094 1.18692 6.82761 0.781065 6.35711 0.535418C5.66205 0.172287 4.86005 0.161603 4.11153 0.556775C3.35231 0.994668 2.95667 1.67821 2.72142 2.36175C2.48617 3.03461 2.41131 3.71815 2.36854 4.33761C2.31507 4.96775 2.28299 5.59789 2.28299 6.22803C2.26161 8.76994 2.58241 11.2798 2.87112 13.5227C3.20261 16.0966 3.56619 18.6492 3.75866 21.1805C3.80144 21.8213 3.84419 22.4514 3.87627 23.0816C3.90835 23.7117 3.91905 24.2991 3.81212 24.8225C3.70519 25.3351 3.45924 25.7837 3.0422 25.9866C2.62517 26.2109 2.03704 26.2216 1.55584 25.9973C0.957024 25.741 0.636226 25.4312 0.368895 25.4953C0.25127 25.5274 0.176418 25.6662 0.219191 25.9439C0.28335 26.2002 0.518607 26.5954 1.0105 26.8838Z" />
<path d="M13.8423 21.6617C13.9172 19.8247 14.0882 18.0518 14.1417 16.2041C14.1738 14.4739 14.2059 12.7436 14.2379 11.0027C14.2593 10.0842 14.2807 9.16573 14.3021 8.24722C14.3128 7.79864 14.3342 7.31803 14.3556 6.94422C14.3556 6.79469 14.4091 6.5704 14.4518 6.36748C14.4946 6.16455 14.5481 5.96162 14.6122 5.78006C14.8368 5.08583 15.2217 4.60522 15.7564 4.41298C16.3017 4.23141 16.6974 4.31686 17.1358 4.88291C17.3711 5.19264 17.6598 5.39557 17.895 5.36352C18.1196 5.33148 18.3334 5.06448 18.1624 4.47706C18.0233 4.03917 17.756 3.53719 17.232 3.18474C16.6974 2.83228 16.013 2.75752 15.4356 2.88569C14.8475 3.01385 14.3128 3.31291 13.8958 3.7508C13.4894 4.16733 13.2221 4.66931 13.0296 5.14992C12.8478 5.6519 12.7195 6.06843 12.6447 6.60245C12.6019 6.91218 12.6019 7.10442 12.5805 7.33939L12.5591 8.01225C12.5484 8.88804 12.527 9.74246 12.5163 10.5542C12.495 12.4125 12.4843 14.2602 12.5163 16.1079C12.5591 17.977 12.7302 19.7606 12.8157 21.6083C12.8585 22.7725 13.7888 22.9006 13.8423 21.6617Z" />
<path d="M16.7717 11.5575C16.1408 11.5147 15.5313 11.3438 14.8897 11.2904C14.2909 11.2477 13.6814 11.2264 13.0718 11.205C12.4196 11.1836 11.7566 11.173 11.0936 11.2264C10.4948 11.2798 9.85319 11.2264 9.28645 11.5254C8.95496 11.6963 8.94426 12.4866 9.29714 12.6255C10.3558 13.0527 11.6924 12.9352 12.8366 12.9459C13.4889 12.9566 14.1519 12.9779 14.8041 12.9352C15.4778 12.8925 16.1194 12.7216 16.7824 12.6041C17.1994 12.5187 17.1888 11.5895 16.7717 11.5575Z" />
<path d="M24.633 21.3414C23.6813 20.0597 22.9756 18.7033 22.4623 17.2828C21.9811 15.9478 21.7779 14.538 21.8314 13.0855C21.8848 11.5368 22.1843 10.0095 22.751 8.59973C23.2643 7.29674 24.1411 6.19667 25.05 5.2034C25.5633 4.65871 25.3601 3.85768 24.4512 4.2849C23.0932 4.96844 21.9062 6.33551 21.2005 7.88416C20.484 9.4328 20.1846 11.131 20.1098 12.6369C20.0135 14.3671 20.2274 16.1828 20.9011 17.8062C21.5854 19.4509 22.6761 20.7433 23.7989 21.9715C24.5261 22.7298 25.2853 22.1851 24.633 21.3414Z" />
<path d="M34.3302 18.1159C33.9024 17.2294 33.4961 16.3643 32.9294 15.5633C32.3947 14.8156 31.8173 14.1214 31.2077 13.4379C30.5555 12.7116 29.8925 12.0174 29.1546 11.3873C28.513 10.8105 27.7859 10.1483 27.1229 9.82793C26.7914 9.64636 25.9894 9.89201 26.2568 10.5115C26.4813 10.9494 26.7807 11.3018 27.0374 11.6222C27.3154 11.9426 27.6148 12.2737 27.9249 12.5835C28.5451 13.2136 29.1974 13.8331 29.7428 14.4312C30.3737 15.1147 30.9832 15.8196 31.582 16.5245C32.1915 17.2294 32.8545 17.8595 33.3998 18.6072C33.7313 19.0664 34.6082 18.7246 34.3302 18.1159Z" />
<path d="M33.197 9.47524C32.5447 10.1588 31.8282 10.7569 31.1973 11.4724C30.5985 12.1453 30.0317 12.8502 29.4757 13.5658C28.8769 14.3348 28.2994 15.1144 27.7969 15.9582C27.3477 16.7165 26.8024 17.4855 26.642 18.3719C26.5457 18.8846 27.2301 19.2904 27.5937 18.9166C28.7165 17.8059 29.711 16.1397 30.7054 14.8154L32.427 12.5512C32.9938 11.7715 33.4429 10.9491 33.9776 10.1481C34.3197 9.6568 33.6354 9.01598 33.197 9.47524Z" />
<path d="M37.0882 21.8322C37.9651 20.636 38.8953 19.4505 39.5155 17.9659C40.1037 16.5988 40.3496 14.9861 40.2534 13.5122C40.1892 11.9315 39.8577 10.3509 39.1841 8.89833C38.5746 7.59533 37.7405 6.29233 36.5963 5.51266C35.9333 5.07477 35.3345 5.58743 35.7729 6.23893C36.4359 7.24288 37.0989 8.33228 37.5908 9.53915C38.0827 10.7353 38.4035 12.0383 38.489 13.2559C38.6173 14.6764 38.4569 15.9794 37.9971 17.3038C37.548 18.6281 36.9706 19.9204 36.2434 21.2021C35.7729 22.0245 36.4894 22.6439 37.0882 21.8322Z" />
<path d="M49.9765 16.8332C50.062 15.5943 50.2331 14.3981 50.2866 13.1485C50.3293 11.9736 50.34 10.8095 50.3507 9.63464C50.3614 8.38504 50.3614 7.13545 50.308 5.88585C50.2545 4.75374 50.3187 3.57889 50.0513 2.50018C49.9016 1.88072 49.121 1.75257 48.9499 2.44679C48.4473 4.52945 48.597 7.1568 48.597 9.33559C48.597 10.5852 48.597 11.8348 48.6398 13.0844C48.6826 14.3447 48.8537 15.5515 48.9392 16.8011C48.982 17.5594 49.9123 17.6662 49.9765 16.8332Z" />
<path d="M48.625 15.125C47.5664 15.8299 46.0693 15.894 45.1497 15.392C44.2621 14.9542 43.7275 13.8114 43.7489 12.6579C43.7489 11.4297 44.4546 10.2441 45.4384 9.91305C45.8875 9.7742 46.465 9.83828 46.9675 10.0519C47.4915 10.2655 47.9834 10.6179 48.4967 10.9811C49.0527 11.4083 49.812 11.0986 49.3629 10.2975C48.9993 9.71012 48.486 9.11203 47.7375 8.67414C46.9889 8.24692 46.0479 8.02263 45.0748 8.23624C44.059 8.48189 43.3532 9.1227 42.8399 9.85964C42.3374 10.6073 42.1128 11.4297 42.0379 12.2093C41.9631 13.1065 42.0914 14.0143 42.4764 14.8474C42.8506 15.6697 43.5029 16.4387 44.3691 16.8339C45.2566 17.2397 46.1762 17.2504 46.9889 17.0689C47.8123 16.8873 48.5715 16.5135 49.2131 15.9901C49.6195 15.6484 49.6302 15.2532 49.4591 15.0823C49.2773 14.9008 48.9779 14.8901 48.625 15.125Z" />
<path d="M60.4647 16.8116C60.0476 15.9572 59.6734 15.0814 59.1601 14.2697C58.6682 13.5007 58.1228 12.7745 57.5454 12.0696C56.9359 11.3113 56.2943 10.585 55.5885 9.93349C55.2677 9.63445 54.9577 9.31404 54.6262 9.02567C54.2733 8.71594 53.9739 8.5237 53.8242 8.42758C53.7172 8.36349 53.5354 8.22465 53.3216 8.16057C53.1077 8.08581 52.7548 8.17125 52.7441 8.64118C52.819 9.3888 53.2681 9.78397 53.4713 10.1044C53.7386 10.4355 54.0273 10.7666 54.316 11.0977C54.9042 11.7492 55.5244 12.39 56.0483 13.0094C56.6472 13.7143 57.2032 14.4513 57.7806 15.1882C58.3581 15.9251 58.9997 16.5873 59.5557 17.3456C59.8979 17.7835 60.7534 17.3884 60.4647 16.8116Z" />
<path d="M59.4285 7.71206C58.7976 8.5024 58.1025 9.21798 57.493 10.0297C56.9263 10.7987 56.3809 11.589 55.8462 12.3794C55.2688 13.2231 54.7021 14.0668 54.1781 14.9426C53.7076 15.733 53.1195 16.5019 52.8414 17.3777C52.681 17.8797 53.2692 18.4137 53.7183 18.0399C55.0763 16.9078 56.1563 15.0494 57.1401 13.5755C57.7068 12.7318 58.2736 11.8881 58.8082 11.0123C59.3429 10.1365 59.7492 9.22865 60.2518 8.33151C60.5833 7.77613 59.8562 7.17804 59.4285 7.71206Z" />
<path d="M70.3239 10.7992C69.7572 10.7352 69.2011 10.5749 68.6237 10.5536C68.0784 10.5215 67.5437 10.5322 66.9983 10.5429C66.4209 10.5536 65.8434 10.5749 65.266 10.639C64.742 10.7031 64.2074 10.6711 63.7048 10.9381C63.4268 11.0983 63.3733 11.8779 63.6834 12.0381C64.6458 12.5081 65.8541 12.3265 66.8593 12.2838C67.4367 12.2624 68.0142 12.2518 68.5809 12.1877C69.1584 12.1236 69.7144 11.942 70.2919 11.8352C70.6661 11.7711 70.7089 10.842 70.3239 10.7992Z" />
<path d="M70.1543 14.9542C69.6517 14.9115 69.1598 14.762 68.6465 14.7299C68.1653 14.6979 67.6841 14.6979 67.1816 14.6872C66.6576 14.6765 66.1229 14.6872 65.5883 14.7513C65.1071 14.8154 64.5938 14.7833 64.134 15.0824C63.8773 15.2533 63.8773 16.0436 64.166 16.1824C65.0322 16.599 66.0908 16.4388 67.0105 16.4281C67.5344 16.4174 68.0691 16.4281 68.6037 16.3747C69.1384 16.3213 69.6624 16.129 70.1864 16.0009C70.5285 15.9154 70.4965 14.9862 70.1543 14.9542Z" />
<path d="M82.7492 5.22347C81.081 5.21279 79.4556 5.10599 77.7661 5.14871L76.5684 5.19143L75.7665 5.23415C75.3815 5.28756 75.0393 5.39436 74.772 5.54388C74.6544 5.82157 74.5581 6.16334 74.4619 6.49443L74.4512 7.34885L74.4619 8.53437C74.4726 10.2325 74.5153 11.8987 74.6009 13.5755C74.6757 15.1028 74.6543 16.6728 74.9217 18.1253C75.0607 18.8943 75.8413 19.1933 76.0231 18.1894C76.4936 15.3484 76.2583 11.8239 76.2156 8.8975L76.1835 6.92164C76.2049 6.91096 76.2262 6.91096 76.2476 6.90028H76.269H76.2797L76.3546 6.8896L76.6326 6.86824L77.7768 6.7828C79.4663 6.65463 81.081 6.41967 82.7599 6.25946C83.7971 6.16334 83.8719 5.23415 82.7492 5.22347Z" />
<path d="M82.5239 11.6959C81.9358 11.6105 81.3584 11.4503 80.7702 11.4289C80.2142 11.4076 79.6689 11.4396 79.1128 11.461C78.5247 11.493 77.9473 11.5357 77.3698 11.6425C76.8459 11.7387 76.3005 11.728 75.8086 12.0377C75.7445 12.0804 75.691 12.1659 75.6589 12.262L75.6375 12.3367L75.6268 12.3795L75.6482 12.7106V12.6999V12.6785C75.6589 12.6251 75.6589 12.561 75.6589 12.5076C75.6589 12.4435 75.6482 12.3901 75.6375 12.3367L75.6161 12.2513L75.6055 12.2299V12.2193L75.691 12.8921L75.6482 12.9028L75.6589 12.9348C75.7017 13.031 75.7659 13.1057 75.8407 13.1378C76.8352 13.5436 78.0328 13.298 79.0273 13.2125C79.6047 13.1698 80.1714 13.1378 80.7489 13.0737C81.3263 13.0096 81.8716 12.8174 82.4491 12.7319C82.8233 12.6892 82.9303 11.76 82.5239 11.6959Z" />
<path d="M89.1104 22.2473C88.2336 21.1045 87.7951 19.7161 87.4316 18.2849C87.1001 16.9392 86.9076 15.54 86.8969 14.1409C86.8862 12.6457 87.1 11.1611 87.5171 9.762C87.9127 8.48036 88.6399 7.35893 89.4205 6.36566C89.8589 5.81028 89.6237 4.99858 88.7682 5.47919C87.4743 6.20545 86.4478 7.63662 85.9024 9.1639C85.325 10.6912 85.1539 12.3146 85.1539 13.7564C85.1325 15.4119 85.3357 17.0673 85.8276 18.6587C86.3301 20.2501 87.1428 21.6812 88.287 22.8881C89.0676 23.6464 89.7092 22.9735 89.1104 22.2473Z" />
<path d="M99.4003 17.2714C98.8764 16.5451 98.4379 15.7868 97.8926 15.0819C97.3686 14.4197 96.8233 13.7896 96.2779 13.1487C95.6898 12.4652 95.1016 11.7923 94.4707 11.1622C93.8933 10.5854 93.38 9.91259 92.6743 9.49605C92.268 9.26108 91.6157 9.69898 91.8082 10.1796C92.4177 11.6321 93.765 12.9458 94.8022 14.1206C95.4011 14.7935 95.9785 15.4664 96.6094 16.1072C97.2403 16.7587 97.9354 17.2927 98.5876 17.9122C98.994 18.3073 99.7532 17.752 99.4003 17.2714Z" />
<path d="M96.5011 9.42172C96.1482 10.148 95.6349 10.7461 95.1644 11.4083C94.7153 12.0384 94.2449 12.6685 93.753 13.2987C93.229 13.9822 92.6836 14.6764 92.2238 15.4454C91.8068 16.1396 91.3149 16.8659 91.208 17.699C91.1545 18.1796 91.8496 18.5427 92.1811 18.2116C93.1648 17.197 94.0738 15.7658 94.9934 14.5376C95.5174 13.8434 96.052 13.1278 96.5011 12.3481C96.9609 11.5578 97.2283 10.6927 97.4635 9.8169C97.6132 9.25084 96.7363 8.94111 96.5011 9.42172Z" />
<path d="M101.924 22.985C102.159 22.6646 102.405 22.3549 102.64 22.0345L103.25 21.0199C103.699 20.3577 103.955 19.5887 104.266 18.8304C104.715 17.3458 104.918 15.7972 104.854 14.2592C104.757 12.6038 104.383 11.0017 103.71 9.51715C103.089 8.18211 102.394 6.79368 101.175 5.91789C101.015 5.78973 100.812 5.73633 100.662 5.73633C100.502 5.73633 100.395 5.8004 100.32 5.89653C100.191 6.09945 100.17 6.35578 100.363 6.65483C101.603 8.64137 102.897 11.5037 103.079 14.0136C103.186 15.4447 103.047 16.8972 102.704 18.3071C102.597 18.6595 102.501 19.012 102.394 19.3537L102.245 19.8771L102.041 20.379L101.624 21.3937C101.453 21.7141 101.271 22.0345 101.079 22.3656C100.619 23.1666 101.282 23.8501 101.924 22.985Z" />
<path d="M115.395 12.4226C114.797 12.3692 114.209 12.2197 113.599 12.1983C113.022 12.1769 112.444 12.1983 111.856 12.2197C111.236 12.2517 110.605 12.2944 109.974 12.4226C109.407 12.5401 108.798 12.5828 108.306 12.9566C108.028 13.1702 108.156 13.9499 108.498 14.0353C109.525 14.3023 110.712 14.0353 111.77 13.9606C112.369 13.9178 112.979 13.8965 113.588 13.8324C114.208 13.7683 114.797 13.5761 115.406 13.4586C115.791 13.3838 115.791 12.4546 115.395 12.4226Z" />
<path d="M113 16.9936C112.989 16.2994 113.096 15.6052 113.086 14.9003C113.086 14.2381 113.054 13.5653 113.021 12.8924C112.989 12.1661 112.947 11.4506 112.84 10.7243C112.733 10.0621 112.722 9.36789 112.38 8.7698C112.187 8.42803 111.396 8.47075 111.289 8.8766C110.968 10.0835 111.204 11.536 111.278 12.7963C111.321 13.5119 111.364 14.2381 111.46 14.9644C111.556 15.6906 111.792 16.3849 111.974 17.1004C112.08 17.549 113.011 17.4636 113 16.9936Z" />
<path d="M126.099 16.1077C125.223 17.3572 123.704 17.4641 122.389 16.8873C121.138 16.364 120.058 15.2532 119.79 14.0036C119.459 12.6793 120.229 11.2588 121.362 10.2548C121.865 9.81694 122.496 9.53926 123.105 9.47518C123.704 9.4111 124.346 9.54994 124.88 9.87035C125.18 10.0412 125.479 10.1267 125.714 10.0412C125.928 9.96647 126.067 9.61402 125.693 9.12273C125.126 8.39646 124.175 7.9372 123.137 7.91584C122.111 7.89448 121.116 8.30034 120.336 8.89844C119.555 9.52858 118.967 10.2228 118.518 11.1093C118.079 11.9744 117.908 12.989 118.015 13.9075C118.304 16.0543 119.876 17.6883 121.715 18.4039C122.656 18.7564 123.704 18.8418 124.677 18.5428C125.65 18.2544 126.463 17.5709 126.944 16.7485C127.265 16.2251 127.126 15.8193 126.923 15.7125C126.687 15.5736 126.388 15.7125 126.099 16.1077Z" />
</svg>
