<svg viewBox="0 0 33 34"  fill="currentColor" xmlns="http://www.w3.org/2000/svg">
<path d="M32.1593 11.2188C31.0885 8.02794 29.0462 5.25247 26.3187 3.28164C21.2155 -0.499904 14.6251 -0.913481 9.51878 2.23568C7.17269 3.61505 5.14221 5.4718 3.55873 7.68578C1.94548 10.1827 1.05236 13.0766 0.977747 16.0487C0.903132 19.0208 1.64991 21.9559 3.13583 24.5307C4.47909 26.771 6.28131 28.7015 8.42392 30.195C10.5665 31.6885 13.001 32.7113 15.5671 33.196C16.2246 33.325 16.8885 33.4191 17.5559 33.478C19.7922 33.7506 22.0605 33.4126 24.1203 32.4999C26.8452 31.1857 29.1039 28.2909 30.7708 24.2663C31.7102 21.9955 33.7275 16.1787 32.1593 11.2188ZM28.8032 23.3718C27.2538 27.1129 25.4616 29.3719 23.1617 30.4804C21.4291 31.2386 19.5238 31.5144 17.6474 31.2786C15.0728 31.0704 12.5844 30.2529 10.3877 28.8936C8.19096 27.5342 6.34873 25.6718 5.01293 23.4601C3.72769 21.239 3.08 18.7061 3.14117 16.1403C3.20233 13.5746 3.96996 11.0755 5.35958 8.91813C6.75592 6.9737 8.54462 5.34406 10.61 4.13458C13.2418 2.50097 16.397 1.93235 19.4331 2.5445C21.8627 3.06113 24.1186 4.1943 25.9839 5.83507C27.8492 7.47585 29.2613 9.56905 30.0844 11.9135C31.4373 16.1933 29.6387 21.3521 28.8032 23.3718V23.3718Z"  fill="currentColor"/>
<path d="M15.0058 25.414C13.6103 25.1291 7.13136 22.7804 7.70144 16.2241C7.71371 16.0855 7.7532 15.9507 7.81756 15.8274C7.88193 15.704 7.96991 15.5946 8.07656 15.5053C8.18321 15.416 8.30642 15.3486 8.43912 15.3069C8.57182 15.2653 8.7114 15.2501 8.84994 15.2625C9.12697 15.2939 9.3813 15.4307 9.56025 15.6446C9.7392 15.8585 9.82911 16.133 9.81127 16.4114C9.70833 21.2507 14.112 23.1628 15.8957 23.4185C17.5287 23.6526 21.1759 24.5012 22.4925 18.8866C22.5532 18.6164 22.7164 18.3803 22.9477 18.2282C23.1791 18.0762 23.4604 18.02 23.7324 18.0715L23.7527 18.0755C24.0246 18.14 24.2609 18.3073 24.4121 18.5424C24.5633 18.7775 24.6175 19.062 24.5634 19.3362C23.4321 26.2857 17.0985 25.5847 15.5766 25.5137C15.3842 25.4945 15.1934 25.4612 15.0058 25.414Z"  fill="currentColor"/>
<path d="M13.7809 12.6978C13.531 12.6479 13.2931 12.5507 13.0798 12.4114C12.8308 12.2874 12.6211 12.0969 12.474 11.8609C12.3268 11.6249 12.2479 11.3526 12.2461 11.0745C12.2955 10.7534 12.4272 10.4507 12.6284 10.1957C12.8296 9.9407 13.0934 9.7422 13.3941 9.61953C13.3197 9.45959 13.297 9.28044 13.3291 9.10699C13.3613 8.93354 13.4466 8.77441 13.5734 8.65176C13.7001 8.5291 13.8619 8.44901 14.0362 8.42263C14.2106 8.39625 14.3888 8.42489 14.5462 8.50456C15.1637 8.81324 15.6366 9.35064 15.8644 10.0026C16.0068 10.4163 16.0195 10.8637 15.9008 11.2849C15.7822 11.7061 15.5377 12.081 15.2003 12.3594C15.0026 12.5158 14.7731 12.6271 14.528 12.6856C14.2828 12.744 14.0278 12.7482 13.7809 12.6978Z"  fill="currentColor"/>
<path d="M22.2881 14.7187C21.8251 14.6297 21.3924 14.4244 21.0306 14.122C20.9409 14.0462 20.868 13.9527 20.8164 13.8472C20.7648 13.7418 20.7357 13.6268 20.7309 13.5095C20.7247 13.2384 20.7827 12.9696 20.9002 12.7252C21.0177 12.4808 21.1914 12.2678 21.4071 12.1035C21.6313 11.9276 21.8937 11.807 22.1731 11.7512C22.1265 11.5319 22.1677 11.303 22.2878 11.1137C22.408 10.9243 22.5975 10.7897 22.8158 10.7386C23.1758 10.6577 23.5521 10.6935 23.8904 10.8407C24.2287 10.988 24.5114 11.2391 24.6976 11.5577C24.9373 11.9038 25.0644 12.3155 25.0616 12.7365C25.0588 13.1576 24.9263 13.5675 24.6821 13.9105C24.4923 14.1513 24.2552 14.3507 23.9855 14.4965C23.7158 14.6422 23.4191 14.7312 23.1137 14.7579C22.8381 14.786 22.5598 14.7728 22.2881 14.7187Z"  fill="currentColor"/>
</svg>
